<?xml version="1.0" encoding="utf-8"?>
<svg width="100px" height="100px" viewBox="0 0 100 100" preserveAspectRatio="xMidYMid" class="uil-ripple" xmlns="http://www.w3.org/2000/svg">
  <circle cx="50" cy="50" r="36" style="fill: rgb(255, 255, 255);"/>
  <path d="M 29.922 21.319 C 14.109 32.393 10.245 54.267 21.318 70.08 C 32.397 85.9 54.273 89.751 70.086 78.678 C 85.898 67.606 89.755 45.737 78.677 29.917 C 67.605 14.104 45.735 10.247 29.922 21.319 Z M 65.047 67.704 C 65.124 67.817 65.123 67.976 65.023 68.066 C 64.821 68.246 64.641 68.386 64.392 68.56 C 62.461 68.499 60.237 69.031 58.661 68.251 C 55.216 66.548 51.692 64.61 48.936 61.993 C 43.287 56.626 38.963 50.177 36.581 42.675 C 35.231 38.418 34.58 34.023 38.191 29.634 C 40.642 33.134 42.765 36.154 44.871 39.186 C 45.113 39.535 45.477 39.969 45.436 40.323 C 44.643 47.055 49.478 50.911 53.092 55.381 C 53.495 55.877 54.982 58.102 55.538 58.232 C 58.91 56.289 62.082 63.404 65.047 67.704 Z M 39.301 29.283 C 42.976 26.157 43.072 26.169 45.657 29.851 C 46.652 31.267 47.647 32.68 48.631 34.101 C 50.857 37.315 50.637 37.945 46.565 39.655 C 44.2 36.281 41.814 32.871 39.301 29.283 Z M 66.485 66.814 C 64.045 63.331 61.7 59.982 59.365 56.647 C 62.337 53.29 62.986 53.296 65.352 56.647 C 66.35 58.065 67.348 59.489 68.341 60.915 C 70.747 64.37 70.708 64.511 66.485 66.814 Z" style="fill: rgb(147, 190, 61);"/>
  <circle id="circle1" cx="50" cy="50" r="80" stroke="#93BE3D" fill="none" stroke-width="2" stroke-linecap="round"/>
  <circle id="circle2" cx="50" cy="50" r="80" stroke="#93BE3D" fill="none" stroke-width="2" stroke-linecap="round"/>
</svg>