<?xml version="1.0" encoding="utf-8"?>
<svg version="1.0" id="Capa_1" x="0px" y="0px" width="140px" height="140px" viewBox="0 0 140 140" enable-background="new 0 0 140 140" xmlns="http://www.w3.org/2000/svg">
  <path d="M 41.177 27.825 C 18.476 43.72 12.929 75.122 28.825 97.824 C 44.728 120.535 76.133 126.063 98.834 110.167 C 121.535 94.272 127.071 62.878 111.168 40.167 C 95.272 17.465 63.878 11.929 41.177 27.825 Z M 91.601 94.413 C 91.711 94.574 91.71 94.802 91.566 94.932 C 91.276 95.19 91.018 95.391 90.659 95.643 C 87.888 95.553 84.696 96.317 82.433 95.198 C 77.489 92.753 72.428 89.97 68.472 86.212 C 60.363 78.509 54.156 69.25 50.737 58.481 C 48.797 52.37 47.862 46.059 53.049 39.761 C 56.566 44.785 59.612 49.12 62.636 53.472 C 62.984 53.973 63.506 54.597 63.447 55.105 C 62.31 64.768 69.249 70.305 74.44 76.722 C 75.017 77.435 77.152 80.628 77.951 80.813 C 82.789 78.024 87.343 88.24 91.601 94.413 Z M 54.641 39.256 C 59.917 34.769 60.054 34.785 63.767 40.073 C 65.193 42.104 66.621 44.133 68.035 46.173 C 71.23 50.788 70.914 51.691 65.068 54.147 C 61.674 49.301 58.248 44.408 54.641 39.256 Z M 93.665 93.136 C 90.163 88.135 86.796 83.327 83.444 78.54 C 87.71 73.72 88.642 73.728 92.036 78.54 C 93.472 80.577 94.904 82.62 96.329 84.666 C 99.783 89.626 99.728 89.829 93.665 93.136 Z" style="fill: rgb(147, 190, 61);"/>
</svg>