<?xml version="1.0" encoding="utf-8"?>
<!-- Generator: Adobe Illustrator 18.0.0, SVG Export Plug-In . SVG Version: 6.00 Build 0)  -->
<!DOCTYPE svg PUBLIC "-//W3C//DTD SVG 1.1//EN" "http://www.w3.org/Graphics/SVG/1.1/DTD/svg11.dtd">
<svg version="1.1" id="Layer_1" xmlns="http://www.w3.org/2000/svg" xmlns:xlink="http://www.w3.org/1999/xlink" x="0px" y="0px"
	 viewBox="0 0 36 36" enable-background="new 0 0 36 36" xml:space="preserve">
<path fill="#4A76A8" d="M35.8,9.3c-0.1-0.1-0.3-0.2-0.6-0.3c-0.3-0.1-0.7-0.1-1.2,0l-5.4,0c-0.1,0-0.3,0-0.4,0C28.2,9,28.1,9,28,9
	c0,0-0.1,0-0.1,0l-0.1,0.1c-0.1,0-0.1,0.1-0.2,0.2c-0.1,0.1-0.1,0.2-0.2,0.3c-0.6,1.5-1.3,2.8-2,4.1c-0.5,0.8-0.9,1.4-1.3,2
	c-0.4,0.6-0.7,1-1,1.2c-0.3,0.3-0.5,0.5-0.7,0.6c-0.2,0.2-0.4,0.2-0.5,0.2c-0.1,0-0.2,0-0.3-0.1c-0.2-0.1-0.3-0.3-0.4-0.4
	c-0.1-0.2-0.2-0.4-0.2-0.7c0-0.3-0.1-0.5-0.1-0.7c0-0.2,0-0.5,0-0.9c0-0.4,0-0.6,0-0.8c0-0.5,0-1,0-1.5c0-0.5,0-1,0-1.3
	c0-0.3,0-0.7,0-1c0-0.4,0-0.6-0.1-0.8c0-0.2-0.1-0.4-0.2-0.6c-0.1-0.2-0.2-0.3-0.4-0.4c-0.2-0.1-0.4-0.2-0.6-0.2
	C19.2,8.1,18.3,8,17.3,8c-2.3,0-3.8,0.1-4.5,0.4c-0.3,0.1-0.5,0.3-0.7,0.5c-0.2,0.3-0.3,0.4-0.1,0.4c0.7,0.1,1.3,0.4,1.6,0.8
	l0.1,0.2c0.1,0.2,0.2,0.4,0.3,0.8c0.1,0.4,0.1,0.8,0.2,1.3c0.1,0.9,0.1,1.7,0,2.3C14.1,15.5,14,16,14,16.4c-0.1,0.4-0.1,0.6-0.3,0.9
	c-0.1,0.2-0.2,0.4-0.2,0.4c0,0-0.1,0.1-0.1,0.1c-0.2,0.1-0.3,0.1-0.5,0.1c-0.2,0-0.4-0.1-0.6-0.3c-0.3-0.2-0.5-0.4-0.8-0.7
	c-0.3-0.3-0.6-0.7-0.9-1.3c-0.3-0.5-0.7-1.2-1-1.9l-0.3-0.5c-0.2-0.3-0.4-0.8-0.8-1.5C8.1,11,7.9,10.4,7.6,9.8
	C7.5,9.5,7.4,9.3,7.2,9.2L7.1,9.1C7,9.1,6.9,9,6.8,9C6.6,8.9,6.5,8.9,6.3,8.9l-5.1,0C0.7,8.9,0.3,9,0.1,9.3L0.1,9.4
	C0,9.4,0,9.5,0,9.7c0,0.1,0,0.3,0.1,0.5c0.7,1.7,1.6,3.4,2.4,5C3.4,16.7,4.2,18,4.9,19c0.6,1,1.3,1.9,2,2.8c0.7,0.9,1.1,1.4,1.3,1.7
	c0.2,0.2,0.4,0.4,0.5,0.5l0.5,0.4c0.3,0.3,0.7,0.6,1.3,1.1c0.6,0.4,1.2,0.8,1.9,1.2c0.7,0.4,1.5,0.7,2.5,1c0.9,0.2,1.8,0.4,2.7,0.3
	h2.2c0.4,0,0.8-0.2,1-0.4l0.1-0.1c0-0.1,0.1-0.2,0.1-0.3c0-0.2,0.1-0.3,0.1-0.5c0-0.5,0-1,0.1-1.4c0.1-0.4,0.2-0.7,0.3-1
	c0.1-0.2,0.3-0.4,0.4-0.5c0.1-0.1,0.3-0.2,0.3-0.3c0.1,0,0.1-0.1,0.1-0.1c0.3-0.1,0.7,0,1.1,0.3c0.4,0.3,0.8,0.6,1.1,1.1
	c0.4,0.4,0.8,0.9,1.3,1.4c0.5,0.5,0.9,0.9,1.3,1.2l0.4,0.2c0.2,0.1,0.6,0.3,1,0.4c0.4,0.1,0.7,0.2,1,0.1l4.8-0.1
	c0.5,0,0.8-0.1,1.1-0.2c0.3-0.2,0.4-0.3,0.5-0.5c0-0.2,0.1-0.4,0-0.6c0-0.2-0.1-0.4-0.1-0.5c0-0.1-0.1-0.2-0.1-0.2
	c-0.6-1.1-1.8-2.4-3.6-4c0,0,0,0-0.1-0.1c-0.4-0.4-0.8-0.7-1.1-1c-0.3-0.3-0.5-0.5-0.6-0.8c-0.1-0.3-0.2-0.5-0.2-0.6
	c0-0.2,0-0.4,0.2-0.8c0.2-0.3,0.4-0.6,0.6-0.9c0.2-0.3,0.5-0.7,1-1.3c0.5-0.6,0.9-1.2,1.2-1.6c2.2-2.8,3.1-4.6,2.8-5.4L35.8,9.3z"/>
</svg>
