<?xml version="1.0" encoding="utf-8"?>
<!-- Generator: Adobe Illustrator 19.0.0, SVG Export Plug-In . SVG Version: 6.00 Build 0)  -->
<svg version="1.1" id="Layer_1" xmlns="http://www.w3.org/2000/svg" xmlns:xlink="http://www.w3.org/1999/xlink" x="0px" y="0px"
	 viewBox="-780 548.5 155 126" style="enable-background:new -780 548.5 155 126;" xml:space="preserve">
<style type="text/css">
	.st0{fill:#B9BAA3;}
</style>
<g>
	<g>
		<polygon class="st0" points="-741.6,625.5 -739.2,625.5 -739.2,626.2 -740.8,626.2 -740.8,629.8 -741.6,629.8 		"/>
		<path class="st0" d="M-737.3,631.5v-5.9h0.6v0.5c0.1-0.3,0.4-0.4,0.5-0.5c0.3-0.1,0.4-0.1,0.8-0.1s0.6,0.1,1,0.3
			c0.3,0.3,0.5,0.5,0.6,0.8c0.1,0.4,0.3,0.8,0.3,1.1s-0.1,0.9-0.3,1.1c-0.1,0.4-0.4,0.6-0.6,0.8c-0.3,0.1-0.6,0.3-1,0.3
			c-0.3,0-0.5,0-0.6-0.1c-0.3-0.1-0.4-0.3-0.5-0.4v2.1h-0.8V631.5z M-736.7,627.7L-736.7,627.7c0,0.5,0.1,1,0.4,1.3
			c0.3,0.3,0.5,0.4,0.8,0.4c0.4,0,0.6-0.1,0.9-0.4c0.3-0.3,0.4-0.8,0.4-1.3c0-0.5-0.1-1-0.4-1.3c-0.3-0.3-0.5-0.4-0.8-0.4
			s-0.6,0.1-0.9,0.4C-736.5,626.7-736.7,627.2-736.7,627.7L-736.7,627.7z"/>
		<path class="st0" d="M-731.6,631.5l-0.1-0.6c0.1,0,0.3,0.1,0.4,0.1s0.3,0,0.4-0.1c0.1,0,0.1-0.1,0.3-0.3c0-0.1,0.1-0.3,0.3-0.5
			c0,0,0-0.1,0.1-0.1l-1.6-4.3h0.8l0.9,2.5c0.1,0.4,0.3,0.6,0.3,1c0.1-0.4,0.1-0.6,0.3-1l0.9-2.5h0.8l-1.4,4.3
			c-0.1,0.5-0.3,0.8-0.4,1c-0.1,0.3-0.3,0.4-0.5,0.5c-0.1,0.1-0.4,0.1-0.6,0.1C-731.2,631.6-731.4,631.6-731.6,631.5L-731.6,631.5z"
			/>
		<polygon class="st0" points="-726.1,625.5 -722.7,625.5 -722.7,629.8 -723.4,629.8 -723.4,626.2 -725.4,626.2 -725.4,629.8 
			-726.1,629.8 		"/>
		<polygon class="st0" points="-720.4,625.5 -717,625.5 -717,629.8 -717.7,629.8 -717.7,626.2 -719.6,626.2 -719.6,629.8 
			-720.4,629.8 		"/>
		<path class="st0" d="M-711.8,629.3c-0.3,0.3-0.5,0.4-0.8,0.5c-0.3,0.1-0.5,0.1-0.8,0.1c-0.5,0-0.9-0.1-1.1-0.4s-0.4-0.5-0.4-0.9
			c0-0.3,0-0.4,0.1-0.6c0.1-0.1,0.3-0.3,0.4-0.4c0.1-0.1,0.4-0.1,0.5-0.3c0.1,0,0.4-0.1,0.6-0.1c0.6-0.1,1-0.1,1.3-0.3
			c0-0.1,0-0.1,0-0.3c0-0.3-0.1-0.5-0.3-0.6c-0.1-0.1-0.5-0.3-0.9-0.3s-0.6,0-0.8,0.1c-0.1,0.1-0.3,0.4-0.4,0.6l-0.8-0.1
			c0.1-0.3,0.1-0.5,0.4-0.8c0.1-0.1,0.4-0.4,0.6-0.4c0.3-0.1,0.6-0.1,1-0.1s0.6,0,0.9,0.1c0.3,0.1,0.4,0.3,0.5,0.4
			c0.1,0.1,0.1,0.3,0.3,0.5c0,0.1,0,0.4,0,0.6v1c0,0.6,0,1.1,0,1.3s0.1,0.4,0.1,0.5h-0.8C-711.7,629.7-711.8,629.4-711.8,629.3
			L-711.8,629.3z M-711.8,627.7L-711.8,627.7c-0.3,0.1-0.6,0.3-1.1,0.3c-0.3,0-0.5,0.1-0.6,0.1c-0.1,0-0.3,0.1-0.3,0.3
			c-0.1,0.1-0.1,0.3-0.1,0.4c0,0.3,0.1,0.4,0.3,0.5s0.4,0.3,0.6,0.3c0.3,0,0.5,0,0.8-0.1c0.3-0.1,0.4-0.3,0.5-0.5
			c0.1-0.1,0.1-0.4,0.1-0.8v-0.4H-711.8z"/>
		<path class="st0" d="M-705.1,625.5h0.8v1.9c0.3,0,0.4,0,0.5-0.1c0.1-0.1,0.3-0.4,0.4-0.8c0.1-0.4,0.3-0.5,0.4-0.6
			c0.1-0.1,0.3-0.1,0.3-0.3c0.1,0,0.3,0,0.5,0h0.1v0.6h-0.3c-0.3,0-0.3,0-0.4,0.1c0,0-0.1,0.3-0.3,0.5c-0.1,0.3-0.3,0.5-0.3,0.6
			c-0.1,0.1-0.3,0.3-0.4,0.3c0.3,0.1,0.6,0.4,0.9,0.9l0.8,1.4h-0.8l-0.8-1.6c-0.1-0.3-0.3-0.5-0.4-0.5c-0.1-0.1-0.3-0.1-0.4-0.1v2
			h-0.8V625.5L-705.1,625.5z"/>
		<path class="st0" d="M-700.5,627.7c0-0.8,0.3-1.4,0.6-1.8c0.4-0.4,0.9-0.5,1.4-0.5c0.6,0,1.1,0.3,1.5,0.6c0.4,0.4,0.5,0.9,0.5,1.6
			c0,0.5-0.1,1-0.3,1.3c-0.1,0.4-0.4,0.5-0.8,0.8c-0.4,0.1-0.6,0.3-1,0.3c-0.6,0-1.1-0.3-1.5-0.6S-700.5,628.4-700.5,627.7
			L-700.5,627.7z M-699.7,627.7L-699.7,627.7c0,0.5,0.1,1,0.4,1.3c0.3,0.3,0.5,0.4,0.9,0.4s0.6-0.1,0.9-0.4c0.3-0.3,0.4-0.8,0.4-1.3
			c0-0.5-0.1-0.9-0.4-1.3c-0.3-0.3-0.5-0.4-0.9-0.4s-0.6,0.1-0.9,0.4C-699.6,626.7-699.7,627-699.7,627.7L-699.7,627.7z"/>
		<polygon class="st0" points="-694.3,625.5 -693.2,625.5 -692,628.9 -690.8,625.5 -689.8,625.5 -689.8,629.8 -690.5,629.8 
			-690.5,626.3 -691.8,629.8 -692.4,629.8 -693.6,626.2 -693.6,629.8 -694.3,629.8 		"/>
		<polygon class="st0" points="-687.4,625.5 -684,625.5 -684,629.8 -684.7,629.8 -684.7,626.2 -686.6,626.2 -686.6,629.8 
			-687.4,629.8 		"/>
		<path class="st0" d="M-678.8,629.3c-0.3,0.3-0.5,0.4-0.8,0.5c-0.3,0.1-0.5,0.1-0.8,0.1c-0.5,0-0.9-0.1-1.1-0.4
			c-0.3-0.3-0.4-0.5-0.4-0.9c0-0.3,0-0.4,0.1-0.6c0.1-0.1,0.3-0.3,0.4-0.4c0.1-0.1,0.4-0.1,0.5-0.3c0.1,0,0.4-0.1,0.6-0.1
			c0.6-0.1,1-0.1,1.3-0.3c0-0.1,0-0.1,0-0.3c0-0.3-0.1-0.5-0.3-0.6c-0.1-0.1-0.5-0.3-0.9-0.3s-0.6,0-0.8,0.1
			c-0.1,0.1-0.3,0.4-0.4,0.6l-0.5,0.1c0.1-0.3,0.1-0.5,0.4-0.8c0.1-0.1,0.4-0.4,0.6-0.4c0.3-0.1,0.6-0.1,1-0.1s0.6,0,0.9,0.1
			s0.4,0.3,0.5,0.4c0.1,0.1,0.1,0.3,0.3,0.5c0,0.1,0,0.4,0,0.6v1c0,0.6,0,1.1,0,1.3c0,0.1,0.1,0.4,0.1,0.5h-0.8
			C-678.7,629.7-678.8,629.4-678.8,629.3L-678.8,629.3z M-678.9,627.7L-678.9,627.7c-0.3,0.1-0.6,0.3-1.1,0.3
			c-0.3,0-0.5,0.1-0.6,0.1c-0.1,0-0.3,0.1-0.3,0.3c-0.1,0.1-0.1,0.3-0.1,0.4c0,0.3,0.1,0.4,0.3,0.5c0.1,0.1,0.4,0.3,0.6,0.3
			s0.5,0,0.8-0.1c0.3-0.1,0.4-0.3,0.5-0.5c0.1-0.1,0.1-0.4,0.1-0.8v-0.4H-678.9z"/>
		<polygon class="st0" points="-675.8,625.5 -675,625.5 -675,627.3 -673,627.3 -673,625.5 -672.3,625.5 -672.3,629.8 -673,629.8 
			-673,627.9 -675,627.9 -675,629.8 -675.8,629.8 		"/>
		<polygon class="st0" points="-669.9,625.5 -669.2,625.5 -669.2,628.8 -667.2,625.5 -666.3,625.5 -666.3,629.8 -667.1,629.8 
			-667.1,626.5 -669.1,629.8 -669.9,629.8 		"/>
		<path class="st0" d="M-664.1,625.5h0.8v3.3l2-3.3h0.8v4.3h-0.8v-3.3l-2,3.3h-0.8V625.5L-664.1,625.5z M-661.5,623.9L-661.5,623.9
			h0.5c0,0.4-0.1,0.6-0.4,0.8c-0.3,0.1-0.5,0.3-0.9,0.3s-0.6-0.1-0.9-0.3c-0.3-0.1-0.4-0.4-0.4-0.8h0.5c0,0.1,0.1,0.4,0.3,0.4
			c0.1,0.1,0.3,0.1,0.5,0.1c0.3,0,0.4,0,0.5-0.1C-661.5,624.2-661.5,624-661.5,623.9L-661.5,623.9z"/>
	</g>
	<g>
		<path class="st0" d="M-780,639.9c0-0.3,0-0.4,0-0.6c0.5,0,0.9,0,1.3-0.1c0.4,0,0.8-0.1,1.1-0.1s0.6-0.1,1-0.1s0.8-0.1,1.1-0.1
			c0.3,0,0.5,0.1,0.6,0.3c0.1,0.1,0.3,0.3,0.4,0.5c0.1,0.3,0.1,0.5,0.1,0.8c0,0.3,0,0.5,0,0.8v1.9c0,0.1,0,0.3,0.1,0.3
			c0,0,0.1,0,0.3,0h2.5v-1.3c0-0.5-0.1-0.9-0.1-1.3c-0.1-0.4-0.1-0.8-0.3-1.1c0.3-0.1,0.6-0.1,1-0.3c0.4-0.1,0.6-0.1,0.9-0.3
			c0.3-0.1,0.5-0.1,0.8-0.1s0.5-0.1,0.6-0.1c0.3,0,0.5,0.1,0.8,0.3c0.1,0.1,0.3,0.4,0.4,0.6s0.1,0.5,0.1,0.9c0,0.3,0,0.6,0,1v6
			c0,0.5,0.1,0.9,0.1,1.3c0.1,0.4,0.1,0.8,0.3,1.1c-0.3,0.1-0.6,0.1-1,0.3c-0.4,0.1-0.6,0.1-0.9,0.3s-0.5,0.1-0.8,0.1
			s-0.5,0.1-0.6,0.1c-0.3,0-0.5-0.1-0.8-0.3c-0.1-0.1-0.3-0.4-0.4-0.6c-0.1-0.3-0.1-0.5-0.1-0.9s0-0.6,0-1v-1.5c0-0.1,0-0.3,0-0.3
			l-0.1-0.1h-2.8v1.3c0,0.5,0.1,0.9,0.1,1.3c0.1,0.4,0.1,0.8,0.3,1.1c-0.3,0.1-0.6,0.1-0.9,0.3c-0.4,0.1-0.6,0.1-0.9,0.3
			c-0.3,0.1-0.5,0.1-0.8,0.1c-0.3,0-0.4,0.1-0.6,0.1s-0.5-0.1-0.8-0.3c-0.1-0.1-0.3-0.4-0.4-0.6c-0.1-0.3-0.1-0.5-0.1-0.9s0-0.6,0-1
			v-5.9c-0.3,0-0.5-0.1-0.8-0.3c-0.3-0.1-0.4-0.4-0.5-0.5c-0.1-0.3-0.3-0.4-0.3-0.6C-780,640.4-780,640.2-780,639.9L-780,639.9z"/>
		<path class="st0" d="M-766.6,640.3c0-0.4,0.1-0.8,0.4-1.1c0.3-0.3,0.8-0.5,1.4-0.5h6.4c0.3,0,0.6,0,0.9,0c0.4,0,0.6-0.1,0.9-0.1
			c0.3,0.3,0.4,0.5,0.4,0.9c0.3,0.4,0.3,0.6,0.3,0.9c0,0.4-0.1,0.6-0.3,0.9c-0.1,0.3-0.4,0.4-0.5,0.5c-0.3,0.1-0.5,0.1-0.8,0.1
			c-0.3,0-0.5,0-0.8,0h-2.4v1.1c0,0.1,0,0.3,0,0.3s0.1,0,0.3,0h2.9c0.1,0.1,0.1,0.4,0.1,0.6c0,0.3,0,0.4,0,0.6
			c0,0.5-0.1,0.9-0.5,1.1c0,0.3-0.6,0.5-1.4,0.5h-1.3v1c0,0.1,0,0.3,0,0.3s0.1,0,0.3,0h2.1c0.3,0,0.6,0,0.9,0c0.4,0,0.6-0.1,0.9-0.1
			c0.3,0.3,0.4,0.5,0.4,0.9c0.1,0.4,0.1,0.6,0.1,0.9c0,0.4-0.1,0.6-0.3,0.9c-0.1,0.3-0.4,0.4-0.5,0.5c-0.3,0.1-0.5,0.1-0.8,0.1
			c-0.3,0-0.5,0-0.8,0h-4.7c-0.3,0-0.5,0-0.8,0c-0.3,0-0.4-0.1-0.6-0.3c-0.1-0.1-0.3-0.4-0.4-0.5c-0.1-0.3-0.1-0.5-0.1-1v-6.8
			c-0.3,0-0.5,0-0.6,0c-0.1,0-0.4,0-0.6,0.1c-0.1-0.3-0.4-0.5-0.4-0.9C-766.6,640.8-766.6,640.5-766.6,640.3L-766.6,640.3z"/>
		<path class="st0" d="M-755.8,651v-1.9c0-0.4,0.1-0.8,0.3-1c0.1-0.3,0.4-0.4,0.9-0.4h0.3c0.3-0.3,0.5-0.6,0.8-1.1
			c0.3-0.5,0.4-0.9,0.5-1.5c0.1-0.5,0.3-1.1,0.4-1.6c0.1-0.5,0.1-1.1,0.1-1.6c-0.4,0-0.6-0.1-0.8-0.3c-0.3-0.1-0.4-0.3-0.5-0.5
			c-0.1-0.1-0.3-0.4-0.3-0.6s-0.1-0.5-0.1-0.8c0-0.1,0-0.4,0-0.5c0-0.1,0-0.3,0-0.5h9.1c0.3,0,0.5,0.1,0.8,0.3
			c0.1,0.1,0.3,0.4,0.4,0.6c0.1,0.3,0.1,0.5,0.1,0.9c0,0.3,0,0.6,0,1v6.2h0.1c0.4,0,0.8,0.1,0.9,0.4c0.1,0.3,0.3,0.6,0.3,1v1.9
			c0,0.6,0.1,1.3,0.3,1.8c-0.3,0.1-0.5,0.1-0.8,0.3c-0.3,0-0.4,0.1-0.6,0.1c-0.1,0-0.4,0.1-0.5,0.1s-0.3,0-0.4,0
			c-0.3,0-0.5,0-0.8-0.1c-0.1-0.1-0.4-0.3-0.4-0.5c-0.1-0.1-0.1-0.4-0.3-0.6c0-0.3,0-0.5,0-0.9v-0.5h-6.2c-0.1,0-0.3,0.1-0.1,0.3
			v0.1c0,0.6,0.1,1.3,0.3,1.6c-0.3,0.1-0.5,0.1-0.8,0.3c-0.3,0-0.4,0.1-0.6,0.1c-0.1,0-0.4,0.1-0.5,0.1s-0.3,0-0.4,0
			c-0.3,0-0.5,0-0.8-0.1c-0.1-0.1-0.4-0.3-0.4-0.5c-0.1-0.1-0.1-0.4-0.3-0.6C-755.8,651.5-755.8,651.2-755.8,651L-755.8,651z
			 M-751,647.6L-751,647.6h2.6c0.1,0,0.1,0,0.1-0.1c0,0,0-0.1,0-0.3v-5.5h-1.3h-0.1c0,0,0,0.1-0.1,0.1c-0.1,1.4-0.3,2.6-0.5,3.7
			C-750.3,646.5-750.5,647.2-751,647.6L-751,647.6z"/>
		<path class="st0" d="M-743,640.3c0-0.4,0.1-0.6,0.3-0.8c0.1-0.3,0.4-0.4,0.6-0.5c0.3-0.1,0.5-0.1,0.8-0.3c0.3,0,0.5,0,0.9,0h4
			c0.9,0,1.6,0.1,2.3,0.3c0.6,0.1,1.1,0.4,1.5,0.6c0.4,0.3,0.6,0.6,0.9,1c0.1,0.4,0.3,0.8,0.3,1.3c0,0.5-0.1,0.9-0.4,1.4
			c-0.3,0.4-0.6,0.8-1,1c0.8,0.1,1.3,0.5,1.6,1c0.4,0.5,0.5,1,0.5,1.6s-0.1,1.1-0.4,1.6c-0.3,0.4-0.6,0.8-1,1.1
			c-0.4,0.3-0.9,0.5-1.4,0.6c-0.5,0.1-1.1,0.3-1.6,0.4c-0.5,0.1-1.1,0.1-1.6,0.1c-0.5,0-1,0-1.5,0c-0.4,0-0.6,0-1,0
			s-0.6-0.1-0.9-0.3c-0.3-0.1-0.4-0.3-0.5-0.5c-0.1-0.3-0.3-0.6-0.3-1v-6.8c-0.3,0-0.5,0-0.6,0c-0.1,0-0.4,0-0.6,0.1
			c-0.1-0.3-0.4-0.5-0.4-0.9C-742.8,640.8-743,640.5-743,640.3L-743,640.3z M-737,643.8L-737,643.8h0.6c0.9,0,1.3-0.4,1.3-1
			c0-0.4-0.1-0.6-0.4-0.8c-0.3-0.1-0.5-0.1-0.8-0.1h-0.6v1.9H-737z M-736.9,647.7L-736.9,647.7c0,0,0.1,0,0.3,0c0.1,0,0.3,0,0.3,0
			c0.5,0,0.9-0.1,1.1-0.3c0.3-0.1,0.4-0.4,0.4-0.8c0-0.4-0.1-0.6-0.4-0.8c-0.3-0.1-0.5-0.3-0.9-0.3h-0.8V647.7L-736.9,647.7z"/>
		<path class="st0" d="M-731.2,639.9c0-0.3,0-0.4,0-0.6c0.5,0,0.9,0,1.3-0.1c0.4,0,0.8-0.1,1-0.1c0.4,0,0.6-0.1,1-0.1
			c0.4,0,0.8-0.1,1.1-0.1c0.3,0,0.5,0.1,0.6,0.3c0.1,0.1,0.3,0.3,0.4,0.5c0.1,0.3,0.1,0.5,0.1,0.8c0,0.3,0,0.5,0,0.8v4.4l2.9-6
			c0.3,0,0.5-0.1,0.8-0.1c0.3-0.1,0.5-0.1,0.8-0.3c0.3,0,0.5-0.1,0.8-0.1s0.4-0.1,0.6-0.1s0.5,0.1,0.8,0.3c0.1,0.1,0.3,0.4,0.4,0.6
			c0.1,0.3,0.1,0.5,0.3,0.9c0,0.3,0,0.6,0,1v6c0,0.5,0.1,0.9,0.1,1.3c0.1,0.4,0.1,0.8,0.3,1.1c-0.3,0.1-0.6,0.1-0.9,0.3
			c-0.4,0.1-0.6,0.1-0.9,0.3s-0.5,0.1-0.8,0.1s-0.4,0.1-0.6,0.1s-0.5-0.1-0.8-0.3c-0.1-0.1-0.3-0.4-0.4-0.6
			c-0.1-0.3-0.1-0.5-0.3-0.9c0-0.4,0-0.6,0-1v-3.8l-2.9,5.7c-0.3,0-0.5,0.1-0.8,0.1c-0.3,0.1-0.5,0.1-0.8,0.3
			c-0.3,0.1-0.5,0.1-0.8,0.1s-0.4,0.1-0.5,0.1c-0.3,0-0.5-0.1-0.8-0.3c-0.1-0.1-0.3-0.4-0.4-0.6c-0.1-0.3-0.1-0.5-0.3-0.9
			c0-0.4,0-0.6,0-1v-5.9c-0.3,0-0.5-0.1-0.8-0.3c-0.3-0.1-0.4-0.4-0.5-0.5c-0.1-0.3-0.3-0.4-0.3-0.6
			C-731.2,640.4-731.2,640.2-731.2,639.9L-731.2,639.9z"/>
		<path class="st0" d="M-717.7,641.2c0-0.4,0.1-0.8,0.3-1c0.1-0.3,0.4-0.5,0.6-0.8c0.3-0.3,0.5-0.4,0.8-0.4c0.3-0.1,0.5-0.1,0.8-0.1
			c0.9,0,1.8,0.4,2.3,1.1c0.6,0.8,1.1,2.1,1.5,3.9h0.1v-2c0-0.5-0.1-0.9-0.1-1.3c-0.1-0.4-0.1-0.8-0.3-1.1c0.3-0.1,0.6-0.1,0.9-0.3
			c0.4-0.1,0.6-0.1,0.9-0.3c0.3-0.1,0.5-0.1,0.8-0.1s0.4-0.1,0.6-0.1s0.5,0.1,0.8,0.3c0.1,0.1,0.4,0.4,0.4,0.6
			c0.1,0.3,0.1,0.5,0.1,0.9c0,0.3,0,0.6,0.1,1v2.3c0.3-0.1,0.5-0.3,0.6-0.4c0.1-0.1,0.3-0.4,0.4-0.6c0.1-0.3,0.1-0.5,0.3-0.8
			c0-0.3,0.1-0.5,0.1-0.8c0-0.3,0-0.5-0.1-0.8c0-0.3-0.1-0.5-0.3-0.8c0.3-0.4,0.6-0.5,1.1-0.6c0.4-0.1,0.9-0.1,1.3-0.1
			s0.8,0.1,1,0.3c0.3,0.1,0.5,0.4,0.8,0.5c0.1,0.3,0.4,0.5,0.4,0.8c0.1,0.3,0.1,0.5,0.1,0.9c0,0.6-0.1,1.3-0.5,1.9
			c-0.4,0.5-0.9,1-1.5,1.4c0.1,0.4,0.3,0.9,0.5,1.3c0.3,0.4,0.5,0.9,0.8,1.3c0.3,0.4,0.6,0.8,0.9,1.1c0.4,0.4,0.6,0.6,1,0.8
			c-0.3,0.6-0.6,1.1-1.1,1.5c-0.5,0.4-1,0.5-1.6,0.5c-0.5,0-1-0.1-1.3-0.3c-0.4-0.1-0.8-0.4-1-0.9c-0.3-0.4-0.5-1-0.8-1.8
			s-0.5-1.6-0.8-2.8h-0.1v2.4c0,0.5,0.1,0.9,0.1,1.3c0.1,0.4,0.1,0.8,0.3,1.1c-0.3,0.1-0.6,0.1-0.9,0.3c-0.4,0.1-0.6,0.1-0.9,0.3
			c-0.3,0.1-0.5,0.1-0.8,0.1c-0.3,0-0.4,0.1-0.6,0.1c-0.3,0-0.5-0.1-0.6-0.3c-0.1-0.1-0.3-0.4-0.4-0.6c-0.1-0.3-0.1-0.5-0.1-0.9
			c0-0.4,0-0.6,0-1v-2.6c-0.3,0.1-0.5,0.3-0.6,0.5c-0.1,0.3-0.4,0.4-0.5,0.8c-0.1,0.3-0.3,0.5-0.3,0.9c0,0.3-0.1,0.6-0.1,0.9
			c0,0.6,0.1,1.1,0.3,1.6c-0.4,0.4-0.6,0.6-1.1,0.8c-0.4,0.1-0.8,0.3-1.3,0.3c-0.4,0-0.8-0.1-1-0.3c-0.3-0.1-0.5-0.4-0.6-0.6
			c-0.1-0.3-0.4-0.5-0.4-0.8c-0.1-0.3-0.1-0.6-0.1-0.9c0-0.8,0.3-1.5,0.6-2.1s0.9-1.3,1.6-1.6c-0.1-0.4-0.3-0.6-0.5-1.1
			c-0.3-0.4-0.4-0.8-0.8-1.1c-0.3-0.4-0.5-0.6-0.9-0.9C-717.2,641.3-717.5,641.2-717.7,641.2L-717.7,641.2z"/>
		<path class="st0" d="M-700.5,639.9c0-0.3,0-0.4,0-0.6c0.5,0,0.9,0,1.3-0.1c0.4,0,0.8-0.1,1-0.1c0.4,0,0.6-0.1,1-0.1
			s0.8-0.1,1.1-0.1c0.3,0,0.5,0.1,0.6,0.3c0.1,0.1,0.3,0.3,0.4,0.5c0.1,0.3,0.1,0.5,0.1,0.8c0,0.3,0,0.5,0,0.8v4.4l2.9-6
			c0.3,0,0.5-0.1,0.8-0.1c0.3-0.1,0.5-0.1,0.8-0.3c0.3,0,0.5-0.1,0.8-0.1c0.3,0,0.4-0.1,0.6-0.1s0.5,0.1,0.8,0.3
			c0.1,0.1,0.3,0.4,0.4,0.6c0.1,0.3,0.1,0.5,0.3,0.9c0,0.3,0,0.6,0,1v6c0,0.5,0.1,0.9,0.1,1.3c0.1,0.4,0.1,0.8,0.3,1.1
			c-0.3,0.1-0.6,0.1-0.9,0.3c-0.4,0.1-0.6,0.1-0.9,0.3s-0.5,0.1-0.8,0.1s-0.4,0.1-0.6,0.1s-0.5-0.1-0.8-0.3
			c-0.1-0.1-0.3-0.4-0.4-0.6c-0.1-0.3-0.1-0.5-0.3-0.9c0-0.4,0-0.6,0-1v-3.8l-2.9,5.7c-0.3,0-0.5,0.1-0.8,0.1
			c-0.3,0.1-0.5,0.1-0.8,0.3c-0.3,0.1-0.5,0.1-0.8,0.1s-0.4,0.1-0.5,0.1c-0.3,0-0.5-0.1-0.8-0.3c-0.1-0.1-0.3-0.4-0.4-0.6
			c-0.1-0.3-0.1-0.5-0.3-0.9c0-0.4,0-0.6,0-1v-5.9c-0.3,0-0.5-0.1-0.8-0.3c-0.3-0.1-0.4-0.4-0.5-0.5c-0.1-0.3-0.3-0.4-0.3-0.6
			C-700.5,640.4-700.5,640.2-700.5,639.9L-700.5,639.9z"/>
		<path class="st0" d="M-686.9,639.9c0-0.3,0-0.4,0-0.6c0.9,0,1.8-0.1,2.5-0.3c0.8-0.1,1.5-0.3,2.4-0.3c0.5,0,0.9,0.1,1.1,0.4
			c0.3,0.3,0.5,0.6,0.6,1.1l1.3,3.8l1.1-3.8c0.3-0.6,0.5-1,0.8-1.3c0.4-0.3,0.8-0.3,1.4-0.3l1.3,0.3c0.4,0,0.6,0.1,0.8,0.1
			c0.3,0.1,0.4,0.3,0.5,0.4c0.1,0.1,0.3,0.4,0.3,0.6s0.1,0.5,0.1,0.9l0.3,6.3c0,0.5,0.1,1,0.1,1.4c0.1,0.4,0.1,0.8,0.3,1.1
			c-0.3,0.1-0.6,0.1-0.9,0.3c-0.4,0.1-0.6,0.1-0.9,0.3c-0.3,0.1-0.5,0.1-0.8,0.1c-0.3,0-0.4,0.1-0.6,0.1c-0.3,0-0.5-0.1-0.8-0.3
			c-0.1-0.1-0.3-0.4-0.4-0.6c-0.1-0.3-0.1-0.5-0.1-0.9c0-0.3,0-0.6,0-1l0.1-4.3l-0.9,2.4c-0.1,0.4-0.3,0.6-0.5,0.9
			c-0.1,0.3-0.5,0.4-0.8,0.4h-0.9c-0.4,0-0.6-0.1-0.8-0.4s-0.4-0.5-0.5-0.9l-1-2.3l0.3,3.7c0,0.5,0.1,1,0.1,1.4
			c0.1,0.4,0.1,0.8,0.3,1.1c-0.3,0.1-0.6,0.1-0.9,0.3c-0.4,0.1-0.6,0.1-0.9,0.3c-0.3,0.1-0.5,0.1-0.8,0.1c-0.3,0-0.4,0.1-0.6,0.1
			s-0.5-0.1-0.8-0.3c-0.1-0.1-0.3-0.4-0.4-0.6c-0.1-0.3-0.1-0.5-0.3-0.9c0-0.3,0-0.6,0-1l0.3-5.9c-0.3,0-0.5-0.1-0.8-0.3
			c-0.3-0.1-0.4-0.4-0.5-0.5c-0.1-0.1-0.1-0.4-0.3-0.6C-686.9,640.3-686.9,640.2-686.9,639.9L-686.9,639.9z"/>
		<path class="st0" d="M-671.1,645.1c0-0.9,0.1-1.6,0.4-2.4c0.3-0.8,0.6-1.4,1.1-2c0.5-0.6,1.1-1,1.9-1.4c0.8-0.4,1.6-0.5,2.8-0.5
			c1,0,2,0.1,2.8,0.4c0.8,0.3,1.4,0.6,1.8,1.1c0.5,0.5,0.8,1.1,1,1.8c0.3,0.6,0.3,1.5,0.3,2.3c0,0.9-0.1,1.6-0.4,2.4
			c-0.3,0.8-0.6,1.4-1,2c-0.5,0.6-1.1,1-1.9,1.4c-0.8,0.4-1.6,0.5-2.6,0.5c-1.1,0-2-0.1-2.8-0.4c-0.8-0.3-1.4-0.6-1.9-1.1
			c-0.5-0.5-0.9-1.1-1-1.8C-671,646.7-671.1,646-671.1,645.1L-671.1,645.1z M-667,644.7L-667,644.7c0,0.3,0,0.5,0.1,0.8
			c0,0.3,0.1,0.5,0.3,0.8s0.3,0.4,0.5,0.5c0.3,0.1,0.5,0.3,0.9,0.3c0.5,0,1-0.1,1.4-0.5s0.5-0.9,0.5-1.8c0-0.8-0.1-1.3-0.5-1.6
			c-0.3-0.4-0.8-0.6-1.3-0.6c-0.5,0-1,0.1-1.4,0.5S-667,643.9-667,644.7L-667,644.7z"/>
		<path class="st0" d="M-658.5,645.1c0-0.9,0.1-1.8,0.4-2.5s0.6-1.5,1-2c0.5-0.6,1.1-1,1.9-1.4s1.6-0.5,2.8-0.5c0.5,0,1,0,1.5,0.1
			c0.5,0.1,1,0.3,1.4,0.4c0.4,0.3,0.8,0.5,1,0.8c0.3,0.4,0.4,0.8,0.4,1.3c0,0.4-0.1,0.8-0.4,1.1c-0.3,0.4-0.5,0.6-1,0.8
			c-0.4-0.3-0.8-0.4-1.3-0.6c-0.5-0.1-1-0.3-1.4-0.3c-0.3,0-0.5,0-0.8,0.1c-0.3,0.1-0.5,0.3-0.6,0.4c-0.1,0.3-0.4,0.5-0.4,0.8
			c-0.1,0.3-0.1,0.6-0.1,1.1c0,0.6,0.1,1.3,0.5,1.6s0.9,0.6,1.6,0.6s1.3-0.1,1.8-0.4c0.5-0.3,0.9-0.4,1.3-0.6
			c0.4,0.3,0.6,0.5,0.8,0.9c0.1,0.4,0.3,0.8,0.3,1.1c0,0.5-0.1,1-0.4,1.4c-0.3,0.4-0.6,0.6-1.1,0.9c-0.5,0.3-0.9,0.4-1.5,0.5
			c-0.5,0.1-1,0.1-1.5,0.1c-1,0-1.9-0.1-2.6-0.4c-0.8-0.3-1.4-0.6-1.8-1.1c-0.5-0.5-0.9-1-1-1.8C-658.5,646.7-658.5,646-658.5,645.1
			L-658.5,645.1z"/>
		<path class="st0" d="M-648.1,640.7c0-0.4,0-0.6,0.1-0.9c0.1-0.3,0.3-0.5,0.4-0.6c0.3-0.1,0.5-0.3,0.8-0.4c0.4-0.1,0.8-0.1,1.3-0.1
			c0.4,0,0.8,0,1.1,0c0.5,0,0.9,0,1.4,0.1c0.5,0,1,0,1.4,0.1c0.5,0,0.9,0,1.1,0c0.5,0,1,0,1.4-0.1c0.4-0.1,0.8-0.1,1.1-0.3
			c0.3,0.4,0.4,0.6,0.5,1c0.1,0.4,0.3,0.8,0.3,1.1c0,0.3,0,0.5-0.1,0.8s-0.3,0.4-0.4,0.6c-0.3,0.1-0.5,0.3-0.9,0.4
			c-0.4,0.1-0.9,0.1-1.4,0.1h-0.4c-0.1,0-0.3,0.1-0.1,0.3v4.5c0,0.5,0.1,0.9,0.1,1.3c0.1,0.4,0.1,0.8,0.3,1.1
			c-0.3,0.1-0.6,0.1-0.9,0.3c-0.4,0.1-0.6,0.1-0.9,0.3c-0.3,0.1-0.5,0.1-0.8,0.1s-0.4,0.1-0.6,0.1c-0.3,0-0.5-0.1-0.8-0.3
			c-0.1-0.1-0.3-0.4-0.4-0.6c-0.1-0.3-0.1-0.5-0.1-0.9s0-0.6,0-1v-5.5c-0.1,0-0.1,0-0.3,0c-0.1,0-0.1,0-0.3,0c-0.4,0-0.9,0-1.3,0.1
			c-0.4,0.1-0.8,0.3-1,0.4c-0.3-0.4-0.4-0.8-0.5-1.1C-648.1,641.4-648.1,641-648.1,640.7L-648.1,640.7z"/>
		<path class="st0" d="M-636.8,639.9c0-0.1,0-0.3,0-0.4c0-0.1,0-0.3,0-0.4c0.5,0,0.9,0,1.3-0.1c0.4,0,0.8-0.1,1-0.1
			c0.4,0,0.6-0.1,1-0.1s0.6-0.1,1.1-0.1c0.3,0,0.5,0.1,0.6,0.3c0.1,0.1,0.3,0.3,0.4,0.5c0.1,0.3,0.1,0.5,0.1,0.8c0,0.3,0,0.5,0,0.8
			v2.3c0.4-0.5,0.8-0.9,1.4-1.1c0.5-0.3,1.1-0.4,1.6-0.4s1,0.1,1.4,0.3c0.4,0.1,0.8,0.5,1,0.8c0.3,0.4,0.5,0.8,0.6,1.1
			c0.1,0.5,0.3,0.9,0.3,1.4c0,1-0.1,1.8-0.5,2.4s-0.8,1.1-1.3,1.6c-0.5,0.4-1.1,0.6-1.8,0.9c-0.6,0.1-1.4,0.3-2,0.3
			c-0.5,0-1,0-1.5-0.1c-0.5-0.1-1-0.3-1.5-0.6c-0.5-0.3-0.9-0.8-1.1-1.4s-0.5-1.4-0.5-2.4v-4c-0.3-0.1-0.5-0.1-0.6-0.4
			c-0.1-0.1-0.4-0.4-0.5-0.5c-0.1-0.3-0.3-0.4-0.3-0.6C-636.7,640.4-636.8,640.2-636.8,639.9L-636.8,639.9z M-631.3,645.6
			L-631.3,645.6c0,0.6,0.1,1.1,0.3,1.3c0.3,0.3,0.5,0.4,0.8,0.4c0.4,0,0.6-0.1,0.8-0.3c0.3-0.3,0.4-0.5,0.4-0.8
			c0-0.4-0.1-0.6-0.3-0.8c-0.1-0.3-0.4-0.4-0.5-0.5c-0.3-0.1-0.5-0.1-0.8-0.3c-0.3,0-0.5,0-0.8,0v0.9H-631.3z"/>
		<path class="st0" d="M-744.2,660.4c0-0.3,0-0.4,0-0.6c0.5,0,0.9,0,1.3-0.1c0.4,0,0.8-0.1,1.1-0.1s0.6-0.1,1-0.1s0.8-0.1,1.1-0.1
			c0.3,0,0.5,0.1,0.6,0.3c0.1,0.1,0.3,0.3,0.4,0.5c0.1,0.3,0.1,0.5,0.1,0.8c0,0.3,0,0.5,0,0.8v2.6h0.5c0.4,0,0.6-0.1,0.8-0.3
			c0.3-0.1,0.4-0.3,0.5-0.5s0.1-0.4,0.3-0.6c0-0.3,0-0.5,0-0.6c0-0.3,0-0.6-0.1-0.9c-0.1-0.3-0.3-0.6-0.4-0.9
			c0.4-0.4,0.6-0.6,1.1-0.8c0.4-0.1,0.9-0.3,1.3-0.3s0.8,0.1,1,0.3c0.3,0.1,0.5,0.4,0.8,0.6c0.1,0.3,0.4,0.5,0.4,0.8
			c0.1,0.3,0.1,0.6,0.1,0.9c0,0.8-0.1,1.4-0.5,1.9s-0.8,1-1.4,1.4c0.1,0.4,0.4,0.8,0.5,1.1c0.3,0.4,0.5,0.8,0.8,1
			c0.3,0.3,0.5,0.5,0.9,0.8c0.3,0.3,0.6,0.4,0.9,0.4c0,0.5-0.1,0.9-0.3,1.3c-0.1,0.4-0.4,0.6-0.6,0.8c-0.3,0.3-0.5,0.4-0.9,0.5
			c-0.4,0.1-0.6,0.1-1,0.1c-0.5,0-1-0.1-1.4-0.3c-0.4-0.1-0.8-0.4-1-0.8c-0.4-0.4-0.6-0.9-0.9-1.6c-0.3-0.6-0.5-1.6-0.6-2.6h-0.8
			v2.3c0,0.5,0.1,0.9,0.1,1.3c0.1,0.4,0.1,0.8,0.3,1.1c-0.3,0.1-0.6,0.1-0.9,0.3c-0.4,0.1-0.6,0.1-0.9,0.3c-0.3,0.1-0.5,0.1-0.8,0.1
			c-0.3,0-0.4,0.1-0.6,0.1s-0.5-0.1-0.8-0.3c-0.1-0.1-0.3-0.4-0.4-0.6s-0.1-0.5-0.1-0.9s0-0.6,0-1v-5.9c-0.3,0-0.5-0.1-0.8-0.3
			c-0.3-0.1-0.4-0.4-0.5-0.5c-0.1-0.3-0.3-0.4-0.3-0.6C-744.2,660.9-744.2,660.7-744.2,660.4L-744.2,660.4z"/>
		<path class="st0" d="M-731.1,670.4c0-0.3-0.1-0.5,0-0.6c0-0.3,0.1-0.5,0.3-0.8l2.1-5.2c0.3-0.6,0.5-1,0.8-1.4c-0.3,0-0.4,0-0.6,0
			c-0.3,0-0.4,0-0.6,0c-0.1-0.3-0.3-0.5-0.3-0.8c-0.1-0.3-0.1-0.6-0.1-0.9c0-0.5,0.1-0.8,0.5-1.1c0.4-0.3,1-0.4,1.9-0.4h3.2
			c0.6,0,1,0.1,1.4,0.4c0.4,0.3,0.6,0.6,0.8,1.3l2.5,7.7c0.1,0.3,0.3,0.6,0.4,0.9c0.1,0.4,0.3,0.6,0.4,0.9c-0.5,0.1-1,0.3-1.5,0.4
			c-0.6,0.4-1.1,0.5-1.5,0.5s-0.8-0.1-1-0.3c-0.3-0.3-0.5-0.6-0.6-1.1l-0.3-0.6h-3.8l-0.8,2h-1.9c-0.4,0-0.6-0.1-0.8-0.3
			C-730.9,670.8-731,670.5-731.1,670.4L-731.1,670.4z M-726.2,666.1L-726.2,666.1c0,0.3,0,0.3,0.1,0.3h1.6l-0.9-2.8L-726.2,666.1
			L-726.2,666.1z"/>
		<path class="st0" d="M-719.9,660.9c0-0.4,0.1-0.6,0.3-0.8c0.1-0.3,0.4-0.4,0.6-0.5c0.3-0.1,0.5-0.1,0.8-0.3c0.3,0,0.5,0,0.9,0h3.9
			c1,0,1.9,0.1,2.5,0.3c0.8,0.3,1.3,0.5,1.8,0.8c0.5,0.4,0.8,0.8,1,1.3c0.3,0.5,0.4,1,0.4,1.6c0,0.6-0.1,1.1-0.3,1.6
			c-0.1,0.5-0.5,1-0.9,1.4s-0.9,0.6-1.5,0.9c-0.6,0.3-1.4,0.4-2.3,0.4c-0.1,0-0.4,0-0.6,0s-0.4,0-0.5,0v0.6c0,0.5,0.1,0.9,0.1,1.3
			c0.1,0.4,0.1,0.8,0.3,1c-0.3,0.1-0.6,0.1-0.9,0.3c-0.4,0.1-0.6,0.1-0.9,0.3s-0.5,0.1-0.8,0.1s-0.4,0.1-0.6,0.1s-0.5-0.1-0.8-0.3
			c-0.1-0.1-0.3-0.4-0.4-0.6c-0.1-0.3-0.1-0.5-0.1-0.9s0-0.6,0-1v-6c-0.3,0-0.5,0-0.6,0c-0.1,0-0.4,0-0.6,0.1
			c-0.1-0.3-0.4-0.5-0.4-0.9C-719.9,661.5-719.9,661.2-719.9,660.9L-719.9,660.9z M-714,665.1L-714,665.1c0,0,0.1,0,0.3,0
			s0.1,0,0.3,0c0.4,0,0.8-0.1,1-0.3c0.3-0.3,0.4-0.6,0.4-1.1c0-0.5-0.1-0.8-0.4-1c-0.3-0.1-0.5-0.3-0.9-0.3h-0.6V665.1L-714,665.1z"
			/>
		<path class="st0" d="M-708,660.9c0-0.4,0.1-0.8,0.4-1.1c0.3-0.3,0.8-0.5,1.4-0.5h6.4c0.3,0,0.6,0,0.9,0c0.4,0,0.6-0.1,0.9-0.1
			c0.3,0.3,0.4,0.5,0.4,0.9c0.1,0.3,0.1,0.6,0.1,0.9c0,0.4-0.1,0.6-0.3,0.9c-0.1,0.3-0.4,0.4-0.5,0.5c-0.3,0.1-0.5,0.1-0.8,0.1
			c-0.3,0-0.5,0-0.8,0h-2.4v1.1c0,0.1,0,0.3,0,0.3s0.1,0,0.3,0h2.9c0.1,0.1,0.1,0.4,0.1,0.6s0,0.4,0,0.6c0,0.5-0.1,0.9-0.5,1.1
			s-0.9,0.5-1.6,0.5h-1.3v1.1c0,0.1,0,0.3,0,0.3s0.1,0,0.3,0h2.1c0.3,0,0.6,0,0.9,0c0.4,0,0.6-0.1,0.9-0.1c0.3,0.3,0.4,0.5,0.4,0.9
			c0.1,0.4,0.1,0.6,0.1,0.9c0,0.4-0.1,0.6-0.3,0.9c-0.1,0.3-0.4,0.4-0.5,0.5c-0.3,0.1-0.5,0.1-0.8,0.1c-0.3,0-0.5,0-0.8,0h-4.7
			c-0.3,0-0.5,0-0.8,0s-0.4-0.1-0.6-0.3c-0.1-0.1-0.3-0.4-0.4-0.5c-0.1-0.3-0.1-0.5-0.1-1v-7.1c-0.3,0-0.5,0-0.6,0s-0.4,0-0.6,0.1
			c-0.1-0.3-0.4-0.5-0.4-0.9C-708,661.5-708,661.2-708,660.9L-708,660.9z"/>
		<path class="st0" d="M-697,668.9c0-0.1,0-0.1,0-0.3c0-0.1,0-0.3,0-0.3h0.1c0.4,0,0.6-0.1,0.9-0.3c0.3-0.3,0.5-0.5,0.6-0.8
			c0.1-0.4,0.3-0.8,0.4-1.1s0.1-0.9,0.3-1.3c0-0.4,0.1-0.9,0.1-1.3s0-0.8,0.1-1c-0.4,0-0.6-0.1-0.8-0.3c-0.3-0.1-0.4-0.3-0.5-0.5
			c-0.1-0.3-0.3-0.4-0.3-0.6s-0.1-0.5-0.1-0.8c0-0.1,0-0.4,0-0.5c0-0.1,0-0.3,0-0.5h9.7c0.3,0,0.5,0.1,0.8,0.3
			c0.1,0.1,0.3,0.4,0.4,0.6c0.1,0.3,0.1,0.5,0.1,0.9c0,0.3,0,0.6,0,1v6c0,0.5,0.1,0.9,0.1,1.3c0.1,0.4,0.1,0.8,0.3,1.1
			c-0.3,0.1-0.6,0.1-1,0.3s-0.6,0.1-0.9,0.3c-0.3,0.1-0.5,0.1-0.8,0.1s-0.5,0.1-0.6,0.1c-0.3,0-0.5-0.1-0.8-0.3
			c-0.1-0.1-0.3-0.4-0.4-0.6c-0.1-0.3-0.1-0.5-0.1-0.9c0-0.4,0-0.6-0.1-1V663c0-0.1,0-0.3,0-0.3l-0.1-0.1h-1c0,1.8-0.1,3.2-0.4,4.3
			c-0.3,1.1-0.5,2-0.8,2.6c-0.4,0.6-0.8,1.1-1.3,1.4c-0.5,0.3-1.1,0.4-1.8,0.4c-0.8,0-1.4-0.3-1.8-0.6
			C-696.8,670.1-697,669.5-697,668.9L-697,668.9z"/>
		<path class="st0" d="M-684.4,660.4c0-0.3,0-0.4,0-0.6c0.5,0,0.9,0,1.3-0.1c0.4,0,0.8-0.1,1-0.1c0.4,0,0.6-0.1,1-0.1
			s0.8-0.1,1.1-0.1c0.3,0,0.5,0.1,0.6,0.3c0.1,0.1,0.3,0.3,0.4,0.5c0.1,0.3,0.1,0.5,0.1,0.8c0,0.3,0,0.5,0,0.8v4.4l2.9-6
			c0.3,0,0.5-0.1,0.8-0.1c0.3-0.1,0.5-0.1,0.8-0.3c0.3,0,0.5-0.1,0.8-0.1s0.4-0.1,0.6-0.1c0.3,0,0.5,0.1,0.8,0.3
			c0.1,0.1,0.3,0.4,0.4,0.6s0.1,0.5,0.3,0.9c0,0.3,0,0.6,0,1v6c0,0.5,0.1,0.9,0.1,1.3c0.1,0.4,0.1,0.8,0.3,1.1
			c-0.3,0.1-0.6,0.1-0.9,0.3c-0.4,0.1-0.6,0.1-0.9,0.3c-0.3,0.1-0.5,0.1-0.8,0.1c-0.3,0-0.4,0.1-0.6,0.1s-0.5-0.1-0.8-0.3
			c-0.1-0.1-0.3-0.4-0.4-0.6c-0.1-0.3-0.1-0.5-0.3-0.9c0-0.4,0-0.6,0-1v-3.8l-2.9,5.7c-0.3,0-0.5,0.1-0.8,0.1
			c-0.3,0.1-0.5,0.1-0.8,0.3c-0.3,0.1-0.5,0.1-0.8,0.1c-0.3,0-0.4,0.1-0.5,0.1c-0.3,0-0.5-0.1-0.8-0.3c-0.1-0.1-0.3-0.4-0.4-0.6
			c-0.1-0.3-0.1-0.5-0.3-0.9c0-0.4,0-0.6,0-1v-5.9c-0.3,0-0.5-0.1-0.8-0.3s-0.4-0.4-0.5-0.5c0,0.1-0.1-0.1-0.1-0.4
			C-684.4,660.9-684.4,660.7-684.4,660.4L-684.4,660.4z"/>
		<path class="st0" d="M-671,660.4c0-0.3,0-0.4,0-0.6c0.5,0,0.9,0,1.3-0.1c0.4,0,0.8-0.1,1-0.1c0.4,0,0.6-0.1,1-0.1s0.8-0.1,1.1-0.1
			c0.3,0,0.5,0.1,0.6,0.3c0.1,0.1,0.3,0.3,0.4,0.5c0.1,0.3,0.1,0.5,0.1,0.8c0,0.3,0,0.5,0,0.8v4.4l2.9-6c0.3,0,0.5-0.1,0.8-0.1
			c0.3-0.1,0.5-0.1,0.8-0.3c0.3,0,0.5-0.1,0.8-0.1s0.4-0.1,0.6-0.1s0.5,0.1,0.8,0.3c0.1,0.1,0.3,0.4,0.4,0.6s0.1,0.5,0.3,0.9
			c0,0.3,0,0.6,0,1v6c0,0.5,0.1,0.9,0.1,1.3c0.1,0.4,0.1,0.8,0.3,1.1c-0.3,0.1-0.6,0.1-0.9,0.3c-0.4,0.1-0.6,0.1-0.9,0.3
			s-0.5,0.1-0.8,0.1c-0.3,0-0.4,0.1-0.6,0.1s-0.5-0.1-0.8-0.3c-0.1-0.1-0.3-0.4-0.4-0.6c-0.1-0.3-0.1-0.5-0.3-0.9c0-0.4,0-0.6,0-1
			v-3.8l-2.9,5.7c-0.3,0-0.5,0.1-0.8,0.1c-0.3,0.1-0.5,0.1-0.8,0.3c-0.3,0.1-0.5,0.1-0.8,0.1c-0.3,0-0.4,0.1-0.5,0.1
			c-0.3,0-0.5-0.1-0.8-0.3c-0.1-0.1-0.3-0.4-0.4-0.6c-0.1-0.3-0.1-0.5-0.3-0.9c0-0.4,0-0.6,0-1v-5.9c-0.3,0-0.5-0.1-0.8-0.3
			c-0.3-0.1-0.4-0.4-0.5-0.5c-0.1-0.3-0.3-0.4-0.3-0.6C-670.9,660.9-671,660.7-671,660.4L-671,660.4z"/>
	</g>
	<g>
		<path class="st0" d="M-741.6,592.4c0.3-0.1,0.4-0.4,0.5-0.5c0.9-0.8,1.8-1.6,2.8-2.3c1.9-1,3.9-1.5,6-1.6c0.4,0,0.8-0.3,1-0.6
			c0.8-1.1,1.4-2.3,2.1-3.4c1.1-1.5,2.1-3,3.5-4.4c1.5-1.4,3.2-2.5,4.9-3.8c1.8-1.1,3.7-2,5.8-2.3c2.3-0.4,4.7-0.4,6.9-0.4
			c1.4,0,2.9,0.5,4.3,0.9c1,0.1,1.9,0.6,2.9,0.1c0.6-0.3,1.3-0.4,1.9-0.3c1.6,0.3,2.4,1.5,1.8,3.4c-0.3,0.8,0.1,1,0.5,1.5
			c0.8,1,1.5,2,2.1,3.2c0.5,1,0.6,2.1,0.1,3.3c-0.1,0.4,0,0.8,0,1.1c0.3,1.3,0.6,2.6,1,3.9c0.1,0.5,0,0.9-0.6,0.9
			c-0.4,0-0.8,0.1-1.1,0.3c-1.8,0.8-3.5,1.3-5.4,0.4c-0.4-0.3-0.9-0.4-1.3-0.6c-1.4-0.9-2.9-1.6-4.2-2.6c-0.5-0.4-0.9-0.3-1,0.1
			c-0.3,0.8-0.5,1.5-0.5,2.3c0.1,1.6,0.9,2.9,1.9,4.2c1.8,2.1,4,3.3,6.7,3.7c0.3,0,0.5,0.4,0.5,0.5c0.1,0.9,0.1,1.9,0.1,2.8
			c0,0.5-0.3,0.6-0.8,0.8c-2.9,0.8-5.8,0.8-8.8-0.4c-0.1,0.6-0.3,1.1-0.3,1.8c-0.1,3,0.5,6,1.3,9.1c0.6,2.3,1.5,4.3,2.5,6.4
			c0.3,0.5,0.6,1.1,1.1,1.3c0.6,0.3,1.4,0,2,0c-0.9-1.4-1.9-2.9-2.6-4.4c-1.1-2.1-1-4.4-0.4-6.6c1-3.2,3.2-5.5,6.4-6.7
			c0.3-0.1,0.5-0.5,0.5-0.8c0.1-2.1,0.8-4,1.8-5.9c1-1.9,2.3-3.4,3.9-4.7c0.6-0.5,0.9-1,0.9-1.9c0-4.2,0-8.2,0-12.3
			c0-2.6-0.4-5.2-1.8-7.4c-1.1-1.8-2.5-3.2-4.4-4.2c-1.6-0.9-3.4-1.1-5.3-1.4c-0.4,0-0.9-0.4-1-0.8c-0.8-1.5-1.8-2.8-3-3.9
			c-2.6-2.5-5.9-3.5-9.5-3.7c-2.1,0-4.2,0.5-6.2,1.4c-2.8,1.3-4.8,3.2-6.2,5.7c-1.3,2.1-1.9,4.7-1.9,7.2c0,1.4,0,2.8,0,4.2
			c0,0.3,0,0.5-0.1,0.8c-0.8-0.3-1.3-0.5-1.9-0.6c-2-0.3-3.9-0.3-5.7,0.8c-2.3,1.3-4,3-4.3,5.5
			C-741.8,585.3-741.6,588.7-741.6,592.4L-741.6,592.4z"/>
		<path class="st0" d="M-689.6,585.6c0.5-0.1,0.9-0.3,1.1-0.3h0.1c4.3-1.5,8.4-1.3,12.6,0.8c2.8,1.3,4.9,3,6.8,5.4
			c2,2.8,3.2,5.8,3.2,9.2c0,5.2,0,10.3,0,15.4c0,1.8,0,3.5,0,5.3c2.1,0,4.3,0,6.4,0c0.8,0,1-0.1,1-0.9c0-6.3,0-12.7,0-19
			c0.1-3.9-0.6-7.6-2.1-11c-0.4-0.8-0.6-1.5-1.1-2.1c-1.1-1.5-2.3-3-3.5-4.4c-1.1-1.1-2.3-2.1-3.7-3c-1.6-1-3.5-1.8-5.3-2.5
			c-2.4-1-4.9-1.3-7.4-1.6c-2.5-0.3-4.8,0.4-7.3,0.8c-0.3,0-0.8,0.5-0.8,0.8C-689.6,580.7-689.6,583.1-689.6,585.6L-689.6,585.6z"/>
		<path class="st0" d="M-689.5,576.4c2.8-0.3,5.5-0.8,8.2-0.6c2.8,0.1,5.4,0.9,8.2,1.5c3-7.3-1-16.5-10.1-19.2
			c-5.5-1.8-15.1,2-16.5,6.7C-694.6,565.3-689.5,569.6-689.5,576.4L-689.5,576.4z"/>
		<path class="st0" d="M-733.4,595.7c-0.9,0-1.6-0.1-2.3,0c-1.6,0.5-3.3,1-4.9,1.8c-0.8,0.3-1.1,0.9-1.1,1.9c0,6.6,0,13,0,19.5
			c0,0.6,0,1.3,0,1.9c0,0.3,0.3,0.5,0.4,0.5c1,0,2.1,0,3.3,0C-738.5,612.3-736.7,604-733.4,595.7L-733.4,595.7z"/>
		<path class="st0" d="M-729.8,621.3c6.3,0,12.5,0,18.8,0c-1.1-1.3-2-2.4-3.2-3.4c-2.4-2.3-5-4.4-8.4-5.2c-2-0.5-4.4,0-5.5,2.3
			c-0.4,0.8-0.8,1.6-1,2.5C-729.5,618.6-729.6,619.9-729.8,621.3L-729.8,621.3z"/>
		<path class="st0" d="M-679.3,609.5c-0.5,0.4-0.9,0.8-1.3,0.9c-0.8,0.1-1.5,0-2.3,0.1c-0.3,0-0.6,0.1-0.8,0.3
			c-0.1,0.1,0,0.6,0.3,0.8c0.8,0.9,1.8,1.1,2.9,1.1c0.3,0,0.5,0.1,0.6,0.3c-0.1,0.3-0.1,0.4-0.3,0.6c-0.8,1-2.9,1.1-4.3,0.4
			c-0.3-0.1-0.6-0.3-1-0.3c-0.1,0.4-0.4,0.9-0.3,1.1c0.4,1,1,1.9,2.1,2.3c0.9,0.3,1.8,0.4,2.5,0.5c1,0.1,1.4,0.5,1.4,1.5
			c0,0.6,0,1.3,0,1.8c0,0.3,0.3,0.5,0.4,0.5c0.5,0.1,1.1,0,1.8,0c0-0.9,0-1.5,0-2.3c0-1.3,0.3-1.5,1.5-1.6c0.8-0.1,1.6-0.1,2.4-0.5
			c1-0.5,2-1.3,2.1-2.6c0-0.3-0.1-0.6-0.4-0.8c-0.1-0.1-0.5,0.1-0.8,0.3c-1.3,0.9-3.4,0.9-4.4-0.1c-0.1-0.1-0.3-0.5-0.4-0.8
			c0.3,0,0.5-0.1,0.8-0.1c0.9-0.3,1.8-0.4,2.5-0.8c0.3-0.1,0.4-0.8,0.5-1.1c-0.4-0.1-0.8-0.1-1.1-0.3c-0.8-0.1-1.6-0.1-2.4-0.3
			c-0.3,0-0.4-0.5-0.5-0.8c0.3-0.1,0.4-0.3,0.6-0.4c0.5-0.3,1-0.4,1.4-0.8c0.3-0.1,0.3-0.5,0.4-0.8c-0.3-0.1-0.5-0.1-0.8-0.1
			s-0.5,0-0.8,0c-1,0-1.3-0.3-1.5-1.3c-0.1-0.5-0.3-1-0.4-1.4c-0.1,0-0.1,0-0.3,0c-0.1,0.5-0.3,1-0.4,1.5c-0.1,0.9-0.6,1.1-1.4,1.1
			c-0.3,0-0.6-0.1-0.9,0c-0.3,0-0.5,0.1-0.8,0.3c0.1,0.3,0.3,0.6,0.4,0.8C-681,608.8-680.3,609-679.3,609.5L-679.3,609.5z"/>
		<path class="st0" d="M-692.9,621.3c0-0.9,0-1.6,0-2.5c0-0.9,0.5-1.3,1.3-1.4c0.6-0.1,1.3-0.1,2-0.3c1.4-0.3,2.9-1.6,2.9-2.8
			c0-0.4-0.3-0.6-0.4-1c-0.3,0.1-0.5,0.3-0.8,0.4c-1.1,0.8-3.8,1-4.7-1c0.3,0,0.5-0.1,0.8-0.1c0.9-0.3,1.6-0.4,2.4-0.6
			c0.3-0.1,0.6-0.8,0.5-1.1c-0.1-0.6-0.6-0.4-1-0.3c-0.9,0.3-1.8,0-2.5-0.5c-0.3-0.1-0.3-0.4-0.4-0.6c0.3-0.1,0.4-0.3,0.6-0.4
			c0.6-0.3,1.1-0.5,1.8-0.9c0.1-0.1,0.3-0.4,0.3-0.6c0-0.1-0.4-0.3-0.5-0.3c-0.4,0-0.6,0-1,0.1c-0.8,0.1-1.3-0.3-1.4-1.1
			c-0.1-0.5-0.4-1.1-0.6-1.8c-0.1,0.5-0.3,0.9-0.4,1.1c-0.4,1.6-0.6,1.8-2.3,1.8c-0.3,0-0.6,0.1-0.9,0.1c0.3,0.3,0.4,0.6,0.6,0.9
			c0.6,0.4,1.3,0.6,2,1c-0.3,0.3-0.5,0.8-0.9,0.8c-0.9,0.1-1.6,0.3-2.5,0.3c-0.8,0-1.1,0.3-0.9,0.8c0.1,0.4,0.4,0.6,0.8,0.8
			c0.8,0.3,1.6,0.4,2.5,0.6c0.3,0,0.4,0.1,0.6,0.3c-0.1,0.1-0.1,0.4-0.3,0.5c-1.1,1.5-3.4,1.1-4.5,0.3c-0.5-0.5-0.9-0.3-1,0.4
			c0,0.4,0,0.9,0.1,1.1c0.6,1,1.5,1.9,2.9,2.1c0.5,0.1,1.1,0.1,1.6,0.1c1.1,0.1,1.4,0.4,1.4,1.5c0,0.8,0,1.5,0,2.4
			C-694.3,621.3-693.7,621.3-692.9,621.3L-692.9,621.3z"/>
		<path class="st0" d="M-687.4,601c-1.6,1.9-3,2-5,0.8c-0.5-0.3-0.9-0.3-0.9,0.4c0,0.4,0,1,0.3,1.3c0.9,1.5,2.3,2,3.9,2.1
			c1.9,0.1,1.9,0.3,1.9,2.1s0,1.9,1.8,1.8c0,0,0.1,0,0.3-0.1c0-0.4,0-0.8,0-1.1c0-2.6,0.3-2.5,2.3-2.6c0.1,0,0.3,0,0.4,0
			c1.4-0.1,2.4-0.9,3.2-2c0.3-0.4,0.3-0.9,0.3-1.3c0-0.6-0.4-0.8-0.9-0.4c-1.5,1.1-3.2,1-4.5-0.3c-0.1-0.1-0.3-0.4-0.4-0.5
			c0.3-0.1,0.5-0.1,0.6-0.3c0.8-0.3,1.6-0.4,2.4-0.5c0.6-0.1,0.9-0.6,0.8-1.3c-0.3-0.8-0.8-0.3-1.3-0.3c-0.9-0.1-1.6-0.3-2.5-0.5
			c-0.1,0-0.3-0.4-0.4-0.6c0.1-0.1,0.4-0.3,0.5-0.3c0.5-0.3,1-0.4,1.5-0.6c0.3-0.1,0.4-0.5,0.5-0.9c-0.3,0-0.6-0.1-0.9-0.1
			c-1.4,0.1-1.9-0.1-2.3-1.5c-0.1-0.4-0.3-0.6-0.4-1c-0.1,0-0.1,0-0.3,0c-0.1,0.5-0.4,1-0.4,1.5c-0.1,0.8-0.6,1.1-1.4,1
			c-0.4,0-0.6-0.1-1-0.1c-0.3,0-0.4,0.1-0.6,0.1c0.1,0.3,0,0.6,0.3,0.6c0.6,0.4,1.3,0.6,1.8,0.9c0.1,0.1,0.4,0.3,0.5,0.4
			c-0.1,0.1-0.3,0.4-0.4,0.5c-0.9,0.6-1.8,0.6-2.8,0.5c-0.3,0-0.6,0.1-0.9,0.1c0.1,0.4,0,0.8,0.3,1c0.6,0.9,1.6,1,2.6,1
			C-688.1,600.8-687.9,600.8-687.4,601L-687.4,601z"/>
		<path class="st0" d="M-724.3,592.9c1.1,0.3,2.1,0.4,3.2,0.5c3.3,0.6,6.7,1.3,10,1.9c0.8,0.1,1-0.1,1-0.8c0.1-1,0.3-2,0.5-3
			c0.3-0.9,0.3-0.9-0.8-1c-2-0.3-3.9-0.9-5.7-1.9c-1-0.6-1.8-1.4-2.8-2.3C-720.8,588.1-722.7,590.4-724.3,592.9L-724.3,592.9z"/>
		<path class="st0" d="M-716.9,609.8c1.8-0.1,3.4-0.3,5-0.5c0.4,0,1,0,0.8-0.6c0-0.3-0.5-0.5-0.8-0.5c-2-0.4-4-0.8-6-1.1
			c-3.5-0.6-7.1-1.3-10.6-1.9c-0.3,0-0.8,0.1-0.9,0.4c-0.1,0.4-0.5,1,0.3,1.3c1.9,0.8,3.8,1.6,5.8,2.1
			C-721.2,609.4-718.9,609.5-716.9,609.8L-716.9,609.8z"/>
		<path class="st0" d="M-721.8,596.6c-0.1-0.1-0.1-0.1-0.3-0.3c-1,0.6-2,1.1-3.2,1.8c-0.6,0.4-1.3,0.6-1.8-0.5c-0.8,2-1.4,3.8-2,5.7
			c0.6,0.1,1,0.1,1.4,0.3c0.9,0.4,1.8,0,2.5-0.4c1.1-0.6,2.3-1.4,3.3-2.1c0.5-0.4,1-0.6,1.5-1c0.3-0.1,0.3-0.5,0.4-0.8
			c-0.3,0-0.5-0.1-0.9-0.1c-0.1,0-0.3,0.1-0.3,0.1c-1,0.6-2,1.3-3,1.8c-0.1,0.1-0.6,0-0.8-0.1c-0.1-0.1-0.1-0.6,0-0.8
			c0.4-0.4,0.9-0.6,1.4-0.9c0.8-0.5,1.6-1,2.4-1.4c0-0.1-0.1-0.1-0.1-0.3c-0.3,0.1-0.6,0.3-0.9,0.4c-0.9,0.5-1.9,1-2.8,1.5
			c-0.4,0.3-0.8,0.4-1-0.1c-0.1-0.3,0.1-0.6,0.4-0.9c0.9-0.5,1.8-1,2.6-1.5C-722.3,597.1-722,596.8-721.8,596.6L-721.8,596.6z"/>
		<path class="st0" d="M-714.5,597.9c0,0.1,0,0.1,0,0.3c0.9,1,1.6,2.1,2.5,3.2c0.1,0.1,0,0.6-0.1,0.8c-0.1,0.1-0.6,0.1-0.8,0
			c-0.9-1-1.6-2-2.4-3c-0.1-0.1-0.3-0.3-0.4-0.4c-0.1,0-0.1,0.1-0.3,0.1c0.1,0.3,0.3,0.5,0.5,0.8c0.8,1,1.5,1.9,2.1,2.9
			c0.1,0.1,0,0.6-0.1,0.8s-0.5,0-0.8-0.1c-0.3-0.3-0.5-0.5-0.8-0.9c-0.6-0.8-1.1-1.5-1.8-2.3c-0.1-0.1-0.5-0.1-0.8-0.1
			c0,0.3-0.1,0.5,0,0.6c1.3,1.6,2.5,3.3,3.7,5c0.8,1,1.6,1.1,2.8,1.1c0-1,0-2,0-3s0.3-2-0.8-2.9c-0.9-0.6-1.4-1.6-2.1-2.4
			C-714.1,598.1-714.3,598.1-714.5,597.9L-714.5,597.9z"/>
		<path class="st0" d="M-721.2,595c0,0.1-0.1,0.1-0.1,0.3c0.9,1.3,1.9,2.5,2.8,3.8c1.4-0.9,2.8-1.8,4.3-2.6
			C-716.7,595.9-718.9,595.5-721.2,595L-721.2,595z"/>
		<path class="st0" d="M-724.6,604.1c1.1,0.3,2.1,0.3,3-0.5c0.6-0.5,1.3-0.9,2-1.3c0.3-0.1,0.6-0.1,0.8,0.1c0.6,0.8,1.3,1.5,1.8,2.4
			c0.5,0.9,1.3,1,2.3,1.3c-1.4-1.9-2.5-3.5-3.8-5c-0.1-0.1-0.6-0.1-0.8,0c-0.8,0.4-1.5,0.9-2.3,1.4
			C-722.5,602.9-723.5,603.5-724.6,604.1L-724.6,604.1z"/>
		<path class="st0" d="M-689.1,555.5c0-0.9-0.8-1.8-1.6-1.8c-0.9,0-1.8,0.9-1.8,1.8c0,0.9,0.9,1.8,1.8,1.8
			C-689.9,557.2-689.1,556.5-689.1,555.5L-689.1,555.5z"/>
		<path class="st0" d="M-671.9,575.3c0,0.9,0.8,1.5,1.8,1.6c0.8,0,1.8-0.8,1.8-1.6c-0.1-0.9-0.8-1.6-1.8-1.6
			C-671.2,573.6-671.9,574.2-671.9,575.3L-671.9,575.3z"/>
		<path class="st0" d="M-694.9,558.5c1,0,1.8-0.6,1.8-1.5c0-1-0.8-1.8-1.6-1.9c-0.8,0-1.8,0.9-1.8,1.6
			C-696.7,557.6-695.8,558.5-694.9,558.5L-694.9,558.5z"/>
		<path class="st0" d="M-680.3,557.4c0,1,0.8,1.8,1.6,1.8c0.9,0,1.6-0.8,1.8-1.6c0-0.9-0.8-1.6-1.6-1.8
			C-679.6,555.6-680.3,556.4-680.3,557.4L-680.3,557.4z"/>
		<path class="st0" d="M-672.6,561.5c-1,0-1.6,0.8-1.6,1.6c0,1,0.8,1.6,1.8,1.6c1,0,1.6-0.6,1.6-1.6
			C-670.9,562.2-671.5,561.5-672.6,561.5L-672.6,561.5z"/>
		<path class="st0" d="M-669.1,567.1c0-1.1-0.6-1.6-1.8-1.6c-1,0-1.6,0.6-1.6,1.6c0,1,0.6,1.6,1.6,1.6
			C-669.7,568.6-669.1,567.9-669.1,567.1L-669.1,567.1z"/>
		<path class="st0" d="M-680.8,555.9c0-1.1-0.6-1.6-1.6-1.6s-1.6,0.6-1.6,1.6c0,0.9,0.8,1.6,1.6,1.6
			C-681.5,557.5-680.8,556.9-680.8,555.9L-680.8,555.9z"/>
		<path class="st0" d="M-701.2,563.8c1,0,1.8-0.6,1.8-1.6c0-0.9-0.8-1.6-1.6-1.6c-0.9,0-1.8,0.8-1.8,1.6
			C-702.9,563.2-702.2,563.8-701.2,563.8L-701.2,563.8z"/>
		<path class="st0" d="M-669.9,569.5c-1,0-1.6,0.6-1.6,1.6s0.6,1.6,1.6,1.6c1,0,1.6-0.6,1.6-1.6S-668.9,569.5-669.9,569.5
			L-669.9,569.5z"/>
		<path class="st0" d="M-675.2,558.2c-1,0-1.6,0.6-1.6,1.6c0,0.9,0.8,1.6,1.6,1.6c1,0,1.8-0.6,1.8-1.6
			C-673.5,558.9-674.1,558.2-675.2,558.2L-675.2,558.2z"/>
		<path class="st0" d="M-696.8,559c0-1-0.8-1.6-1.8-1.6c-0.9,0-1.6,0.8-1.5,1.6c0,1,0.8,1.6,1.8,1.6
			C-697.3,560.6-696.7,560-696.8,559L-696.8,559z"/>
		<path class="st0" d="M-685,555.2c0-1.1-0.6-1.6-1.6-1.6s-1.6,0.6-1.6,1.6c0,1,0.6,1.6,1.6,1.6C-685.6,556.7-685,556.2-685,555.2
			L-685,555.2z"/>
		<path class="st0" d="M-722.3,595.2c0-0.1,0-0.1,0-0.3c-0.8-0.1-1.5-0.4-2.3-0.5c-0.3,0-0.5,0-0.6,0.1c-0.5,0.9-1,1.8-1.4,2.6
			c0.1,0.1,0.1,0.1,0.3,0.3C-725.1,596.7-723.7,595.9-722.3,595.2L-722.3,595.2z"/>
		<path class="st0" d="M-713.6,596.6c0,0.1,0,0.1-0.1,0.3c0.9,1.1,1.8,2.1,2.8,3.4c0-0.9,0.1-1.6,0.1-2.5c0-0.3-0.1-0.5-0.3-0.6
			C-711.8,596.8-712.7,596.7-713.6,596.6L-713.6,596.6z"/>
		<path class="st0" d="M-684,552.1c-0.1,0-0.3,0-0.5,0c-0.1,0.4-0.4,0.6-0.5,1c0,0.1,0.5,0.5,0.6,0.5c0.3,0,0.8-0.4,0.8-0.4
			C-683.5,552.8-683.7,552.4-684,552.1L-684,552.1z"/>
		<path class="st0" d="M-689,551.6c-0.4,0.5-0.8,0.8-0.8,1c0,0.3,0.4,0.5,0.6,0.8c0.3-0.3,0.8-0.5,0.8-0.8
			C-688.4,552.4-688.8,552.1-689,551.6L-689,551.6z"/>
		<path class="st0" d="M-667.6,572.2c-0.4,0.5-0.8,0.8-0.6,1c0,0.3,0.4,0.6,0.6,0.9c0.3-0.3,0.8-0.5,0.8-0.8
			S-667.2,572.7-667.6,572.2L-667.6,572.2z"/>
		<path class="st0" d="M-692.8,553.7c-0.5-0.3-0.8-0.6-1-0.6c-0.3,0-0.5,0.5-0.8,0.8c0.3,0.3,0.5,0.6,0.8,0.6
			C-693.4,554.5-693.2,554-692.8,553.7L-692.8,553.7z"/>
		<path class="st0" d="M-669.1,577.1c-0.4,0.5-0.8,0.9-0.6,1.1c0,0.3,0.5,0.5,0.8,0.8c0.3-0.3,0.6-0.5,0.6-0.8
			C-668.3,577.9-668.7,577.7-669.1,577.1L-669.1,577.1z"/>
		<path class="st0" d="M-698.2,554.6c-0.4,0.5-0.8,0.8-0.8,1c0,0.3,0.4,0.6,0.6,0.9c0.3-0.3,0.6-0.5,0.6-0.8
			C-697.6,555.3-698,555.1-698.2,554.6L-698.2,554.6z"/>
		<path class="st0" d="M-668.3,563.9c0-0.1,0-0.3,0-0.4c-0.3-0.1-0.6-0.5-0.9-0.5c-0.3,0-0.5,0.4-0.8,0.6c0.3,0.3,0.6,0.6,0.9,0.6
			C-668.9,564.4-668.6,564.2-668.3,563.9L-668.3,563.9z"/>
		<path class="st0" d="M-701.7,559.6c0.1,0,0.3,0,0.4,0c0.1-0.3,0.5-0.5,0.5-0.8c0-0.3-0.4-0.5-0.6-0.9c-0.3,0.3-0.5,0.5-0.6,0.8
			C-702.2,559-702,559.3-701.7,559.6L-701.7,559.6z"/>
		<path class="st0" d="M-676.2,556.4c0,0.1,0,0.3,0,0.4c0.3,0.3,0.5,0.5,0.9,0.5c0.3,0,0.6-0.4,0.6-0.6c0-0.3-0.4-0.8-0.6-0.8
			C-675.7,555.7-675.9,556.1-676.2,556.4L-676.2,556.4z"/>
		<path class="st0" d="M-667.7,569.3c0.4-0.5,0.6-0.8,0.6-1s-0.4-0.5-0.6-0.8c-0.3,0.3-0.6,0.5-0.6,0.8
			C-668.5,568.5-668.1,568.8-667.7,569.3L-667.7,569.3z"/>
		<path class="st0" d="M-678.3,554.1c-0.5-0.4-0.8-0.8-1.1-0.8c-0.3,0-0.6,0.4-0.6,0.6s0.4,0.6,0.6,0.6
			C-679.2,554.7-678.9,554.5-678.3,554.1L-678.3,554.1z"/>
		<path class="st0" d="M-672,560.6c0.1,0,0.3,0,0.4,0c0.1-0.3,0.5-0.5,0.5-0.8c0-0.3-0.4-0.5-0.6-0.8c-0.3,0.3-0.6,0.4-0.8,0.6
			C-672.4,560-672.1,560.3-672,560.6L-672,560.6z"/>
		<path class="st0" d="M-741.6,592.4c0-3.7-0.3-7.1,0.1-10.5c0.3-2.5,2-4.4,4.3-5.5c1.8-1,3.8-1,5.7-0.8c0.6,0.1,1.1,0.4,1.9,0.6
			c0-0.3,0.1-0.5,0.1-0.8c0-1.4,0-2.8,0-4.2c0-2.5,0.6-5,1.9-7.2c1.5-2.5,3.5-4.4,6.2-5.7c2-0.9,4-1.5,6.2-1.4
			c3.5,0.1,6.8,1.1,9.5,3.7c1.3,1.1,2.3,2.3,3,3.9c0.1,0.4,0.6,0.6,1,0.8c1.8,0.3,3.7,0.5,5.3,1.4c1.9,1,3.3,2.4,4.4,4.2
			c1.4,2.3,1.8,4.8,1.8,7.4c0,4.2,0,8.2,0,12.3c0,0.9-0.3,1.4-0.9,1.9c-1.6,1.3-2.9,2.8-3.9,4.7c-1,1.9-1.5,3.8-1.8,5.9
			c0,0.3-0.3,0.6-0.5,0.8c-3.2,1.3-5.4,3.5-6.4,6.7c-0.6,2.1-0.8,4.4,0.4,6.6c0.8,1.5,1.8,2.9,2.6,4.4c-0.6,0-1.4,0.1-2,0
			c-0.5-0.1-0.9-0.8-1.1-1.3c-1-2-1.9-4.2-2.5-6.4c-0.8-3-1.4-5.9-1.3-9.1c0-0.5,0.1-1.1,0.3-1.8c3,1.1,5.9,1.1,8.8,0.4
			c0.5-0.1,0.8-0.3,0.8-0.8c0-0.9,0-1.9-0.1-2.8c0-0.3-0.4-0.5-0.5-0.5c-2.8-0.3-4.9-1.4-6.7-3.7c-1-1.3-1.8-2.6-1.9-4.2
			c0-0.8,0.3-1.5,0.5-2.3c0.1-0.4,0.4-0.5,1-0.1c1.3,1,2.8,1.8,4.2,2.6c0.4,0.3,0.9,0.4,1.3,0.6c1.9,0.8,3.7,0.3,5.4-0.4
			c0.4-0.1,0.8-0.3,1.1-0.3c0.6,0,0.8-0.4,0.6-0.9c-0.4-1.3-0.6-2.6-1-3.9c-0.1-0.4-0.1-0.9,0-1.1c0.4-1.1,0.4-2.3-0.1-3.3
			c-0.6-1.1-1.4-2.1-2.1-3.2c-0.4-0.5-0.6-0.8-0.5-1.5c0.5-1.9-0.1-3.2-1.8-3.4c-0.6-0.1-1.4,0-1.9,0.3c-1,0.4-2,0-2.9-0.1
			c-1.4-0.3-2.9-0.8-4.3-0.9c-2.3,0-4.7,0-6.9,0.4c-2,0.3-4,1.1-5.8,2.3c-1.6,1.1-3.4,2.4-4.9,3.8c-1.4,1.3-2.4,2.9-3.5,4.4
			c-0.8,1-1.4,2.3-2.1,3.4c-0.3,0.3-0.6,0.5-1,0.6c-2.1,0.1-4.2,0.6-6,1.6c-1,0.5-1.9,1.5-2.8,2.3
			C-741.2,592-741.3,592.1-741.6,592.4L-741.6,592.4z"/>
		<path class="st0" d="M-689.6,585.6c0-2.5,0-4.9,0-7.4c0-0.3,0.5-0.6,0.8-0.8c2.4-0.4,4.8-1,7.3-0.8s5,0.5,7.4,1.6
			c1.8,0.8,3.7,1.5,5.3,2.5c1.4,0.8,2.6,1.9,3.7,3c1.3,1.4,2.4,2.9,3.5,4.4c0.5,0.6,0.8,1.4,1.1,2.1c1.6,3.5,2.3,7.2,2.1,11
			c-0.1,6.3-0.1,12.7,0,19c0,0.8-0.3,1-1,0.9c-2.1,0-4.2,0-6.4,0c0-1.8,0-3.5,0-5.3c0-5.2,0-10.3,0-15.4c0-3.4-1.1-6.4-3.2-9.2
			c-1.8-2.4-4-4.2-6.8-5.4c-4.2-1.9-8.3-2.1-12.6-0.8h-0.1C-688.8,585.3-689.1,585.5-689.6,585.6L-689.6,585.6z"/>
		<path class="st0" d="M-689.5,576.4c0-6.8-5-11-10.2-11.7c1.4-4.7,10.8-8.3,16.5-6.7c9.1,2.8,13,12,10.1,19.2
			c-2.8-0.5-5.4-1.3-8.2-1.5C-684,575.6-686.7,576.1-689.5,576.4L-689.5,576.4z"/>
		<path class="st0" d="M-733.4,595.7c-3.3,8.3-5.2,16.6-4.7,25.6c-1.1,0-2.1,0-3.3,0c-0.1,0-0.4-0.4-0.4-0.5c0-0.6,0-1.3,0-1.9
			c0-6.6,0-13,0-19.5c0-1,0.4-1.5,1.1-1.9c1.6-0.6,3.3-1.3,4.9-1.8C-735,595.5-734.4,595.7-733.4,595.7L-733.4,595.7z"/>
		<path class="st0" d="M-729.8,621.3c0.3-1.4,0.4-2.6,0.8-3.9c0.3-0.9,0.5-1.6,1-2.5c1.1-2.3,3.7-2.8,5.5-2.3
			c3.4,0.9,5.9,2.9,8.4,5.2c1.1,1,2,2.1,3.2,3.4C-717.5,621.3-723.5,621.3-729.8,621.3L-729.8,621.3z"/>
		<path class="st0" d="M-679.3,609.5c-0.9-0.4-1.6-0.8-2.3-1.1c-0.3-0.1-0.3-0.5-0.4-0.8c0.3-0.1,0.5-0.1,0.8-0.3c0.3,0,0.6,0,0.9,0
			c0.8,0,1.3-0.4,1.4-1.1c0.1-0.5,0.3-1,0.4-1.5c0.1,0,0.1,0,0.3,0c0.1,0.5,0.3,1,0.4,1.4c0.3,1,0.5,1.3,1.5,1.3c0.3,0,0.5,0,0.8,0
			s0.5,0.1,0.8,0.1c-0.1,0.3-0.3,0.6-0.4,0.8c-0.4,0.3-0.9,0.5-1.4,0.8c-0.3,0.1-0.5,0.3-0.6,0.4c0.1,0.3,0.4,0.6,0.5,0.8
			c0.8,0.1,1.6,0.3,2.4,0.3c0.4,0,0.8,0.1,1.1,0.3c-0.1,0.4-0.3,1-0.5,1.1c-0.8,0.4-1.8,0.5-2.5,0.8c-0.3,0.1-0.5,0.1-0.8,0.1
			c0.1,0.3,0.1,0.5,0.4,0.8c0.9,1,3.2,1.1,4.4,0.1c0.3-0.1,0.6-0.4,0.8-0.3c0.3,0.1,0.4,0.5,0.4,0.8c-0.1,1.4-1.1,2.1-2.1,2.6
			c-0.8,0.4-1.6,0.4-2.4,0.5c-1.3,0.1-1.5,0.4-1.5,1.6c0,0.8,0,1.4,0,2.3c-0.6,0-1.1,0-1.8,0c-0.1,0-0.4-0.4-0.4-0.5
			c0-0.6,0-1.3,0-1.8c0-1-0.5-1.4-1.4-1.5c-0.9-0.1-1.8-0.3-2.5-0.5c-1-0.4-1.8-1.3-2.1-2.3c-0.1-0.4,0.1-0.8,0.3-1.1
			c0.4,0.1,0.6,0.1,1,0.3c1.4,0.9,3.5,0.8,4.3-0.4c0.1-0.1,0.1-0.4,0.3-0.6c-0.3-0.1-0.5-0.3-0.6-0.3c-1.1,0-2.1-0.3-2.9-1.1
			c-0.1-0.3-0.3-0.6-0.3-0.8c0.1-0.1,0.5-0.3,0.8-0.3c0.8,0,1.5,0,2.3-0.1C-680.2,610.2-679.8,609.8-679.3,609.5L-679.3,609.5z"/>
		<path class="st0" d="M-692.9,621.3c-0.8,0-1.4,0-2.1,0c0-0.8,0-1.5,0-2.4c0-1.1-0.3-1.4-1.4-1.5c-0.5-0.1-1.1-0.1-1.6-0.1
			c-1.3-0.3-2.1-1.1-2.9-2.1c-0.3-0.3-0.3-0.8-0.1-1.1c0.1-0.6,0.4-0.9,1-0.4c1.1,0.9,3.4,1.3,4.5-0.3c0.1-0.1,0.3-0.4,0.3-0.5
			c-0.3-0.1-0.4-0.1-0.6-0.3c-0.9-0.3-1.6-0.4-2.5-0.6c-0.3-0.1-0.6-0.5-0.8-0.8c-0.3-0.6,0.1-0.9,0.9-0.8c0.9,0,1.6,0,2.5-0.3
			c0.3,0,0.5-0.5,0.9-0.8c-0.8-0.4-1.5-0.6-2-1c-0.3-0.1-0.4-0.5-0.6-0.9c0.3-0.1,0.6-0.3,0.9-0.1c1.6,0.1,2-0.1,2.3-1.8
			c0.1-0.4,0.3-0.6,0.4-1.1c0.3,0.8,0.5,1.3,0.6,1.8c0.1,0.9,0.6,1.1,1.4,1.1c0.4,0,0.6-0.1,1-0.1c0.3,0,0.5,0.1,0.5,0.3
			c0,0.1,0,0.5-0.3,0.6c-0.5,0.4-1.1,0.6-1.8,0.9c-0.3,0.1-0.4,0.3-0.6,0.4c0.1,0.3,0.3,0.5,0.4,0.6c0.8,0.4,1.6,0.8,2.5,0.5
			c0.4-0.1,1-0.4,1,0.3c0,0.4-0.3,1-0.5,1.1c-0.8,0.4-1.6,0.5-2.4,0.6c-0.3,0-0.5,0.1-0.8,0.1c0.9,2,3.5,1.8,4.7,1
			c0.3-0.1,0.5-0.3,0.8-0.4c0.1,0.4,0.4,0.6,0.4,1c0,1.1-1.4,2.5-2.9,2.8c-0.6,0.1-1.3,0.1-2,0.3s-1.3,0.5-1.3,1.4
			C-692.9,619.6-692.9,620.4-692.9,621.3L-692.9,621.3z"/>
		<path class="st0" d="M-687.4,601c-0.5,0-0.8-0.1-1.1-0.1c-1-0.1-2-0.3-2.6-1c-0.3-0.3-0.1-0.6-0.3-1c0.3,0,0.6-0.1,0.9-0.1
			c1,0.3,1.9,0.1,2.8-0.5c0.1-0.1,0.3-0.4,0.4-0.5c-0.1-0.1-0.4-0.3-0.5-0.4c-0.6-0.3-1.3-0.5-1.8-0.9c-0.1-0.1-0.1-0.4-0.3-0.6
			c0.3,0,0.4-0.1,0.6-0.1c0.4,0,0.6,0.1,1,0.1c0.8,0,1.1-0.3,1.4-1c0.1-0.5,0.3-1,0.4-1.5c0.1,0,0.1,0,0.3,0c0.1,0.4,0.3,0.6,0.4,1
			c0.4,1.4,0.8,1.6,2.3,1.5c0.3,0,0.6,0.1,0.9,0.1c-0.1,0.3-0.3,0.6-0.5,0.9c-0.4,0.3-1,0.4-1.5,0.6c-0.3,0.1-0.4,0.3-0.5,0.3
			c0.1,0.3,0.3,0.5,0.4,0.6c0.8,0.3,1.6,0.4,2.5,0.5c0.4,0,1-0.4,1.3,0.3c0.1,0.6-0.1,1.1-0.8,1.3c-0.8,0.3-1.6,0.4-2.4,0.5
			c-0.3,0-0.5,0.1-0.6,0.3c0.1,0.1,0.3,0.4,0.4,0.5c1.4,1.3,3,1.4,4.5,0.3c0.5-0.4,0.9-0.3,0.9,0.4c0,0.4,0,1-0.3,1.3
			c-0.8,1.1-1.8,2-3.2,2c-0.1,0-0.3,0-0.4,0c-2,0.1-2.3,0-2.3,2.6c0,0.4,0,0.8,0,1.1c-0.1,0.1-0.1,0.1-0.3,0.1
			c-1.8,0.1-1.8,0.1-1.8-1.8c0-1.8-0.1-2-1.9-2.1c-1.6-0.1-3-0.8-3.9-2.1c-0.3-0.4-0.3-0.9-0.3-1.3c0-0.6,0.5-0.8,0.9-0.4
			C-690.4,603-689,602.9-687.4,601L-687.4,601z"/>
		<path class="st0" d="M-724.3,592.9c1.6-2.6,3.5-4.8,5.5-6.7c1,0.8,1.8,1.6,2.8,2.3c1.6,1.1,3.7,1.8,5.7,1.9
			c0.9,0.3,0.9,0.3,0.6,1.3s-0.4,2-0.5,3c-0.1,0.6-0.3,1-1,0.8c-3.3-0.6-6.7-1.3-10-1.9C-722.2,593.3-723.2,593.2-724.3,592.9
			L-724.3,592.9z"/>
		<path class="st0" d="M-716.9,609.8c-2-0.3-4.3-0.4-6.3-0.9c-2-0.5-3.9-1.4-5.8-2.1c-0.8-0.3-0.5-0.9-0.3-1.3
			c0.1-0.3,0.6-0.4,0.9-0.4c3.5,0.6,7.1,1.3,10.6,1.9c2,0.4,4,0.8,6,1.1c0.3,0,0.8,0.3,0.8,0.5c0.1,0.6-0.5,0.5-0.8,0.6
			C-713.5,609.4-715.1,609.5-716.9,609.8L-716.9,609.8z"/>
		<path class="st0" d="M-721.8,596.6c-0.3,0.1-0.5,0.4-0.8,0.5c-0.9,0.5-1.8,1-2.6,1.5c-0.3,0.1-0.5,0.6-0.4,0.9
			c0.1,0.5,0.5,0.4,1,0.1c0.9-0.5,1.9-1,2.8-1.5c0.3-0.1,0.6-0.3,0.9-0.4c0,0.1,0.1,0.1,0.1,0.3c-0.8,0.5-1.6,1-2.4,1.4
			c-0.5,0.3-1,0.5-1.4,0.9c-0.1,0.1-0.1,0.6,0,0.8c0.1,0.1,0.6,0.3,0.8,0.1c1-0.5,2-1.1,3-1.8c0.1,0,0.3-0.1,0.3-0.1
			c0.3,0,0.5,0.1,0.9,0.1c-0.1,0.3-0.3,0.6-0.4,0.8c-0.5,0.4-1,0.6-1.5,1c-1.1,0.8-2.3,1.4-3.3,2.1c-0.8,0.5-1.5,0.8-2.5,0.4
			c-0.4-0.1-0.8-0.1-1.4-0.3c0.6-1.9,1.3-3.7,2-5.7c0.5,1.1,1,0.9,1.8,0.5c1-0.6,2-1.1,3.2-1.8C-722,596.4-721.9,596.6-721.8,596.6
			L-721.8,596.6z"/>
		<path class="st0" d="M-714.5,597.9c0.1,0.1,0.4,0.1,0.5,0.3c0.8,0.8,1.3,1.8,2.1,2.4c1,0.9,0.8,1.9,0.8,2.9c0,1,0,1.9,0,3
			c-1.1,0-2.1-0.1-2.8-1.1c-1.1-1.8-2.5-3.3-3.7-5c-0.1-0.1,0-0.4,0-0.6c0.3,0,0.6,0,0.8,0.1c0.6,0.8,1.3,1.5,1.8,2.3
			c0.3,0.3,0.4,0.6,0.8,0.9c0.1,0.1,0.6,0.3,0.8,0.1c0.1-0.1,0.3-0.5,0.1-0.8c-0.6-1-1.4-1.9-2.1-2.9c-0.1-0.3-0.3-0.5-0.5-0.8
			c0.1,0,0.1-0.1,0.3-0.1c0.1,0.1,0.3,0.3,0.4,0.4c0.8,1,1.6,2.1,2.4,3c0.1,0.1,0.6,0.1,0.8,0c0.1-0.1,0.3-0.6,0.1-0.8
			c-0.8-1.1-1.6-2.1-2.5-3.2C-714.6,598.1-714.5,598.1-714.5,597.9L-714.5,597.9z"/>
		<path class="st0" d="M-721.2,595c2.3,0.4,4.4,0.9,6.9,1.3c-1.5,1-2.9,1.8-4.3,2.6c-0.9-1.3-1.9-2.5-2.8-3.8
			C-721.3,595.3-721.3,595.2-721.2,595L-721.2,595z"/>
		<path class="st0" d="M-724.6,604.1c1-0.6,2-1.3,3-1.9c0.8-0.5,1.5-0.9,2.3-1.4c0.3-0.1,0.6-0.1,0.8,0c1.3,1.6,2.4,3.3,3.8,5
			c-1-0.3-1.8-0.4-2.3-1.3c-0.5-0.9-1.1-1.6-1.8-2.4c-0.1-0.1-0.6-0.1-0.8-0.1c-0.8,0.4-1.4,0.8-2,1.3
			C-722.4,604.5-723.4,604.5-724.6,604.1L-724.6,604.1z"/>
		<path class="st0" d="M-689.1,555.5c0,0.9-0.8,1.8-1.6,1.8c-0.9,0-1.8-0.9-1.8-1.8c0-0.9,0.9-1.8,1.8-1.8
			C-689.9,553.8-689.1,554.6-689.1,555.5L-689.1,555.5z"/>
		<path class="st0" d="M-671.9,575.3c0-1,0.8-1.8,1.8-1.8s1.6,0.8,1.8,1.6c0.1,0.9-1,1.6-1.8,1.6
			C-671.1,576.9-671.9,576.1-671.9,575.3L-671.9,575.3z"/>
		<path class="st0" d="M-694.9,558.5c-0.9,0-1.6-0.9-1.6-1.8c0-0.9,1-1.6,1.8-1.6c0.9,0,1.6,0.9,1.6,1.9
			C-693.2,557.9-693.9,558.5-694.9,558.5L-694.9,558.5z"/>
		<path class="st0" d="M-680.3,557.4c0-1,0.8-1.6,1.6-1.6c0.9,0,1.6,0.8,1.6,1.8c0,0.9-0.9,1.8-1.8,1.6
			C-679.6,559-680.3,558.2-680.3,557.4L-680.3,557.4z"/>
		<path class="st0" d="M-672.6,561.5c1,0,1.6,0.6,1.6,1.6c0,1-0.6,1.6-1.6,1.6s-1.6-0.6-1.8-1.6
			C-674.3,562.2-673.5,561.5-672.6,561.5L-672.6,561.5z"/>
		<path class="st0" d="M-669.1,567.1c0,1-0.6,1.5-1.6,1.5c-1,0-1.6-0.6-1.6-1.6s0.6-1.6,1.6-1.6
			C-669.7,565.3-669.1,565.9-669.1,567.1L-669.1,567.1z"/>
		<path class="st0" d="M-680.8,555.9c0,1-0.6,1.6-1.6,1.6c-0.9,0-1.6-0.8-1.6-1.6c0-0.9,0.6-1.5,1.6-1.6
			C-681.5,554.2-680.8,554.7-680.8,555.9L-680.8,555.9z"/>
		<path class="st0" d="M-701.2,563.8c-1,0-1.6-0.6-1.6-1.6c0-0.9,0.8-1.6,1.8-1.6c0.9,0,1.8,0.9,1.6,1.6
			C-699.5,563.2-700.2,563.8-701.2,563.8L-701.2,563.8z"/>
		<path class="st0" d="M-669.9,569.5c1,0,1.6,0.6,1.6,1.6s-0.6,1.6-1.6,1.6c-1,0-1.6-0.6-1.6-1.6S-670.9,569.5-669.9,569.5
			L-669.9,569.5z"/>
		<path class="st0" d="M-675.2,558.2c1,0,1.8,0.6,1.8,1.6c0,0.9-0.8,1.6-1.8,1.6s-1.6-0.8-1.6-1.6
			C-676.9,558.9-676.3,558.2-675.2,558.2L-675.2,558.2z"/>
		<path class="st0" d="M-696.8,559c0,1-0.5,1.6-1.5,1.8c-1.1,0-1.8-0.5-1.8-1.6c0-0.9,0.6-1.6,1.5-1.6
			C-697.6,557.4-696.8,558-696.8,559L-696.8,559z"/>
		<path class="st0" d="M-685,555.2c0,1-0.5,1.5-1.6,1.5c-1,0-1.6-0.6-1.6-1.6s0.8-1.6,1.6-1.6C-685.6,553.5-685,554.1-685,555.2
			L-685,555.2z"/>
		<path class="st0" d="M-722.3,595.2c-1.4,0.8-2.8,1.5-4.2,2.3c-0.1-0.1-0.1-0.1-0.3-0.3c0.5-0.9,0.9-1.8,1.4-2.6
			c0.1-0.1,0.5-0.1,0.8-0.1c0.8,0.1,1.5,0.4,2.3,0.5C-722.3,595-722.3,595-722.3,595.2L-722.3,595.2z"/>
		<path class="st0" d="M-713.6,596.6c0.9,0.1,1.8,0.3,2.5,0.5c0.1,0,0.3,0.4,0.3,0.6c0,0.8-0.1,1.5-0.1,2.5c-1-1.3-1.9-2.3-2.8-3.4
			C-713.6,596.7-713.6,596.6-713.6,596.6L-713.6,596.6z"/>
		<path class="st0" d="M-684,552.1c0.1,0.4,0.4,0.8,0.5,1.1c0,0.1-0.5,0.4-0.8,0.4s-0.8-0.4-0.6-0.5c0.1-0.4,0.4-0.8,0.5-1
			C-684.2,552.1-684.1,552.1-684,552.1L-684,552.1z"/>
		<path class="st0" d="M-689,551.6c0.4,0.5,0.8,0.9,0.8,1.1c0,0.3-0.5,0.5-0.8,0.8c-0.3-0.3-0.6-0.5-0.6-0.8
			C-689.8,552.4-689.4,552.1-689,551.6L-689,551.6z"/>
		<path class="st0" d="M-667.6,572.2c0.4,0.5,0.8,0.9,0.8,1.1s-0.5,0.5-0.8,0.8c-0.3-0.3-0.6-0.5-0.6-0.9
			C-668.2,573-668,572.7-667.6,572.2L-667.6,572.2z"/>
		<path class="st0" d="M-692.8,553.7c-0.4,0.4-0.6,0.8-0.9,0.8c-0.3,0-0.5-0.4-0.8-0.6c0.3-0.3,0.5-0.6,0.8-0.8
			C-693.6,553-693.2,553.3-692.8,553.7L-692.8,553.7z"/>
		<path class="st0" d="M-669.1,577.1c0.4,0.5,0.6,0.8,0.6,1.1c0,0.3-0.4,0.5-0.6,0.8c-0.3-0.3-0.8-0.4-0.8-0.8
			C-669.9,578-669.5,577.7-669.1,577.1L-669.1,577.1z"/>
		<path class="st0" d="M-698.2,554.6c0.3,0.5,0.6,0.9,0.6,1.1s-0.5,0.5-0.6,0.8c-0.3-0.3-0.6-0.5-0.6-0.9
			C-699,555.3-698.6,555.1-698.2,554.6L-698.2,554.6z"/>
		<path class="st0" d="M-668.3,563.9c-0.3,0.1-0.5,0.5-0.8,0.5c-0.4-0.1-0.6-0.4-0.9-0.6c0.3-0.3,0.5-0.6,0.8-0.6
			c0.3,0,0.6,0.3,0.9,0.5C-668.3,563.7-668.3,563.8-668.3,563.9L-668.3,563.9z"/>
		<path class="st0" d="M-701.7,559.6c-0.1-0.3-0.5-0.6-0.4-0.9c0-0.3,0.4-0.5,0.6-0.8c0.3,0.3,0.6,0.5,0.6,0.9
			c0,0.3-0.3,0.5-0.5,0.8C-701.6,559.6-701.7,559.6-701.7,559.6L-701.7,559.6z"/>
		<path class="st0" d="M-676.2,556.4c0.3-0.1,0.6-0.5,0.9-0.5c0.3,0,0.6,0.5,0.6,0.8c0,0.3-0.4,0.6-0.6,0.6c-0.3,0-0.5-0.4-0.9-0.5
			C-676.2,556.6-676.2,556.5-676.2,556.4L-676.2,556.4z"/>
		<path class="st0" d="M-667.7,569.3c-0.4-0.5-0.6-0.9-0.6-1c0-0.3,0.4-0.5,0.6-0.8c0.3,0.3,0.6,0.5,0.6,0.8
			C-667.1,568.5-667.5,568.8-667.7,569.3L-667.7,569.3z"/>
		<path class="st0" d="M-678.3,554.1c-0.5,0.3-0.9,0.6-1.1,0.6s-0.6-0.5-0.6-0.6c0-0.3,0.5-0.6,0.6-0.6
			C-679.2,553.5-678.9,553.8-678.3,554.1L-678.3,554.1z"/>
		<path class="st0" d="M-672,560.6c-0.1-0.3-0.5-0.6-0.4-0.9c0-0.3,0.5-0.5,0.8-0.6c0.3,0.3,0.5,0.5,0.6,0.8c0,0.3-0.4,0.5-0.5,0.8
			C-671.8,560.6-671.9,560.6-672,560.6L-672,560.6z"/>
	</g>
</g>
</svg>
