<?xml version="1.0" encoding="utf-8"?>
<!-- Generator: Adobe Illustrator 18.0.0, SVG Export Plug-In . SVG Version: 6.00 Build 0)  -->
<!DOCTYPE svg PUBLIC "-//W3C//DTD SVG 1.1//EN" "http://www.w3.org/Graphics/SVG/1.1/DTD/svg11.dtd">
<svg version="1.1" id="Layer_1" xmlns="http://www.w3.org/2000/svg" xmlns:xlink="http://www.w3.org/1999/xlink" x="0px" y="0px"
	 viewBox="0 30.4 123 34" enable-background="new 0 30.4 123 34" xml:space="preserve">
<g>
	<g>
		<polygon fill="#939597" points="45.3,41 46.6,41 46.6,41.3 45.7,41.3 45.7,43.1 45.3,43.1 		"/>
		<path fill="#939597" d="M47.4,44v-3h0.3v0.3c0.1-0.1,0.2-0.2,0.3-0.3c0.1,0,0.2-0.1,0.3-0.1c0.2,0,0.3,0,0.5,0.1
			c0.1,0.1,0.3,0.2,0.3,0.4c0.1,0.2,0.1,0.3,0.1,0.6s0,0.4-0.1,0.6c-0.1,0.2-0.2,0.3-0.3,0.4c-0.2,0.1-0.3,0.1-0.5,0.1
			c-0.1,0-0.2,0-0.3-0.1c-0.1,0-0.2-0.1-0.3-0.2V44L47.4,44L47.4,44z M47.8,42.1L47.8,42.1c0,0.3,0,0.5,0.2,0.6
			c0.1,0.1,0.3,0.2,0.4,0.2c0.2,0,0.3-0.1,0.4-0.2c0.1-0.1,0.2-0.3,0.2-0.6c0-0.3,0-0.5-0.2-0.6c-0.1-0.1-0.3-0.2-0.4-0.2
			c-0.2,0-0.3,0.1-0.4,0.2C47.9,41.6,47.8,41.8,47.8,42.1L47.8,42.1z"/>
		<path fill="#939597" d="M50.4,44l0-0.3c0.1,0,0.2,0,0.2,0c0.1,0,0.1,0,0.2,0c0,0,0.1-0.1,0.1-0.1s0-0.1,0.1-0.3c0,0,0,0,0-0.1
			L50.2,41h0.4l0.5,1.2c0,0.2,0.1,0.3,0.2,0.5c0-0.2,0.1-0.3,0.2-0.5l0.5-1.2h0.4l-0.8,2.2c-0.1,0.3-0.2,0.4-0.2,0.5
			c-0.1,0.1-0.1,0.2-0.2,0.3C51,44,50.9,44,50.7,44C50.5,44,50.4,44,50.4,44L50.4,44z"/>
		<polygon fill="#939597" points="53.1,41 54.8,41 54.8,43.1 54.4,43.1 54.4,41.3 53.4,41.3 53.4,43.1 53.1,43.1 		"/>
		<polygon fill="#939597" points="55.9,41 57.7,41 57.7,43.1 57.3,43.1 57.3,41.3 56.3,41.3 56.3,43.1 55.9,43.1 		"/>
		<path fill="#939597" d="M60.3,42.9c-0.1,0.1-0.3,0.2-0.4,0.3c-0.1,0-0.3,0.1-0.4,0.1c-0.3,0-0.4,0-0.6-0.2
			c-0.1-0.1-0.2-0.3-0.2-0.4c0-0.1,0-0.2,0.1-0.3c0-0.1,0.1-0.2,0.2-0.2c0.1,0,0.2-0.1,0.3-0.1c0.1,0,0.2,0,0.3,0
			c0.3,0,0.5-0.1,0.6-0.1c0,0,0-0.1,0-0.1c0-0.1,0-0.3-0.1-0.3c-0.1-0.1-0.2-0.1-0.4-0.1c-0.2,0-0.3,0-0.4,0.1
			c-0.1,0-0.1,0.2-0.2,0.3l-0.3,0c0-0.2,0.1-0.3,0.2-0.4c0.1-0.1,0.2-0.2,0.3-0.2c0.1,0,0.3-0.1,0.5-0.1c0.2,0,0.3,0,0.5,0.1
			c0.1,0,0.2,0.1,0.3,0.2c0,0.1,0.1,0.1,0.1,0.3c0,0,0,0.2,0,0.3v0.5c0,0.3,0,0.6,0,0.6c0,0.1,0,0.2,0.1,0.3h-0.4
			C60.3,43.1,60.3,43,60.3,42.9L60.3,42.9z M60.2,42.1L60.2,42.1c-0.1,0-0.3,0.1-0.6,0.1c-0.2,0-0.3,0-0.3,0.1c0,0-0.1,0.1-0.1,0.1
			c0,0,0,0.1,0,0.2c0,0.1,0,0.2,0.1,0.3c0.1,0.1,0.2,0.1,0.3,0.1c0.1,0,0.3,0,0.4-0.1c0.1,0,0.2-0.1,0.3-0.3c0-0.1,0-0.2,0-0.4
			L60.2,42.1L60.2,42.1z"/>
		<path fill="#939597" d="M63.6,41h0.4v0.9c0.1,0,0.2,0,0.3-0.1c0,0,0.1-0.2,0.2-0.4c0.1-0.2,0.1-0.3,0.2-0.3c0,0,0.1-0.1,0.2-0.1
			c0,0,0.2,0,0.3,0h0.1v0.3H65c-0.1,0-0.2,0-0.2,0c0,0-0.1,0.1-0.1,0.3c0,0.1-0.1,0.3-0.2,0.3c0,0-0.1,0.1-0.2,0.1
			c0.2,0,0.3,0.2,0.5,0.4l0.4,0.7h-0.4l-0.4-0.7c-0.1-0.1-0.2-0.2-0.2-0.3s-0.1,0-0.2,0v1h-0.4L63.6,41L63.6,41z"/>
		<path fill="#939597" d="M65.9,42.1c0-0.4,0.1-0.7,0.3-0.9c0.2-0.2,0.4-0.3,0.7-0.3c0.3,0,0.6,0.1,0.7,0.3c0.2,0.2,0.3,0.5,0.3,0.8
			c0,0.3,0,0.5-0.1,0.6c-0.1,0.2-0.2,0.3-0.4,0.4c-0.2,0.1-0.3,0.1-0.5,0.1c-0.3,0-0.6-0.1-0.7-0.3C66,42.7,65.9,42.4,65.9,42.1
			L65.9,42.1z M66.3,42.1L66.3,42.1c0,0.3,0,0.5,0.2,0.6c0.1,0.1,0.3,0.2,0.5,0.2c0.2,0,0.3-0.1,0.5-0.2s0.2-0.3,0.2-0.6
			c0-0.3,0-0.5-0.2-0.6c-0.1-0.1-0.3-0.2-0.5-0.2c-0.2,0-0.3,0.1-0.5,0.2C66.4,41.6,66.3,41.8,66.3,42.1L66.3,42.1z"/>
		<polygon fill="#939597" points="69,41 69.6,41 70.2,42.7 70.8,41 71.3,41 71.3,43.1 70.9,43.1 70.9,41.4 70.3,43.1 70,43.1 
			69.4,41.3 69.4,43.1 69,43.1 		"/>
		<polygon fill="#939597" points="72.5,41 74.2,41 74.2,43.1 73.8,43.1 73.8,41.3 72.9,41.3 72.9,43.1 72.5,43.1 		"/>
		<path fill="#939597" d="M76.8,42.9c-0.1,0.1-0.3,0.2-0.4,0.3c-0.1,0-0.3,0.1-0.4,0.1c-0.3,0-0.4,0-0.6-0.2
			c-0.1-0.1-0.2-0.3-0.2-0.4c0-0.1,0-0.2,0.1-0.3c0-0.1,0.1-0.2,0.2-0.2c0.1,0,0.2-0.1,0.3-0.1c0.1,0,0.2,0,0.3,0
			c0.3,0,0.5-0.1,0.6-0.1c0,0,0-0.1,0-0.1c0-0.1,0-0.3-0.1-0.3c-0.1-0.1-0.2-0.1-0.4-0.1c-0.2,0-0.3,0-0.4,0.1
			c-0.1,0-0.1,0.2-0.2,0.3l-0.3,0c0-0.2,0.1-0.3,0.2-0.4c0.1-0.1,0.2-0.2,0.3-0.2c0.1,0,0.3-0.1,0.5-0.1c0.2,0,0.3,0,0.5,0.1
			c0.1,0,0.2,0.1,0.3,0.2c0,0.1,0.1,0.1,0.1,0.3c0,0,0,0.2,0,0.3v0.5c0,0.3,0,0.6,0,0.6c0,0.1,0,0.2,0.1,0.3h-0.5
			C76.8,43.1,76.8,43,76.8,42.9L76.8,42.9z M76.7,42.1L76.7,42.1c-0.1,0-0.3,0.1-0.6,0.1c-0.2,0-0.3,0-0.3,0.1c0,0-0.1,0.1-0.1,0.1
			c0,0,0,0.1,0,0.2c0,0.1,0,0.2,0.1,0.3c0.1,0.1,0.2,0.1,0.3,0.1c0.1,0,0.3,0,0.4-0.1c0.1,0,0.2-0.1,0.3-0.3c0-0.1,0-0.2,0-0.4
			L76.7,42.1L76.7,42.1z"/>
		<polygon fill="#939597" points="78.3,41 78.7,41 78.7,41.9 79.7,41.9 79.7,41 80.1,41 80.1,43.1 79.7,43.1 79.7,42.2 78.7,42.2 
			78.7,43.1 78.3,43.1 		"/>
		<polygon fill="#939597" points="81.2,41 81.6,41 81.6,42.6 82.6,41 83,41 83,43.1 82.6,43.1 82.6,41.5 81.7,43.1 81.2,43.1 		"/>
		<path fill="#939597" d="M84.2,41h0.4v1.7l1-1.7H86v2.2h-0.4v-1.7l-1,1.6h-0.4V41L84.2,41z M85.5,40.2L85.5,40.2h0.3
			c0,0.2-0.1,0.3-0.2,0.4c-0.1,0.1-0.3,0.1-0.4,0.1c-0.2,0-0.3,0-0.4-0.1c-0.1-0.1-0.2-0.2-0.2-0.4h0.3c0,0.1,0,0.2,0.1,0.2
			c0,0,0.1,0.1,0.2,0.1c0.1,0,0.2,0,0.3-0.1C85.4,40.3,85.5,40.3,85.5,40.2L85.5,40.2z"/>
	</g>
	<g>
		<g>
			<path fill="#BD1D2D" d="M45.3,48.2c0-0.1,0-0.2,0-0.3c0.2,0,0.4,0,0.6,0c0.2,0,0.4,0,0.6,0s0.3,0,0.5,0c0.2,0,0.3,0,0.6-0.1
				c0.1,0,0.3,0,0.3,0.1c0.1,0.1,0.1,0.2,0.2,0.3c0,0.1,0,0.2,0.1,0.3c0,0.1,0,0.3,0,0.4v0.9c0,0.1,0,0.1,0,0.1c0,0,0,0,0.1,0h1.3
				v-0.6c0-0.3,0-0.5-0.1-0.6c0-0.2-0.1-0.4-0.1-0.6c0.2,0,0.3-0.1,0.5-0.1s0.3-0.1,0.5-0.1c0.1,0,0.3,0,0.4-0.1c0.1,0,0.2,0,0.3,0
				c0.1,0,0.3,0,0.3,0.1c0.1,0.1,0.2,0.2,0.2,0.3c0,0.1,0.1,0.3,0.1,0.4c0,0.2,0,0.3,0,0.5v3c0,0.3,0,0.5,0.1,0.6
				c0,0.2,0.1,0.4,0.1,0.6c-0.2,0-0.3,0.1-0.5,0.1c-0.2,0-0.3,0.1-0.5,0.1c-0.1,0-0.3,0-0.4,0.1c-0.1,0-0.2,0-0.3,0
				c-0.1,0-0.3,0-0.3-0.1c-0.1-0.1-0.2-0.2-0.2-0.3c0-0.1-0.1-0.3-0.1-0.4c0-0.2,0-0.3,0-0.5v-0.7c0-0.1,0-0.1,0-0.1c0,0,0,0-0.1,0
				h-1.3V52c0,0.3,0,0.5,0.1,0.6c0,0.2,0.1,0.4,0.2,0.6c-0.2,0-0.3,0.1-0.5,0.1c-0.2,0-0.3,0.1-0.5,0.1c-0.1,0-0.3,0-0.4,0.1
				c-0.1,0-0.2,0-0.3,0c-0.1,0-0.3,0-0.3-0.1c-0.1-0.1-0.2-0.2-0.2-0.3c0-0.1-0.1-0.3-0.1-0.4c0-0.2,0-0.3,0-0.5v-2.9
				c-0.1,0-0.3-0.1-0.4-0.1c-0.1-0.1-0.2-0.2-0.3-0.3c0-0.1-0.1-0.2-0.1-0.3C45.4,48.4,45.3,48.3,45.3,48.2L45.3,48.2z"/>
			<path fill="#BD1D2D" d="M52,48.4c0-0.2,0.1-0.4,0.2-0.6c0.1-0.1,0.4-0.2,0.7-0.2h3.2c0.2,0,0.3,0,0.5,0c0.2,0,0.3,0,0.4-0.1
				c0.1,0.1,0.2,0.3,0.2,0.4c0,0.2,0,0.3,0,0.4c0,0.2,0,0.3-0.1,0.4C57.1,48.9,57,49,56.9,49c-0.1,0-0.2,0.1-0.4,0.1
				c-0.1,0-0.3,0-0.4,0H55v0.6c0,0.1,0,0.1,0,0.1c0,0,0,0,0.1,0h1.5c0,0.1,0,0.2,0.1,0.3c0,0.1,0,0.2,0,0.3c0,0.3-0.1,0.4-0.3,0.6
				c-0.2,0.2-0.4,0.2-0.8,0.2h-0.6v0.6c0,0,0,0.1,0,0.1c0,0,0,0,0.1,0h1.1c0.2,0,0.3,0,0.5,0c0.2,0,0.3,0,0.4-0.1
				c0.1,0.1,0.2,0.3,0.2,0.4s0,0.3,0,0.4c0,0.2,0,0.3-0.1,0.4c-0.1,0.1-0.2,0.2-0.3,0.2c-0.1,0-0.2,0.1-0.4,0.1c-0.1,0-0.3,0-0.4,0
				h-2.3c-0.1,0-0.3,0-0.4,0c-0.1,0-0.2,0-0.3-0.1C53.1,53.2,53,53.1,53,53c0-0.1-0.1-0.3-0.1-0.5v-3.4c-0.1,0-0.3,0-0.3,0
				c-0.1,0-0.2,0-0.3,0c-0.1-0.1-0.2-0.3-0.2-0.4C52.1,48.7,52,48.5,52,48.4L52,48.4z"/>
			<path fill="#BD1D2D" d="M57.4,53.7v-1c0-0.2,0-0.4,0.1-0.5c0.1-0.1,0.2-0.2,0.4-0.2h0.1c0.1-0.1,0.3-0.3,0.3-0.6
				c0.1-0.2,0.2-0.5,0.3-0.7c0.1-0.3,0.1-0.6,0.2-0.8c0-0.3,0.1-0.6,0.1-0.8c-0.2,0-0.3-0.1-0.4-0.1c-0.1-0.1-0.2-0.1-0.3-0.2
				c0-0.1-0.1-0.2-0.1-0.3c0-0.1,0-0.2,0-0.3c0-0.1,0-0.2,0-0.3c0-0.1,0-0.2,0-0.2h4.5c0.1,0,0.3,0,0.3,0.1c0.1,0.1,0.2,0.2,0.2,0.3
				c0,0.1,0.1,0.3,0.1,0.4s0,0.3,0,0.5v3.1h0.1c0.2,0,0.4,0.1,0.4,0.2c0.1,0.1,0.1,0.3,0.1,0.5v0.9c0,0.3,0,0.6,0.1,0.9
				c-0.1,0-0.3,0.1-0.4,0.1c-0.1,0-0.2,0-0.3,0.1c-0.1,0-0.2,0-0.3,0c-0.1,0-0.1,0-0.2,0c-0.1,0-0.3,0-0.3-0.1s-0.2-0.1-0.2-0.2
				c0-0.1-0.1-0.2-0.1-0.3s0-0.3,0-0.4v-0.3h-3.1c-0.1,0-0.1,0-0.1,0.1v0.1c0,0.3,0,0.6,0.1,0.9c-0.1,0-0.3,0.1-0.4,0.1
				c-0.1,0-0.2,0-0.3,0.1c-0.1,0-0.2,0-0.3,0c-0.1,0-0.1,0-0.2,0c-0.1,0-0.3,0-0.3-0.1c-0.1,0-0.2-0.1-0.2-0.2
				c0-0.1-0.1-0.2-0.1-0.3C57.5,54,57.4,53.9,57.4,53.7L57.4,53.7z M59.9,52.1L59.9,52.1h1.3c0,0,0.1,0,0.1,0c0,0,0-0.1,0-0.1v-2.8
				h-0.6c0,0,0,0-0.1,0c0,0,0,0,0,0.1c0,0.7-0.1,1.3-0.3,1.8C60.2,51.5,60.1,51.9,59.9,52.1L59.9,52.1z"/>
			<path fill="#BD1D2D" d="M63.9,48.4c0-0.2,0-0.3,0.1-0.4c0.1-0.1,0.2-0.2,0.3-0.2c0.1,0,0.3-0.1,0.4-0.1c0.1,0,0.3,0,0.4,0h2
				c0.5,0,0.9,0,1.2,0.1c0.3,0.1,0.6,0.2,0.8,0.3c0.2,0.1,0.3,0.3,0.4,0.5c0.1,0.2,0.1,0.4,0.1,0.6c0,0.3,0,0.5-0.2,0.7
				c-0.1,0.2-0.3,0.4-0.5,0.5c0.4,0.1,0.6,0.3,0.8,0.5c0.2,0.3,0.3,0.5,0.3,0.8c0,0.3,0,0.6-0.2,0.8c-0.1,0.2-0.3,0.4-0.5,0.6
				c-0.2,0.1-0.4,0.3-0.7,0.3c-0.3,0.1-0.6,0.1-0.8,0.2c-0.3,0-0.6,0-0.9,0.1c-0.3,0-0.5,0-0.8,0c-0.2,0-0.3,0-0.5,0s-0.3,0-0.4-0.1
				c-0.1,0-0.2-0.2-0.3-0.3c-0.1-0.1-0.1-0.3-0.1-0.5v-3.4c-0.1,0-0.3,0-0.3,0c-0.1,0-0.2,0-0.3,0c-0.1-0.1-0.2-0.3-0.2-0.4
				C63.9,48.7,63.9,48.5,63.9,48.4L63.9,48.4z M66.9,50.1L66.9,50.1h0.3c0.4,0,0.6-0.2,0.6-0.6c0-0.2,0-0.3-0.2-0.3
				c-0.1,0-0.3-0.1-0.4-0.1h-0.3L66.9,50.1L66.9,50.1z M66.9,52.1L66.9,52.1c0,0,0.1,0,0.1,0c0,0,0.1,0,0.2,0c0.3,0,0.4,0,0.6-0.1
				c0.1-0.1,0.2-0.2,0.2-0.4c0-0.2-0.1-0.3-0.2-0.4c-0.1-0.1-0.3-0.1-0.4-0.1h-0.4V52.1L66.9,52.1z"/>
			<path fill="#BD1D2D" d="M69.8,48.2c0-0.1,0-0.2,0-0.3c0.2,0,0.4,0,0.6,0c0.2,0,0.3,0,0.5,0c0.2,0,0.3,0,0.5,0
				c0.2,0,0.3,0,0.6-0.1c0.1,0,0.3,0,0.3,0.1c0.1,0.1,0.1,0.2,0.2,0.3c0,0.1,0.1,0.2,0.1,0.3s0,0.3,0,0.4V51l1.5-3
				c0.1,0,0.2,0,0.3-0.1c0.1,0,0.3-0.1,0.4-0.1c0.1,0,0.3,0,0.4-0.1c0.1,0,0.2,0,0.3,0c0.1,0,0.3,0,0.3,0.1c0.1,0.1,0.2,0.2,0.2,0.3
				c0,0.1,0.1,0.3,0.1,0.4c0,0.2,0,0.3,0,0.5v3c0,0.3,0,0.5,0.1,0.6c0,0.2,0.1,0.4,0.1,0.6c-0.2,0-0.3,0.1-0.5,0.1
				c-0.2,0-0.3,0.1-0.5,0.1c-0.1,0-0.3,0-0.4,0.1c-0.1,0-0.2,0-0.3,0c-0.1,0-0.3,0-0.3-0.1c-0.1-0.1-0.2-0.2-0.2-0.3
				s-0.1-0.3-0.1-0.4c0-0.2,0-0.3,0-0.5v-1.9l-1.5,2.9c-0.1,0-0.3,0-0.4,0.1c-0.1,0-0.3,0.1-0.4,0.1c-0.1,0-0.3,0-0.4,0.1
				c-0.1,0-0.2,0-0.3,0c-0.1,0-0.3,0-0.3-0.1c-0.1-0.1-0.2-0.2-0.2-0.3c0-0.1-0.1-0.3-0.1-0.4s0-0.3,0-0.5v-2.9
				c-0.1,0-0.3-0.1-0.3-0.1C70.1,49,70,49,70,48.9c0-0.1-0.1-0.2-0.1-0.3C69.8,48.4,69.8,48.3,69.8,48.2L69.8,48.2z"/>
			<path fill="#BD1D2D" d="M76.5,48.8c0-0.2,0.1-0.4,0.1-0.5c0.1-0.1,0.2-0.3,0.3-0.3c0.1-0.1,0.3-0.2,0.4-0.2c0.1,0,0.3,0,0.4,0
				c0.5,0,0.9,0.2,1.2,0.6c0.3,0.4,0.6,1,0.8,1.9h0v-1c0-0.3,0-0.5-0.1-0.6c0-0.2-0.1-0.4-0.1-0.6c0.2,0,0.3-0.1,0.5-0.1
				s0.3-0.1,0.5-0.1c0.1,0,0.3,0,0.4-0.1c0.1,0,0.2,0,0.3,0c0.1,0,0.3,0,0.3,0.1c0.1,0.1,0.2,0.2,0.2,0.3s0.1,0.3,0.1,0.4
				c0,0.2,0,0.3,0,0.5v1.2c0.1,0,0.2-0.1,0.3-0.2c0.1-0.1,0.2-0.2,0.2-0.3c0-0.1,0.1-0.3,0.1-0.4c0-0.1,0-0.3,0-0.4s0-0.3,0-0.4
				c0-0.1,0-0.3-0.1-0.3c0.2-0.2,0.3-0.3,0.6-0.3c0.2,0,0.4-0.1,0.6-0.1c0.2,0,0.3,0,0.5,0.1c0.1,0.1,0.3,0.2,0.3,0.3
				c0.1,0.1,0.2,0.2,0.2,0.4c0,0.1,0.1,0.3,0.1,0.4c0,0.3-0.1,0.6-0.3,0.9c-0.2,0.3-0.4,0.5-0.7,0.7c0,0.2,0.1,0.4,0.3,0.6
				c0.1,0.2,0.2,0.4,0.4,0.6c0.1,0.2,0.3,0.4,0.5,0.6c0.2,0.2,0.3,0.3,0.5,0.4c-0.1,0.3-0.3,0.6-0.6,0.7c-0.3,0.2-0.5,0.3-0.8,0.3
				c-0.3,0-0.5,0-0.6-0.1c-0.2-0.1-0.3-0.2-0.5-0.4c-0.1-0.2-0.3-0.5-0.4-0.9c-0.1-0.3-0.3-0.8-0.4-1.4h0V52c0,0.3,0,0.5,0.1,0.6
				c0,0.2,0.1,0.4,0.1,0.6c-0.2,0-0.3,0.1-0.5,0.1c-0.2,0-0.3,0.1-0.5,0.1c-0.1,0-0.3,0-0.4,0.1s-0.2,0-0.3,0c-0.1,0-0.3,0-0.3-0.1
				c-0.1-0.1-0.2-0.2-0.2-0.3s-0.1-0.3-0.1-0.4s0-0.3,0-0.5v-1.4c-0.1,0.1-0.3,0.1-0.3,0.3c-0.1,0.1-0.2,0.2-0.2,0.3
				s-0.1,0.3-0.1,0.4s0,0.3,0,0.4c0,0.3,0,0.6,0.1,0.8c-0.2,0.2-0.3,0.3-0.6,0.3c-0.2,0.1-0.4,0.1-0.6,0.1c-0.2,0-0.3,0-0.5-0.1
				c-0.1-0.1-0.3-0.2-0.3-0.3c-0.1-0.1-0.2-0.3-0.2-0.4c0-0.2-0.1-0.3-0.1-0.4c0-0.4,0.1-0.7,0.3-1.1c0.2-0.3,0.5-0.6,0.8-0.8
				c0-0.2-0.1-0.3-0.2-0.6c-0.1-0.2-0.2-0.4-0.3-0.6S77.2,49.1,77,49C76.8,48.9,76.7,48.8,76.5,48.8L76.5,48.8z"/>
			<path fill="#BD1D2D" d="M85.2,48.2c0-0.1,0-0.2,0-0.3c0.2,0,0.4,0,0.6,0c0.2,0,0.3,0,0.5,0c0.2,0,0.3,0,0.5,0
				c0.2,0,0.3,0,0.6-0.1c0.1,0,0.3,0,0.3,0.1c0.1,0.1,0.1,0.2,0.2,0.3c0,0.1,0.1,0.2,0.1,0.3s0,0.3,0,0.4V51l1.5-3
				c0.1,0,0.2,0,0.3-0.1c0.1,0,0.3-0.1,0.4-0.1c0.1,0,0.3,0,0.4-0.1c0.1,0,0.2,0,0.3,0c0.1,0,0.3,0,0.3,0.1c0.1,0.1,0.2,0.2,0.2,0.3
				c0,0.1,0.1,0.3,0.1,0.4c0,0.2,0,0.3,0,0.5v3c0,0.3,0,0.5,0.1,0.6c0,0.2,0.1,0.4,0.1,0.6c-0.2,0-0.3,0.1-0.5,0.1
				c-0.2,0-0.3,0.1-0.5,0.1c-0.1,0-0.3,0-0.4,0.1c-0.1,0-0.2,0-0.3,0c-0.1,0-0.3,0-0.3-0.1c-0.1-0.1-0.2-0.2-0.2-0.3
				s-0.1-0.3-0.1-0.4c0-0.2,0-0.3,0-0.5v-1.9l-1.5,2.9c-0.1,0-0.3,0-0.4,0.1c-0.1,0-0.3,0.1-0.4,0.1c-0.1,0-0.3,0-0.4,0.1
				c-0.1,0-0.2,0-0.3,0c-0.1,0-0.3,0-0.3-0.1c-0.1-0.1-0.2-0.2-0.2-0.3c0-0.1-0.1-0.3-0.1-0.4s0-0.3,0-0.5v-2.9
				c-0.1,0-0.3-0.1-0.3-0.1c-0.1-0.1-0.2-0.2-0.3-0.3c0-0.1-0.1-0.2-0.1-0.3C85.2,48.4,85.2,48.3,85.2,48.2L85.2,48.2z"/>
			<path fill="#BD1D2D" d="M92,48.2c0-0.1,0-0.2,0-0.3c0.4,0,0.9-0.1,1.2-0.1c0.4-0.1,0.8-0.1,1.2-0.1c0.3,0,0.4,0,0.6,0.2
				c0.1,0.1,0.3,0.3,0.3,0.6l0.6,1.9l0.6-1.9c0.1-0.3,0.3-0.5,0.4-0.6c0.2-0.1,0.4-0.2,0.7-0.1l0.6,0.1c0.2,0,0.3,0,0.4,0.1
				c0.1,0,0.2,0.1,0.3,0.2c0,0.1,0.1,0.2,0.1,0.3s0,0.3,0,0.5l0.2,3.2c0,0.3,0,0.5,0.1,0.7c0,0.2,0.1,0.4,0.2,0.6
				c-0.2,0-0.3,0.1-0.5,0.1c-0.2,0-0.3,0.1-0.5,0.1c-0.1,0-0.3,0-0.4,0.1c-0.1,0-0.2,0-0.3,0c-0.1,0-0.3,0-0.3-0.1
				c-0.1-0.1-0.2-0.2-0.2-0.3c0-0.1-0.1-0.3-0.1-0.4s0-0.3,0-0.5l0-2.1l-0.4,1.2c-0.1,0.2-0.1,0.3-0.2,0.4c-0.1,0.1-0.2,0.2-0.4,0.2
				h-0.5c-0.2,0-0.3,0-0.4-0.2c-0.1-0.1-0.2-0.3-0.3-0.4l-0.6-1.2l0.1,1.8c0,0.3,0,0.5,0.1,0.7c0,0.2,0.1,0.4,0.2,0.6
				c-0.2,0-0.3,0.1-0.5,0.1c-0.2,0-0.3,0.1-0.5,0.1c-0.1,0-0.3,0-0.4,0.1c-0.1,0-0.2,0-0.3,0c-0.1,0-0.3,0-0.3-0.1
				c-0.1-0.1-0.2-0.2-0.2-0.3s-0.1-0.3-0.1-0.4c0-0.2,0-0.3,0-0.5l0.1-2.9c-0.1,0-0.3-0.1-0.3-0.1c-0.1-0.1-0.2-0.2-0.2-0.3
				c0-0.1-0.1-0.2-0.1-0.3C92,48.4,92,48.3,92,48.2L92,48.2z"/>
			<path fill="#BD1D2D" d="M99.9,50.8c0-0.4,0-0.9,0.2-1.2c0.1-0.4,0.3-0.7,0.6-1c0.3-0.3,0.6-0.5,0.9-0.7c0.4-0.2,0.9-0.3,1.4-0.3
				s1,0.1,1.4,0.2c0.4,0.1,0.7,0.3,0.9,0.6c0.2,0.3,0.4,0.6,0.5,0.9c0.1,0.3,0.2,0.7,0.2,1.2s0,0.9-0.2,1.2c-0.1,0.4-0.3,0.7-0.5,1
				c-0.3,0.3-0.6,0.5-0.9,0.7c-0.4,0.2-0.8,0.3-1.3,0.3c-0.6,0-1-0.1-1.4-0.2c-0.4-0.1-0.7-0.3-0.9-0.6c-0.3-0.3-0.4-0.6-0.5-0.9
				C99.9,51.6,99.9,51.2,99.9,50.8L99.9,50.8z M101.9,50.6L101.9,50.6c0,0.1,0,0.3,0,0.4c0,0.1,0.1,0.3,0.1,0.3
				c0.1,0.1,0.2,0.2,0.3,0.3c0.1,0.1,0.3,0.1,0.5,0.1c0.3,0,0.5-0.1,0.7-0.3c0.2-0.2,0.3-0.5,0.3-0.9c0-0.3-0.1-0.6-0.2-0.9
				c-0.2-0.2-0.4-0.3-0.6-0.3c-0.3,0-0.5,0.1-0.7,0.3C102,49.9,101.9,50.2,101.9,50.6L101.9,50.6z"/>
			<path fill="#BD1D2D" d="M106.2,50.8c0-0.5,0-0.9,0.2-1.3c0.1-0.4,0.3-0.7,0.5-1c0.3-0.3,0.6-0.5,0.9-0.7c0.4-0.2,0.9-0.3,1.4-0.3
				c0.3,0,0.5,0,0.8,0.1c0.3,0,0.5,0.1,0.7,0.2s0.3,0.2,0.5,0.4c0.1,0.2,0.2,0.4,0.2,0.6c0,0.2,0,0.4-0.2,0.6s-0.3,0.3-0.5,0.4
				c-0.2-0.1-0.4-0.2-0.6-0.3c-0.3-0.1-0.5-0.1-0.7-0.1c-0.1,0-0.3,0-0.4,0c-0.1,0-0.2,0.1-0.3,0.2c-0.1,0.1-0.2,0.2-0.2,0.4
				c0,0.2-0.1,0.3-0.1,0.6c0,0.3,0.1,0.6,0.3,0.8c0.2,0.2,0.4,0.3,0.8,0.3c0.3,0,0.7,0,0.9-0.2c0.3-0.1,0.5-0.2,0.6-0.3
				c0.2,0.1,0.3,0.3,0.4,0.4c0.1,0.2,0.1,0.3,0.1,0.6c0,0.3-0.1,0.5-0.2,0.7c-0.1,0.2-0.3,0.3-0.6,0.4c-0.2,0.1-0.5,0.2-0.7,0.2
				c-0.3,0-0.5,0.1-0.8,0.1c-0.5,0-0.9-0.1-1.3-0.2c-0.4-0.1-0.7-0.3-0.9-0.6c-0.3-0.3-0.4-0.5-0.5-0.9
				C106.2,51.6,106.2,51.3,106.2,50.8L106.2,50.8z"/>
			<path fill="#BD1D2D" d="M111.4,48.6c0-0.2,0-0.3,0-0.4c0-0.1,0.1-0.2,0.2-0.3c0.1-0.1,0.3-0.1,0.4-0.2c0.2,0,0.4,0,0.6,0
				c0.2,0,0.4,0,0.6,0s0.5,0,0.7,0c0.3,0,0.5,0,0.7,0c0.2,0,0.4,0,0.6,0c0.3,0,0.5,0,0.7,0c0.2,0,0.4-0.1,0.6-0.2
				c0.1,0.2,0.2,0.3,0.3,0.5c0.1,0.2,0.1,0.4,0.1,0.6c0,0.1,0,0.3,0,0.4c0,0.1-0.1,0.2-0.2,0.3c-0.1,0.1-0.3,0.2-0.4,0.2
				c-0.2,0-0.4,0.1-0.7,0.1h-0.2c-0.1,0-0.1,0-0.1,0.1V52c0,0.3,0,0.5,0.1,0.6c0,0.2,0.1,0.4,0.1,0.6c-0.2,0-0.3,0.1-0.5,0.1
				c-0.2,0-0.3,0.1-0.5,0.1c-0.1,0-0.3,0-0.4,0.1c-0.1,0-0.2,0-0.3,0c-0.1,0-0.3,0-0.3-0.1c-0.1-0.1-0.2-0.2-0.2-0.3
				s-0.1-0.3-0.1-0.4c0-0.2,0-0.3,0-0.5v-2.8c0,0-0.1,0-0.1,0c0,0-0.1,0-0.1,0c-0.2,0-0.4,0-0.6,0.1s-0.3,0.1-0.5,0.2
				c-0.1-0.2-0.2-0.4-0.3-0.6C111.5,49,111.4,48.8,111.4,48.6L111.4,48.6z"/>
			<path fill="#BD1D2D" d="M117.1,48.2c0,0,0-0.1,0-0.2s0-0.1,0-0.2c0.2,0,0.4,0,0.6,0c0.2,0,0.3,0,0.5,0c0.2,0,0.3,0,0.5,0
				c0.2,0,0.3,0,0.6-0.1c0.1,0,0.3,0,0.3,0.1c0.1,0.1,0.1,0.2,0.2,0.3c0,0.1,0,0.2,0.1,0.3c0,0.1,0,0.3,0,0.4v1.2
				c0.2-0.3,0.4-0.5,0.7-0.6c0.3-0.1,0.6-0.2,0.9-0.2c0.3,0,0.5,0,0.7,0.1c0.2,0.1,0.3,0.2,0.5,0.4c0.1,0.2,0.2,0.3,0.3,0.6
				c0.1,0.2,0.1,0.5,0.1,0.7c0,0.5-0.1,0.9-0.3,1.2c-0.2,0.3-0.4,0.6-0.6,0.8c-0.3,0.2-0.6,0.3-0.9,0.4c-0.3,0.1-0.7,0.1-1,0.1
				c-0.3,0-0.5,0-0.8,0c-0.3,0-0.5-0.1-0.8-0.3c-0.2-0.2-0.4-0.4-0.6-0.7c-0.2-0.3-0.2-0.7-0.2-1.2v-2c-0.1,0-0.3-0.1-0.3-0.2
				c-0.1-0.1-0.2-0.2-0.2-0.3s-0.1-0.2-0.1-0.3C117.1,48.5,117.1,48.4,117.1,48.2L117.1,48.2z M119.9,51L119.9,51
				c0,0.3,0,0.6,0.2,0.6c0.1,0.1,0.2,0.2,0.4,0.2s0.3,0,0.4-0.2c0.1-0.1,0.2-0.3,0.2-0.4c0-0.2,0-0.3-0.1-0.4
				c-0.1-0.1-0.2-0.2-0.3-0.2c-0.1,0-0.2-0.1-0.4-0.1c-0.1,0-0.3,0-0.3,0L119.9,51L119.9,51z"/>
		</g>
		<g>
			<path fill="#BD1D2D" d="M45.3,58.5c0-0.1,0-0.2,0-0.3c0.2,0,0.4,0,0.6,0c0.2,0,0.4,0,0.6,0s0.3,0,0.5,0c0.2,0,0.3,0,0.6-0.1
				c0.1,0,0.3,0,0.3,0.1c0.1,0.1,0.1,0.2,0.2,0.3c0,0.1,0,0.2,0.1,0.3c0,0.1,0,0.3,0,0.4v1.3h0.3c0.2,0,0.3,0,0.4-0.1
				c0.1-0.1,0.2-0.2,0.2-0.3c0-0.1,0.1-0.2,0.1-0.3c0-0.1,0-0.2,0-0.3c0-0.2,0-0.3-0.1-0.5c0-0.2-0.1-0.3-0.2-0.4
				c0.2-0.2,0.3-0.3,0.6-0.4C49.8,58,50,58,50.2,58c0.2,0,0.4,0,0.5,0.1c0.1,0.1,0.3,0.2,0.3,0.3c0.1,0.1,0.2,0.3,0.2,0.4
				c0,0.1,0.1,0.3,0.1,0.4c0,0.3-0.1,0.7-0.3,0.9s-0.4,0.5-0.7,0.7c0.1,0.2,0.2,0.4,0.3,0.6c0.1,0.2,0.3,0.3,0.4,0.5
				c0.1,0.2,0.3,0.3,0.4,0.4c0.1,0.1,0.3,0.2,0.4,0.2c0,0.3,0,0.5-0.1,0.6c-0.1,0.2-0.2,0.3-0.3,0.4c-0.1,0.1-0.3,0.2-0.4,0.2
				s-0.3,0.1-0.5,0.1c-0.3,0-0.5,0-0.7-0.1c-0.2-0.1-0.4-0.2-0.6-0.4c-0.2-0.2-0.3-0.5-0.4-0.8c-0.1-0.3-0.2-0.8-0.3-1.4h-0.4v1.1
				c0,0.3,0,0.5,0.1,0.6c0,0.2,0.1,0.4,0.1,0.6c-0.2,0-0.3,0.1-0.5,0.1c-0.2,0-0.3,0.1-0.5,0.1c-0.1,0-0.3,0-0.4,0.1
				c-0.1,0-0.2,0-0.3,0c-0.1,0-0.3,0-0.3-0.1c-0.1-0.1-0.2-0.2-0.2-0.3c0-0.1-0.1-0.3-0.1-0.4s0-0.3,0-0.5v-2.9
				c-0.1,0-0.3-0.1-0.4-0.1c-0.1-0.1-0.2-0.2-0.3-0.3c0-0.1-0.1-0.2-0.1-0.3C45.4,58.8,45.3,58.6,45.3,58.5L45.3,58.5z"/>
			<path fill="#BD1D2D" d="M51.9,63.5c0-0.1,0-0.2,0-0.3c0-0.1,0-0.3,0.1-0.3l1.1-2.6c0.1-0.3,0.3-0.5,0.3-0.7c-0.1,0-0.2,0-0.3,0
				s-0.2,0-0.3,0c0-0.1-0.1-0.3-0.1-0.4s-0.1-0.3-0.1-0.4c0-0.2,0.1-0.4,0.3-0.6s0.5-0.2,0.9-0.2h1.5c0.3,0,0.5,0,0.7,0.2
				c0.2,0.1,0.3,0.3,0.4,0.6l1.3,3.9c0,0.2,0.1,0.3,0.2,0.5s0.1,0.3,0.2,0.5c-0.3,0.1-0.5,0.1-0.8,0.2c-0.3,0-0.5,0.1-0.7,0.1
				c-0.2,0-0.4,0-0.5-0.2c-0.1-0.1-0.3-0.3-0.3-0.6l-0.1-0.3h-1.8l-0.4,1h-0.9c-0.2,0-0.3,0-0.4-0.1C52,63.7,52,63.6,51.9,63.5
				L51.9,63.5z M54.4,61.4L54.4,61.4c0,0.1,0,0.1,0.1,0.1h0.8l-0.4-1.4L54.4,61.4L54.4,61.4z"/>
			<path fill="#BD1D2D" d="M57.5,58.7c0-0.2,0-0.3,0.1-0.4c0.1-0.1,0.2-0.2,0.3-0.2c0.1,0,0.3-0.1,0.4-0.1c0.1,0,0.3,0,0.4,0h2
				c0.5,0,0.9,0,1.3,0.2c0.3,0.1,0.6,0.2,0.9,0.4c0.2,0.2,0.4,0.4,0.5,0.6c0.1,0.3,0.2,0.5,0.2,0.9c0,0.3,0,0.6-0.1,0.9
				s-0.2,0.5-0.4,0.7c-0.2,0.2-0.4,0.3-0.8,0.5c-0.3,0.1-0.7,0.2-1.1,0.2c-0.1,0-0.2,0-0.3,0c-0.1,0-0.2,0-0.3,0v0.3
				c0,0.2,0,0.4,0.1,0.6c0,0.2,0.1,0.3,0.1,0.5c-0.2,0-0.3,0.1-0.5,0.1c-0.2,0-0.3,0.1-0.5,0.1c-0.1,0-0.3,0-0.4,0.1
				c-0.1,0-0.2,0-0.3,0c-0.1,0-0.3,0-0.3-0.1c-0.1-0.1-0.2-0.2-0.2-0.3c0-0.1-0.1-0.3-0.1-0.4s0-0.3,0-0.5v-3.1c-0.1,0-0.3,0-0.3,0
				c-0.1,0-0.2,0-0.3,0c-0.1-0.1-0.2-0.3-0.2-0.4C57.5,59,57.5,58.9,57.5,58.7L57.5,58.7z M60.5,60.8L60.5,60.8c0,0,0.1,0,0.1,0
				c0,0,0.1,0,0.1,0c0.2,0,0.4,0,0.5-0.2c0.1-0.1,0.2-0.3,0.2-0.6c0-0.3-0.1-0.4-0.2-0.5c-0.1-0.1-0.3-0.1-0.5-0.1h-0.3V60.8
				L60.5,60.8z"/>
			<path fill="#BD1D2D" d="M63.5,58.7c0-0.2,0.1-0.4,0.2-0.6c0.1-0.1,0.4-0.2,0.7-0.2h3.2c0.2,0,0.3,0,0.5,0c0.2,0,0.3,0,0.4-0.1
				c0.1,0.1,0.2,0.3,0.2,0.4s0,0.3,0,0.4c0,0.2,0,0.3-0.1,0.4c-0.1,0.1-0.2,0.2-0.3,0.2c-0.1,0-0.2,0.1-0.4,0.1c-0.1,0-0.3,0-0.4,0
				h-1.2V60c0,0.1,0,0.1,0,0.1c0,0,0,0,0.1,0h1.5c0,0.1,0,0.2,0.1,0.3c0,0.1,0,0.2,0,0.3c0,0.3-0.1,0.4-0.3,0.6
				c-0.2,0.2-0.4,0.2-0.8,0.2h-0.6v0.6c0,0,0,0.1,0,0.1c0,0,0,0,0.1,0h1.1c0.2,0,0.3,0,0.5,0c0.2,0,0.3,0,0.4-0.1
				c0.1,0.1,0.2,0.3,0.2,0.4c0,0.2,0,0.3,0,0.4c0,0.2,0,0.3-0.1,0.4c-0.1,0.1-0.2,0.2-0.3,0.2c-0.1,0-0.2,0.1-0.4,0.1
				c-0.1,0-0.3,0-0.4,0h-2.3c-0.1,0-0.3,0-0.4,0c-0.1,0-0.2,0-0.3-0.1c-0.1-0.1-0.2-0.2-0.2-0.3c0-0.1-0.1-0.3-0.1-0.5v-3.4
				c-0.1,0-0.3,0-0.3,0c-0.1,0-0.2,0-0.3,0c-0.1-0.1-0.2-0.3-0.2-0.4C63.5,59,63.5,58.9,63.5,58.7L63.5,58.7z"/>
			<path fill="#BD1D2D" d="M69,62.7c0,0,0-0.1,0-0.1c0,0,0-0.1,0-0.1h0c0.2,0,0.3,0,0.4-0.2c0.1-0.1,0.2-0.3,0.3-0.4
				c0.1-0.2,0.2-0.3,0.2-0.6c0-0.2,0.1-0.4,0.1-0.6c0-0.2,0-0.4,0.1-0.6c0-0.2,0-0.4,0-0.5c-0.2,0-0.3-0.1-0.4-0.2
				c-0.1-0.1-0.2-0.2-0.3-0.3c0-0.1-0.1-0.2-0.1-0.3c0-0.1,0-0.3,0-0.3c0-0.1,0-0.2,0-0.3c0-0.1,0-0.2,0-0.2h4.8
				c0.1,0,0.3,0,0.3,0.1c0.1,0.1,0.2,0.2,0.2,0.3c0,0.1,0.1,0.3,0.1,0.4s0,0.3,0,0.5v3c0,0.3,0,0.5,0.1,0.6c0,0.2,0.1,0.4,0.1,0.6
				c-0.2,0-0.3,0.1-0.5,0.1c-0.2,0-0.3,0.1-0.5,0.1c-0.1,0-0.3,0-0.4,0.1c-0.1,0-0.2,0-0.3,0c-0.1,0-0.3,0-0.3-0.1
				c-0.1-0.1-0.2-0.2-0.2-0.3s-0.1-0.3-0.1-0.4s0-0.3,0-0.5v-2.9c0-0.1,0-0.1,0-0.1c0,0,0,0-0.1,0h-0.5c0,0.9-0.1,1.6-0.2,2.1
				c-0.1,0.6-0.2,1-0.4,1.3c-0.2,0.3-0.4,0.6-0.6,0.7c-0.3,0.1-0.6,0.2-0.9,0.2c-0.4,0-0.7-0.1-0.9-0.3C69.1,63.3,69,63.1,69,62.7
				L69,62.7z"/>
			<path fill="#BD1D2D" d="M75.3,58.5c0-0.1,0-0.2,0-0.3c0.2,0,0.4,0,0.6,0c0.2,0,0.3,0,0.5,0s0.3,0,0.5,0c0.2,0,0.3,0,0.6-0.1
				c0.1,0,0.3,0,0.3,0.1c0.1,0.1,0.1,0.2,0.2,0.3c0,0.1,0,0.2,0.1,0.3c0,0.1,0,0.3,0,0.4v2.2l1.5-3c0.1,0,0.2,0,0.3-0.1
				c0.1,0,0.3-0.1,0.4-0.1c0.1,0,0.3,0,0.4-0.1c0.1,0,0.2,0,0.3,0c0.1,0,0.3,0,0.3,0.1c0.1,0.1,0.2,0.2,0.2,0.3
				c0,0.1,0.1,0.3,0.1,0.4s0,0.3,0,0.5v3c0,0.3,0,0.5,0.1,0.6c0,0.2,0.1,0.4,0.1,0.6c-0.2,0-0.3,0.1-0.5,0.1c-0.2,0-0.3,0.1-0.5,0.1
				c-0.1,0-0.3,0-0.4,0.1c-0.1,0-0.2,0-0.3,0c-0.1,0-0.3,0-0.3-0.1c-0.1-0.1-0.2-0.2-0.2-0.3c0-0.1-0.1-0.3-0.1-0.4s0-0.3,0-0.5
				v-1.8l-1.5,2.9c-0.1,0-0.3,0-0.4,0.1c-0.1,0-0.3,0.1-0.4,0.1c-0.1,0-0.3,0-0.4,0.1c-0.1,0-0.2,0-0.3,0c-0.1,0-0.3,0-0.3-0.1
				c-0.1-0.1-0.2-0.2-0.2-0.3s-0.1-0.3-0.1-0.4s0-0.3,0-0.5v-2.9c-0.1,0-0.3-0.1-0.3-0.1c-0.1-0.1-0.2-0.2-0.3-0.3
				c0-0.1-0.1-0.2-0.1-0.3C75.4,58.8,75.3,58.6,75.3,58.5L75.3,58.5z"/>
			<path fill="#BD1D2D" d="M82,58.5c0-0.1,0-0.2,0-0.3c0.2,0,0.4,0,0.6,0c0.2,0,0.3,0,0.5,0s0.3,0,0.5,0c0.2,0,0.3,0,0.6-0.1
				c0.1,0,0.3,0,0.3,0.1c0.1,0.1,0.1,0.2,0.2,0.3s0.1,0.2,0.1,0.3c0,0.1,0,0.3,0,0.4v2.2l1.5-3c0.1,0,0.2,0,0.3-0.1
				c0.1,0,0.3-0.1,0.4-0.1c0.1,0,0.3,0,0.4-0.1c0.1,0,0.2,0,0.3,0c0.1,0,0.3,0,0.3,0.1c0.1,0.1,0.2,0.2,0.2,0.3
				c0,0.1,0.1,0.3,0.1,0.4s0,0.3,0,0.5v3c0,0.3,0,0.5,0.1,0.6c0,0.2,0.1,0.4,0.1,0.6c-0.2,0-0.3,0.1-0.5,0.1c-0.2,0-0.3,0.1-0.5,0.1
				c-0.1,0-0.3,0-0.4,0.1c-0.1,0-0.2,0-0.3,0c-0.1,0-0.3,0-0.3-0.1c-0.1-0.1-0.2-0.2-0.2-0.3c0-0.1-0.1-0.3-0.1-0.4s0-0.3,0-0.5
				v-1.8l-1.5,2.9c-0.1,0-0.3,0-0.4,0.1c-0.1,0-0.3,0.1-0.4,0.1c-0.1,0-0.3,0-0.4,0.1c-0.1,0-0.2,0-0.3,0c-0.2,0-0.3,0-0.3-0.1
				c-0.1-0.1-0.2-0.2-0.2-0.3s-0.1-0.3-0.1-0.4s0-0.3,0-0.5v-2.9c-0.1,0-0.3-0.1-0.3-0.1c-0.1-0.1-0.2-0.2-0.3-0.3
				c0-0.1-0.1-0.2-0.1-0.3C82.1,58.8,82,58.6,82,58.5L82,58.5z"/>
		</g>
	</g>
	<g>
		<path fill="#FFFFFF" d="M0.1,50.1c0.1-0.1,0.2-0.2,0.3-0.2c0.4-0.3,0.8-0.8,1.3-1.1c0.9-0.5,1.9-0.7,2.9-0.8C4.7,48.1,5,48,5,47.8
			c0.3-0.5,0.6-1.1,1-1.6c0.5-0.7,1-1.5,1.7-2c0.7-0.7,1.5-1.2,2.3-1.8c0.8-0.6,1.8-0.9,2.7-1.1c1.1-0.2,2.2-0.2,3.3-0.2
			c0.7,0,1.4,0.3,2,0.4c0.5,0.1,0.9,0.3,1.4,0.1c0.3-0.1,0.6-0.2,0.9-0.1c0.8,0.1,1.1,0.7,0.9,1.6c-0.1,0.3,0,0.5,0.2,0.7
			c0.4,0.5,0.7,1,1,1.5c0.3,0.5,0.3,1,0.1,1.5c0,0.2,0,0.4,0,0.6c0.1,0.6,0.3,1.2,0.5,1.8c0.1,0.3,0,0.4-0.3,0.4
			c-0.2,0-0.3,0-0.5,0.1c-0.9,0.3-1.7,0.6-2.6,0.2c-0.2-0.1-0.4-0.2-0.6-0.3c-0.7-0.4-1.4-0.8-2-1.2c-0.3-0.2-0.4-0.1-0.5,0.1
			c-0.1,0.3-0.3,0.7-0.2,1.1c0,0.8,0.4,1.4,0.9,2c0.8,1,1.9,1.6,3.2,1.7c0.1,0,0.3,0.2,0.3,0.3c0,0.4,0,0.9,0.1,1.3
			c0,0.2-0.1,0.3-0.3,0.4c-1.4,0.3-2.8,0.4-4.2-0.2c0,0.3-0.1,0.6-0.1,0.8c0,1.5,0.2,2.9,0.6,4.3c0.3,1.1,0.7,2,1.2,3
			c0.1,0.2,0.3,0.5,0.5,0.6c0.3,0.1,0.7,0,0.9,0c-0.4-0.7-0.9-1.4-1.2-2.1c-0.5-1-0.5-2.1-0.2-3.1c0.5-1.5,1.5-2.6,3-3.2
			c0.1,0,0.3-0.2,0.3-0.3c0.1-1,0.3-1.9,0.8-2.8c0.5-0.9,1.1-1.6,1.8-2.2c0.3-0.3,0.4-0.5,0.4-0.9c0-2,0-3.9,0-5.9
			c0-1.2-0.2-2.4-0.8-3.5c-0.5-0.9-1.2-1.5-2.1-2c-0.8-0.4-1.6-0.5-2.5-0.7c-0.2,0-0.4-0.2-0.5-0.3c-0.3-0.7-0.9-1.3-1.5-1.8
			c-1.3-1.2-2.8-1.7-4.5-1.8c-1,0-2,0.3-2.9,0.7c-1.3,0.6-2.3,1.5-2.9,2.7c-0.6,1-0.9,2.2-0.9,3.4c0,0.7,0,1.3,0,2
			c0,0.1,0,0.2,0,0.3c-0.3-0.1-0.6-0.3-0.9-0.3c-0.9-0.1-1.8,0-2.6,0.4c-1.1,0.6-1.9,1.5-2,2.6C0,46.8,0.1,48.4,0.1,50.1L0.1,50.1z"
			/>
		<path fill="#FFFFFF" d="M24.7,46.9c0.3,0,0.4-0.1,0.6-0.1c0,0,0,0,0.1,0c2-0.7,4-0.6,6,0.3c1.3,0.6,2.3,1.5,3.2,2.6
			c0.9,1.3,1.5,2.7,1.5,4.4c0,2.4,0,4.9,0,7.3c0,0.8,0,1.7,0,2.5c1,0,2,0,3,0c0.3,0,0.5-0.1,0.5-0.4c0-3,0-6,0-9
			c0-1.8-0.3-3.5-1-5.2c-0.2-0.3-0.3-0.7-0.6-1c-0.5-0.7-1.1-1.5-1.7-2.1c-0.5-0.6-1.1-1-1.8-1.4c-0.8-0.5-1.7-0.8-2.5-1.2
			c-1.1-0.5-2.3-0.6-3.5-0.8c-1.2-0.1-2.3,0.2-3.4,0.3c-0.1,0-0.3,0.2-0.3,0.3C24.6,44.6,24.7,45.7,24.7,46.9L24.7,46.9z"/>
		<path fill="#FFFFFF" d="M24.7,42.6c1.3-0.1,2.6-0.4,3.9-0.3c1.3,0,2.6,0.4,3.8,0.7c1.4-3.5-0.5-7.8-4.8-9.1
			c-2.6-0.8-7.1,0.9-7.8,3.2C22.3,37.4,24.8,39.3,24.7,42.6L24.7,42.6z"/>
		<path fill="#FFFFFF" d="M3.9,51.7c-0.4,0-0.8-0.1-1.1,0c-0.8,0.2-1.6,0.5-2.3,0.8C0.2,52.7,0,53,0,53.4c0,3.1,0,6.2,0,9.3
			c0,0.3,0,0.6,0,0.9c0,0.1,0.1,0.3,0.2,0.3c0.5,0,1,0,1.5,0C1.5,59.6,2.4,55.7,3.9,51.7L3.9,51.7z"/>
		<path fill="#FFFFFF" d="M5.6,63.9c3,0,5.9,0,8.9,0c-0.6-0.6-1-1.2-1.5-1.6c-1.2-1.1-2.4-2.1-4-2.5c-0.9-0.2-2.1,0-2.6,1.1
			C6.2,61.2,6,61.6,5.9,62C5.8,62.6,5.7,63.2,5.6,63.9L5.6,63.9z"/>
		<path fill="#FFFFFF" d="M29.6,58.3c-0.2,0.2-0.4,0.3-0.6,0.4c-0.3,0.1-0.7,0-1.1,0c-0.1,0-0.3,0-0.4,0.1c0,0.1,0,0.3,0.1,0.4
			c0.3,0.4,0.8,0.5,1.4,0.5c0.1,0,0.2,0.1,0.3,0.1c0,0.1-0.1,0.2-0.1,0.3c-0.3,0.5-1.4,0.6-2,0.2c-0.1-0.1-0.3-0.1-0.5-0.1
			c0,0.2-0.2,0.4-0.1,0.6c0.2,0.5,0.5,0.9,1,1.1c0.4,0.1,0.8,0.2,1.2,0.3c0.5,0.1,0.6,0.3,0.7,0.7c0,0.3,0,0.6,0,0.9
			c0,0.1,0.1,0.3,0.2,0.3c0.3,0,0.5,0,0.8,0c0-0.4,0-0.7,0-1.1c0-0.6,0.1-0.7,0.7-0.8c0.4,0,0.8-0.1,1.2-0.3c0.5-0.3,1-0.6,1-1.2
			c0-0.1,0-0.3-0.2-0.4c0,0-0.3,0-0.4,0.1c-0.6,0.4-1.6,0.4-2.1-0.1c-0.1-0.1-0.1-0.2-0.2-0.3c0.1,0,0.2,0,0.3-0.1
			c0.4-0.1,0.9-0.2,1.2-0.4c0.1,0,0.2-0.3,0.2-0.6c-0.2,0-0.3-0.1-0.5-0.1c-0.4,0-0.8,0-1.2-0.1c-0.1,0-0.2-0.2-0.3-0.3
			c0.1,0,0.2-0.1,0.3-0.2c0.2-0.1,0.4-0.2,0.6-0.3c0.1-0.1,0.1-0.3,0.2-0.4c-0.1,0-0.3-0.1-0.3-0.1c-0.1,0-0.3,0-0.4,0
			c-0.5,0-0.6-0.1-0.7-0.6c0-0.2-0.1-0.5-0.2-0.7c0,0-0.1,0-0.1,0c0,0.3-0.1,0.5-0.2,0.7c0,0.4-0.2,0.6-0.6,0.6c-0.1,0-0.3,0-0.4,0
			c-0.1,0-0.2,0-0.3,0.1c0.1,0.1,0.1,0.3,0.2,0.3C28.8,57.9,29.1,58.1,29.6,58.3L29.6,58.3z"/>
		<path fill="#FFFFFF" d="M23.1,63.9c0-0.4,0-0.8,0-1.2c0-0.4,0.2-0.6,0.6-0.6c0.3,0,0.6,0,0.9-0.1c0.7-0.1,1.4-0.8,1.4-1.3
			c0-0.2-0.1-0.3-0.2-0.5c-0.1,0-0.3,0.1-0.4,0.2c-0.6,0.3-1.8,0.5-2.2-0.5c0.1,0,0.3,0,0.4-0.1c0.4-0.1,0.8-0.2,1.2-0.3
			c0.1-0.1,0.3-0.4,0.3-0.6c0-0.3-0.3-0.2-0.5-0.1c-0.4,0.1-0.8,0-1.2-0.2c-0.1,0-0.1-0.2-0.2-0.3c0.1,0,0.2-0.1,0.3-0.2
			c0.3-0.1,0.6-0.3,0.8-0.4c0.1,0,0.1-0.2,0.1-0.3c0,0-0.2-0.1-0.3-0.1c-0.2,0-0.3,0-0.5,0c-0.4,0-0.6-0.1-0.7-0.5
			c0-0.3-0.2-0.5-0.3-0.9c-0.1,0.3-0.1,0.4-0.2,0.6c-0.2,0.8-0.3,0.9-1.1,0.8c-0.1,0-0.3,0-0.4,0.1c0.1,0.1,0.2,0.3,0.3,0.4
			c0.3,0.2,0.6,0.3,1,0.5c-0.1,0.1-0.3,0.3-0.4,0.3c-0.4,0.1-0.8,0.1-1.2,0.1c-0.3,0-0.5,0.1-0.4,0.4c0,0.2,0.2,0.3,0.3,0.4
			c0.4,0.1,0.8,0.2,1.2,0.3c0.1,0,0.2,0.1,0.3,0.1c0,0.1-0.1,0.2-0.1,0.3c-0.5,0.7-1.6,0.5-2.1,0.1c-0.3-0.2-0.4-0.1-0.5,0.2
			c0,0.2,0,0.4,0.1,0.6c0.3,0.5,0.7,0.9,1.4,1c0.3,0,0.5,0,0.8,0.1c0.5,0,0.6,0.2,0.6,0.7c0,0.3,0,0.7,0,1.1
			C22.5,63.9,22.8,63.9,23.1,63.9L23.1,63.9z"/>
		<path fill="#FFFFFF" d="M25.8,54.2c-0.8,0.9-1.5,0.9-2.4,0.3c-0.2-0.1-0.4-0.1-0.4,0.2c0,0.2,0,0.5,0.1,0.6c0.4,0.7,1.1,1,1.8,1
			c0.9,0.1,0.9,0.1,0.9,1c0,0.9,0,0.9,0.9,0.8c0,0,0,0,0.1,0c0-0.2,0-0.3,0-0.6c0-1.3,0.1-1.2,1.1-1.2c0,0,0.1,0,0.2,0
			c0.7,0,1.2-0.4,1.5-1c0.1-0.2,0.1-0.4,0.1-0.6c0-0.3-0.2-0.3-0.4-0.2c-0.7,0.6-1.5,0.5-2.2-0.1c-0.1-0.1-0.1-0.2-0.2-0.3
			c0.1,0,0.2-0.1,0.3-0.1c0.4-0.1,0.8-0.2,1.1-0.3c0.3-0.1,0.4-0.3,0.4-0.6c-0.1-0.3-0.4-0.1-0.6-0.1c-0.4,0-0.8-0.1-1.2-0.2
			c-0.1,0-0.1-0.2-0.2-0.3c0.1,0,0.2-0.1,0.3-0.1c0.2-0.1,0.5-0.2,0.7-0.3c0.1-0.1,0.2-0.3,0.2-0.4c-0.1,0-0.3-0.1-0.4-0.1
			c-0.7,0.1-0.9-0.1-1.1-0.7c0-0.2-0.1-0.3-0.1-0.5c0,0-0.1,0-0.1,0c-0.1,0.2-0.2,0.5-0.2,0.7c-0.1,0.3-0.3,0.5-0.6,0.5
			c-0.2,0-0.3,0-0.5,0c-0.1,0-0.2,0-0.3,0.1c0,0.1,0,0.3,0.1,0.3c0.3,0.2,0.6,0.3,0.9,0.4c0.1,0,0.2,0.1,0.3,0.2
			c0,0.1-0.1,0.2-0.2,0.3c-0.4,0.3-0.9,0.3-1.3,0.2c-0.1,0-0.3,0-0.4,0c0,0.2,0,0.3,0.1,0.5c0.3,0.4,0.8,0.5,1.2,0.5
			C25.4,54.2,25.5,54.2,25.8,54.2L25.8,54.2z"/>
		<path fill="#FFFFFF" d="M8.2,50.4c0.6,0.1,1,0.2,1.5,0.3c1.6,0.3,3.2,0.6,4.7,0.9c0.3,0.1,0.5,0,0.5-0.4c0-0.5,0.1-0.9,0.2-1.4
			c0.1-0.5,0.2-0.5-0.3-0.5c-0.9-0.1-1.9-0.4-2.6-0.9c-0.5-0.3-0.9-0.7-1.3-1.1C9.9,48.2,9.1,49.2,8.2,50.4L8.2,50.4z"/>
		<path fill="#FFFFFF" d="M11.7,58.4c0.9-0.1,1.6-0.1,2.4-0.2c0.2,0,0.5,0,0.4-0.3c0-0.1-0.3-0.2-0.4-0.3c-0.9-0.2-1.9-0.3-2.9-0.6
			c-1.7-0.3-3.3-0.6-5-0.9c-0.1,0-0.4,0.1-0.4,0.2c-0.1,0.2-0.2,0.5,0.1,0.6c0.9,0.3,1.8,0.8,2.8,1C9.7,58.3,10.8,58.3,11.7,58.4
			L11.7,58.4z"/>
		<path fill="#FFFFFF" d="M9.4,52.2c0,0-0.1-0.1-0.1-0.1c-0.5,0.3-1,0.6-1.5,0.9c-0.3,0.2-0.6,0.3-0.8-0.3c-0.3,0.9-0.6,1.8-1,2.7
			c0.3,0,0.5,0.1,0.6,0.1c0.4,0.2,0.8,0,1.2-0.2c0.5-0.3,1.1-0.7,1.6-1c0.3-0.2,0.5-0.3,0.7-0.4c0.1-0.1,0.1-0.2,0.2-0.3
			c-0.1,0-0.3,0-0.4,0c0,0-0.1,0-0.1,0.1c-0.5,0.3-0.9,0.6-1.5,0.9c-0.1,0-0.3,0-0.3,0c0,0,0-0.3,0-0.3c0.2-0.2,0.4-0.3,0.6-0.4
			c0.4-0.2,0.8-0.5,1.2-0.7c0,0,0-0.1,0-0.1c-0.1,0-0.3,0.1-0.4,0.2c-0.4,0.2-0.9,0.5-1.3,0.7c-0.2,0.1-0.4,0.2-0.5,0
			c0-0.1,0.1-0.3,0.2-0.4c0.4-0.3,0.9-0.5,1.3-0.7C9.2,52.4,9.3,52.3,9.4,52.2L9.4,52.2z"/>
		<path fill="#FFFFFF" d="M12.9,52.8C12.9,52.8,12.9,52.9,12.9,52.8c0.3,0.6,0.8,1.1,1.2,1.6c0,0.1,0,0.3,0,0.3c-0.1,0-0.3,0-0.3,0
			c-0.4-0.5-0.8-1-1.2-1.5c0-0.1-0.1-0.1-0.2-0.2c0,0-0.1,0-0.1,0.1c0.1,0.1,0.1,0.3,0.2,0.3c0.3,0.5,0.7,0.9,1,1.4
			c0,0.1,0,0.3,0,0.3c-0.1,0-0.3,0-0.3,0c-0.1-0.1-0.2-0.3-0.3-0.4c-0.3-0.3-0.6-0.7-0.9-1.1c-0.1-0.1-0.3,0-0.4-0.1
			c0,0.1,0,0.3,0,0.3c0.6,0.8,1.2,1.6,1.8,2.4c0.3,0.5,0.8,0.5,1.3,0.6c0-0.5,0-0.9,0-1.4c0-0.5,0.1-1-0.4-1.4
			c-0.4-0.3-0.7-0.8-1-1.2C13.1,52.9,13,52.8,12.9,52.8L12.9,52.8z"/>
		<path fill="#FFFFFF" d="M9.7,51.5C9.7,51.5,9.7,51.6,9.7,51.5c0.3,0.7,0.8,1.3,1.2,1.9c0.7-0.4,1.3-0.8,2.1-1.3
			C11.8,51.9,10.8,51.6,9.7,51.5L9.7,51.5z"/>
		<path fill="#FFFFFF" d="M8.1,55.7c0.6,0.1,1,0.1,1.4-0.3c0.3-0.3,0.6-0.4,0.9-0.6c0.1,0,0.3,0,0.4,0c0.3,0.3,0.6,0.7,0.8,1.2
			c0.3,0.4,0.6,0.5,1.1,0.6c-0.6-0.9-1.2-1.7-1.8-2.4c0-0.1-0.3-0.1-0.4,0c-0.4,0.2-0.7,0.4-1.1,0.6C9.1,55.1,8.6,55.4,8.1,55.7
			L8.1,55.7z"/>
		<path fill="#FFFFFF" d="M24.9,32.7c0-0.4-0.3-0.8-0.8-0.8s-0.9,0.4-0.9,0.8c0,0.4,0.4,0.8,0.9,0.8S24.9,33.1,24.9,32.7L24.9,32.7z
			"/>
		<path fill="#FFFFFF" d="M33.1,42.1c0,0.4,0.4,0.7,0.9,0.8c0.3,0,0.9-0.3,0.8-0.8c0-0.4-0.3-0.8-0.8-0.8
			C33.4,41.3,33.1,41.6,33.1,42.1L33.1,42.1z"/>
		<path fill="#FFFFFF" d="M22.2,34.1c0.5,0,0.8-0.3,0.9-0.7c0-0.5-0.3-0.9-0.8-0.9c-0.4,0-0.8,0.4-0.9,0.8
			C21.4,33.7,21.7,34.1,22.2,34.1L22.2,34.1z"/>
		<path fill="#FFFFFF" d="M29.1,33.5c0,0.5,0.3,0.8,0.8,0.8s0.8-0.4,0.8-0.8c0-0.4-0.3-0.8-0.8-0.8C29.4,32.7,29.1,33.1,29.1,33.5
			L29.1,33.5z"/>
		<path fill="#FFFFFF" d="M32.8,35.5c-0.5,0-0.8,0.3-0.8,0.8s0.3,0.8,0.8,0.8c0.5,0,0.8-0.3,0.8-0.8C33.6,35.8,33.3,35.5,32.8,35.5
			L32.8,35.5z"/>
		<path fill="#FFFFFF" d="M34.4,38.1c0-0.5-0.3-0.8-0.8-0.8c-0.5,0-0.8,0.3-0.8,0.8c0,0.5,0.3,0.8,0.8,0.8
			C34.1,38.9,34.4,38.6,34.4,38.1L34.4,38.1z"/>
		<path fill="#FFFFFF" d="M28.9,32.9c0-0.5-0.3-0.8-0.8-0.8c-0.5,0-0.8,0.3-0.8,0.8c0,0.4,0.3,0.8,0.8,0.8
			C28.6,33.7,28.9,33.3,28.9,32.9L28.9,32.9z"/>
		<path fill="#FFFFFF" d="M19.2,36.6c0.5,0,0.8-0.3,0.9-0.8c0-0.4-0.4-0.8-0.8-0.8c-0.4,0-0.8,0.3-0.8,0.8
			C18.4,36.4,18.7,36.6,19.2,36.6L19.2,36.6z"/>
		<path fill="#FFFFFF" d="M34.1,39.3c-0.5,0-0.8,0.3-0.8,0.8c0,0.5,0.3,0.8,0.8,0.8s0.8-0.3,0.8-0.8C34.8,39.6,34.6,39.3,34.1,39.3
			L34.1,39.3z"/>
		<path fill="#FFFFFF" d="M31.5,34c-0.5,0-0.8,0.3-0.8,0.8c0,0.4,0.3,0.7,0.8,0.8c0.5,0,0.8-0.3,0.8-0.8C32.3,34.3,32,34,31.5,34
			L31.5,34z"/>
		<path fill="#FFFFFF" d="M21.3,34.3c0-0.5-0.3-0.8-0.8-0.8c-0.4,0-0.8,0.3-0.7,0.8c0,0.5,0.3,0.8,0.9,0.8
			C21.1,35.2,21.3,34.8,21.3,34.3L21.3,34.3z"/>
		<path fill="#FFFFFF" d="M26.9,32.6c0-0.5-0.3-0.8-0.8-0.8c-0.5,0-0.8,0.3-0.8,0.8s0.3,0.8,0.8,0.8C26.6,33.3,26.9,33,26.9,32.6
			L26.9,32.6z"/>
		<path fill="#FFFFFF" d="M9.2,51.5C9.2,51.4,9.2,51.4,9.2,51.5c-0.4-0.2-0.7-0.3-1.1-0.3c-0.1,0-0.3,0-0.3,0
			c-0.3,0.4-0.5,0.9-0.7,1.3c0,0,0.1,0,0.1,0.1C7.9,52.2,8.5,51.9,9.2,51.5L9.2,51.5z"/>
		<path fill="#FFFFFF" d="M13.3,52.2C13.3,52.2,13.3,52.2,13.3,52.2c0.4,0.6,0.8,1.1,1.3,1.7c0-0.4,0.1-0.8,0.1-1.2
			c0-0.1-0.1-0.3-0.1-0.3C14.1,52.3,13.8,52.2,13.3,52.2L13.3,52.2z"/>
		<path fill="#FFFFFF" d="M27.4,31.1c-0.1,0-0.1,0-0.2,0c-0.1,0.2-0.2,0.3-0.3,0.5c0,0,0.2,0.2,0.3,0.2c0.1,0,0.4-0.2,0.4-0.2
			C27.6,31.4,27.5,31.2,27.4,31.1L27.4,31.1z"/>
		<path fill="#FFFFFF" d="M24.9,30.8c-0.2,0.2-0.3,0.4-0.3,0.5s0.2,0.3,0.3,0.4c0.1-0.1,0.3-0.2,0.3-0.3
			C25.3,31.2,25.1,31.1,24.9,30.8L24.9,30.8z"/>
		<path fill="#FFFFFF" d="M35.1,40.7c-0.2,0.2-0.3,0.3-0.3,0.5s0.2,0.3,0.3,0.4c0.1-0.1,0.3-0.2,0.4-0.3
			C35.5,41.1,35.3,40.9,35.1,40.7L35.1,40.7z"/>
		<path fill="#FFFFFF" d="M23.2,31.8c-0.2-0.1-0.3-0.3-0.5-0.3c-0.1,0-0.2,0.2-0.3,0.3c0.1,0.1,0.2,0.3,0.3,0.3
			C22.9,32.2,23,32,23.2,31.8L23.2,31.8z"/>
		<path fill="#FFFFFF" d="M34.4,42.9c-0.2,0.3-0.3,0.4-0.3,0.6s0.3,0.2,0.4,0.3c0.1-0.1,0.3-0.3,0.3-0.3
			C34.8,43.3,34.6,43.2,34.4,42.9L34.4,42.9z"/>
		<path fill="#FFFFFF" d="M20.6,32.3c-0.2,0.2-0.3,0.4-0.3,0.5c0,0.1,0.2,0.3,0.3,0.4c0.1-0.1,0.3-0.3,0.3-0.4
			C20.9,32.6,20.8,32.5,20.6,32.3L20.6,32.3z"/>
		<path fill="#FFFFFF" d="M34.8,36.7c0,0,0-0.1,0-0.2c-0.1-0.1-0.3-0.2-0.4-0.2s-0.3,0.2-0.3,0.3c0.1,0.1,0.3,0.3,0.4,0.3
			C34.5,37,34.6,36.8,34.8,36.7L34.8,36.7z"/>
		<path fill="#FFFFFF" d="M18.9,34.6c0,0,0.1,0,0.2,0c0.1-0.1,0.3-0.3,0.2-0.4S19.1,34,19,33.9c-0.1,0.1-0.3,0.3-0.3,0.4
			C18.7,34.3,18.8,34.5,18.9,34.6L18.9,34.6z"/>
		<path fill="#FFFFFF" d="M31,33.1c0,0,0,0.1,0,0.2c0.1,0.1,0.3,0.3,0.4,0.3c0.1,0,0.3-0.2,0.3-0.3c0-0.1-0.2-0.3-0.3-0.3
			C31.3,32.8,31.2,33,31,33.1L31,33.1z"/>
		<path fill="#FFFFFF" d="M35.1,39.2c0.2-0.3,0.3-0.4,0.3-0.5s-0.2-0.3-0.3-0.3c-0.1,0.1-0.3,0.2-0.3,0.4
			C34.7,38.8,34.9,39,35.1,39.2L35.1,39.2z"/>
		<path fill="#FFFFFF" d="M30,32c-0.3-0.2-0.4-0.3-0.5-0.3c-0.1,0-0.3,0.2-0.3,0.3c0,0.1,0.2,0.3,0.3,0.3C29.6,32.3,29.8,32.2,30,32
			L30,32z"/>
		<path fill="#FFFFFF" d="M33.1,35.1c0,0,0.1,0,0.2,0c0.1-0.1,0.3-0.3,0.3-0.4s-0.2-0.3-0.3-0.4c-0.2,0.1-0.3,0.2-0.4,0.3
			C32.8,34.8,33,34.9,33.1,35.1L33.1,35.1z"/>
		<path fill="#BD1D2D" d="M0.1,50.1c0-1.7-0.1-3.4,0-5c0.1-1.2,0.9-2,2-2.6C3,42,3.9,42,4.8,42.2c0.3,0,0.6,0.2,0.9,0.3
			c0-0.1,0-0.3,0-0.3c0-0.7,0-1.3,0-2c0-1.2,0.3-2.4,0.9-3.4c0.7-1.2,1.7-2.1,2.9-2.7c0.9-0.4,1.9-0.7,2.9-0.7
			c1.7,0,3.2,0.6,4.5,1.8c0.6,0.6,1.1,1.1,1.5,1.8c0.1,0.2,0.3,0.3,0.5,0.3c0.9,0.1,1.7,0.2,2.5,0.7c0.9,0.5,1.6,1.1,2.1,2
			c0.6,1.1,0.8,2.3,0.8,3.5c0,2,0,3.9,0,5.9c0,0.4-0.1,0.6-0.4,0.9c-0.8,0.6-1.4,1.3-1.8,2.2c-0.5,0.9-0.7,1.8-0.8,2.8
			c0,0.1-0.1,0.3-0.3,0.3c-1.5,0.6-2.6,1.7-3,3.2c-0.3,1-0.3,2.1,0.2,3.1c0.4,0.7,0.8,1.4,1.2,2.1c-0.3,0-0.6,0.1-0.9,0
			c-0.2-0.1-0.4-0.3-0.5-0.6c-0.5-1-0.9-2-1.2-3c-0.4-1.4-0.6-2.8-0.6-4.3c0-0.3,0.1-0.5,0.1-0.8c1.5,0.5,2.8,0.5,4.2,0.2
			c0.2,0,0.3-0.1,0.3-0.4c0-0.4,0-0.9-0.1-1.3c0-0.1-0.2-0.3-0.3-0.3c-1.3-0.1-2.3-0.7-3.2-1.7c-0.5-0.6-0.9-1.2-0.9-2
			c0-0.3,0.1-0.7,0.2-1.1c0.1-0.2,0.2-0.3,0.5-0.1c0.6,0.5,1.3,0.9,2,1.2c0.2,0.1,0.4,0.2,0.6,0.3c0.9,0.4,1.7,0.1,2.6-0.2
			c0.2-0.1,0.3-0.1,0.5-0.1c0.3,0,0.3-0.2,0.3-0.4c-0.2-0.6-0.3-1.2-0.5-1.8c0-0.2-0.1-0.4,0-0.6c0.2-0.5,0.2-1.1-0.1-1.5
			c-0.3-0.5-0.6-1-1-1.5c-0.2-0.2-0.3-0.4-0.2-0.7c0.3-0.9-0.1-1.5-0.9-1.6c-0.3,0-0.6,0-0.9,0.1c-0.5,0.2-0.9,0-1.4-0.1
			c-0.7-0.1-1.4-0.4-2-0.4c-1.1,0-2.2,0-3.3,0.2c-1,0.1-1.9,0.5-2.7,1.1c-0.8,0.6-1.6,1.1-2.3,1.8c-0.6,0.6-1.2,1.4-1.7,2.1
			c-0.4,0.5-0.6,1.1-1,1.6C5,48,4.8,48.1,4.6,48.1c-1,0.1-2,0.3-2.9,0.8c-0.5,0.3-0.9,0.7-1.3,1.1C0.3,50,0.2,50.1,0.1,50.1
			L0.1,50.1z"/>
		<path d="M24.7,46.9c0-1.2,0-2.3,0-3.5c0-0.1,0.2-0.3,0.3-0.3c1.2-0.2,2.3-0.5,3.4-0.3c1.2,0.1,2.4,0.3,3.5,0.8
			c0.9,0.4,1.7,0.7,2.5,1.2c0.6,0.4,1.2,0.9,1.8,1.4c0.6,0.6,1.1,1.4,1.7,2.1c0.2,0.3,0.4,0.6,0.6,1c0.8,1.7,1.1,3.4,1,5.2
			c0,3,0,6,0,9c0,0.4-0.1,0.5-0.5,0.4c-1,0-2,0-3,0c0-0.9,0-1.7,0-2.5c0-2.4,0-4.9,0-7.3c0-1.6-0.6-3-1.5-4.4
			c-0.9-1.2-1.9-2-3.2-2.6c-2-0.9-3.9-1-6-0.3c0,0,0,0-0.1,0C25.1,46.9,24.9,46.9,24.7,46.9L24.7,46.9z"/>
		<path fill="#FFF200" d="M24.7,42.6c0-3.2-2.4-5.2-4.8-5.6c0.7-2.2,5.2-4,7.8-3.2c4.3,1.3,6.2,5.6,4.8,9.1
			c-1.3-0.3-2.6-0.6-3.8-0.7C27.3,42.2,26.1,42.5,24.7,42.6L24.7,42.6z"/>
		<path fill="#BD1D2D" d="M3.9,51.7c-1.5,3.9-2.5,7.9-2.2,12.2c-0.5,0-1,0-1.5,0c0,0-0.2-0.2-0.2-0.3c0-0.3,0-0.6,0-0.9
			c0-3.1,0-6.2,0-9.3c0-0.5,0.2-0.7,0.5-0.9c0.8-0.3,1.5-0.6,2.3-0.8C3.2,51.7,3.5,51.7,3.9,51.7L3.9,51.7z"/>
		<path fill="#BD1D2D" d="M5.6,63.9c0.1-0.6,0.2-1.3,0.3-1.9c0.1-0.4,0.3-0.8,0.5-1.2c0.6-1.1,1.7-1.3,2.6-1.1
			c1.6,0.4,2.8,1.4,4,2.5c0.5,0.5,0.9,1,1.5,1.6C11.5,63.9,8.6,63.9,5.6,63.9L5.6,63.9z"/>
		<path d="M29.6,58.3c-0.4-0.2-0.8-0.3-1.1-0.6c-0.1,0-0.1-0.2-0.2-0.3c0.1,0,0.2-0.1,0.3-0.1s0.3,0,0.4,0c0.4,0,0.6-0.2,0.7-0.6
			c0-0.3,0.1-0.5,0.2-0.7c0,0,0.1,0,0.1,0c0,0.2,0.1,0.5,0.2,0.7c0.1,0.5,0.2,0.6,0.7,0.6c0.1,0,0.3,0,0.4,0c0.1,0,0.3,0,0.3,0.1
			c0,0.1-0.1,0.3-0.2,0.4c-0.2,0.1-0.4,0.2-0.6,0.3c-0.1,0-0.2,0.1-0.3,0.2c0.1,0.1,0.2,0.3,0.3,0.3c0.4,0.1,0.8,0.1,1.2,0.1
			c0.2,0,0.3,0,0.5,0.1c-0.1,0.2-0.1,0.5-0.2,0.6c-0.4,0.2-0.8,0.3-1.2,0.4c-0.1,0-0.2,0-0.3,0.1c0,0.1,0.1,0.3,0.2,0.3
			c0.4,0.5,1.5,0.5,2.1,0.1c0.1-0.1,0.3-0.2,0.4-0.1c0.1,0.1,0.2,0.3,0.2,0.4c-0.1,0.6-0.5,1-1,1.2c-0.3,0.2-0.8,0.2-1.2,0.3
			c-0.6,0.1-0.7,0.2-0.7,0.8c0,0.3,0,0.7,0,1.1c-0.3,0-0.6,0-0.8,0c-0.1,0-0.2-0.2-0.2-0.3c0-0.3,0-0.6,0-0.9c0-0.5-0.2-0.6-0.7-0.7
			c-0.4,0-0.9-0.1-1.2-0.3c-0.5-0.2-0.8-0.6-1-1.1c0-0.2,0-0.4,0.1-0.6c0.2,0,0.3,0,0.5,0.1c0.6,0.4,1.7,0.3,2-0.2
			c0-0.1,0.1-0.2,0.1-0.3c-0.1,0-0.2-0.1-0.3-0.1c-0.5,0-1-0.1-1.4-0.5c-0.1-0.1-0.1-0.3-0.1-0.4c0-0.1,0.3-0.1,0.4-0.1
			c0.3,0,0.7,0,1.1,0C29.2,58.6,29.3,58.4,29.6,58.3L29.6,58.3z"/>
		<path d="M23.1,63.9c-0.3,0-0.6,0-1,0c0-0.4,0-0.7,0-1.1c0-0.5-0.1-0.6-0.6-0.7c-0.3,0-0.5,0-0.8-0.1c-0.6-0.1-1-0.5-1.4-1
			c-0.1-0.1-0.1-0.4-0.1-0.6c0-0.3,0.2-0.4,0.5-0.2c0.5,0.4,1.6,0.6,2.1-0.1c0-0.1,0.1-0.2,0.1-0.3c-0.1,0-0.2-0.1-0.3-0.1
			c-0.4-0.1-0.8-0.2-1.2-0.3c-0.1,0-0.3-0.2-0.3-0.4c-0.1-0.3,0.1-0.4,0.4-0.4c0.4,0,0.8,0,1.2-0.1c0.1,0,0.3-0.2,0.4-0.3
			c-0.4-0.2-0.7-0.3-1-0.5c-0.1-0.1-0.2-0.3-0.3-0.4c0.1,0,0.3-0.1,0.4-0.1c0.8,0,0.9,0,1.1-0.8c0-0.2,0.1-0.3,0.2-0.6
			c0.1,0.3,0.2,0.6,0.3,0.9c0.1,0.4,0.3,0.6,0.7,0.5c0.2,0,0.3,0,0.5,0c0.1,0,0.3,0,0.3,0.1s0,0.3-0.1,0.3c-0.3,0.2-0.6,0.3-0.8,0.4
			c-0.1,0-0.2,0.1-0.3,0.2c0.1,0.1,0.1,0.2,0.2,0.3c0.4,0.2,0.8,0.3,1.2,0.2c0.2,0,0.5-0.2,0.5,0.1c0,0.2-0.1,0.5-0.3,0.6
			c-0.3,0.2-0.8,0.2-1.2,0.3c-0.1,0-0.3,0-0.4,0.1c0.4,0.9,1.7,0.8,2.2,0.5c0.1-0.1,0.3-0.1,0.4-0.2c0,0.2,0.2,0.3,0.2,0.5
			c0,0.6-0.7,1.2-1.4,1.3c-0.3,0.1-0.6,0.1-0.9,0.1c-0.4,0-0.6,0.2-0.6,0.6C23.1,63,23.1,63.4,23.1,63.9L23.1,63.9z"/>
		<path d="M25.8,54.2c-0.2,0-0.4,0-0.5-0.1c-0.5,0-0.9-0.1-1.2-0.5c-0.1-0.1-0.1-0.3-0.1-0.5c0.1,0,0.3-0.1,0.4,0
			c0.5,0.1,0.9,0,1.3-0.2c0.1,0,0.1-0.2,0.2-0.3c-0.1,0-0.2-0.1-0.3-0.2c-0.3-0.1-0.6-0.3-0.9-0.4c-0.1,0-0.1-0.2-0.1-0.3
			c0.1,0,0.2-0.1,0.3-0.1c0.2,0,0.3,0,0.5,0c0.3,0,0.6-0.1,0.6-0.5c0-0.2,0.1-0.5,0.2-0.7c0,0,0.1,0,0.1,0c0,0.2,0.1,0.3,0.1,0.5
			c0.2,0.6,0.4,0.8,1.1,0.7c0.1,0,0.3,0,0.4,0.1c-0.1,0.1-0.1,0.3-0.2,0.4c-0.2,0.1-0.5,0.2-0.7,0.3c-0.1,0-0.2,0.1-0.3,0.1
			c0,0.1,0.1,0.3,0.2,0.3c0.4,0.1,0.8,0.2,1.2,0.2c0.2,0,0.5-0.2,0.6,0.1c0.1,0.3-0.1,0.5-0.4,0.6c-0.4,0.1-0.8,0.2-1.1,0.3
			c-0.1,0-0.2,0.1-0.3,0.1c0,0.1,0.1,0.2,0.2,0.3c0.6,0.6,1.5,0.6,2.2,0.1c0.3-0.2,0.4-0.1,0.4,0.2c0,0.2,0,0.5-0.1,0.6
			c-0.3,0.6-0.8,0.9-1.5,1c0,0-0.1,0-0.2,0c-1,0.1-1.1,0-1.1,1.2c0,0.2,0,0.4,0,0.6c0,0-0.1,0-0.1,0c-0.9,0-0.9,0-0.9-0.8
			c0-0.9,0-0.9-0.9-1c-0.8,0-1.5-0.3-1.8-1c-0.1-0.2-0.1-0.4-0.1-0.6c0-0.3,0.2-0.3,0.4-0.2C24.3,55.2,25,55.1,25.8,54.2L25.8,54.2z
			"/>
		<path d="M8.2,50.4c0.8-1.2,1.7-2.3,2.6-3.2c0.5,0.4,0.9,0.8,1.3,1.1c0.8,0.5,1.7,0.8,2.6,0.9c0.5,0,0.4,0,0.3,0.5
			c-0.1,0.5-0.2,0.9-0.2,1.4c0,0.3-0.1,0.5-0.5,0.4c-1.6-0.3-3.2-0.6-4.7-0.9C9.3,50.6,8.8,50.5,8.2,50.4L8.2,50.4z"/>
		<path d="M11.7,58.4c-0.9-0.1-2-0.2-3-0.4c-0.9-0.2-1.8-0.6-2.8-1c-0.3-0.1-0.2-0.4-0.1-0.6c0-0.1,0.3-0.2,0.4-0.2
			c1.7,0.3,3.3,0.6,5,0.9c0.9,0.2,1.9,0.3,2.9,0.6c0.1,0,0.3,0.1,0.4,0.3c0.1,0.3-0.2,0.3-0.4,0.3C13.4,58.3,12.6,58.3,11.7,58.4
			L11.7,58.4z"/>
		<path d="M9.4,52.2c-0.1,0.1-0.2,0.2-0.3,0.3c-0.4,0.3-0.9,0.5-1.3,0.7c-0.1,0.1-0.2,0.3-0.2,0.4c0.1,0.3,0.3,0.2,0.5,0
			c0.4-0.3,0.9-0.5,1.3-0.7c0.1-0.1,0.3-0.1,0.4-0.2c0,0,0,0.1,0,0.1c-0.4,0.2-0.8,0.5-1.2,0.7c-0.2,0.1-0.5,0.3-0.6,0.4
			c-0.1,0-0.1,0.3,0,0.3c0.1,0.1,0.3,0.1,0.3,0c0.5-0.3,0.9-0.6,1.5-0.9c0,0,0.1-0.1,0.1-0.1c0.1,0,0.3,0,0.4,0
			c0,0.1-0.1,0.3-0.2,0.3c-0.2,0.2-0.5,0.3-0.7,0.4c-0.5,0.3-1,0.7-1.6,1c-0.4,0.2-0.7,0.4-1.2,0.2c-0.2-0.1-0.4-0.1-0.6-0.1
			c0.3-0.9,0.6-1.8,1-2.7c0.2,0.5,0.5,0.4,0.8,0.3c0.5-0.3,1-0.6,1.5-0.9C9.4,52.1,9.4,52.1,9.4,52.2L9.4,52.2z"/>
		<path d="M12.9,52.8c0.1,0,0.2,0,0.3,0.1c0.3,0.4,0.6,0.9,1,1.2c0.5,0.4,0.4,0.9,0.4,1.4s0,0.9,0,1.4c-0.6,0-1-0.1-1.3-0.6
			c-0.6-0.8-1.2-1.6-1.8-2.4c0-0.1,0-0.2,0-0.3c0.1,0,0.3,0,0.4,0.1c0.3,0.3,0.6,0.7,0.9,1.1c0.1,0.1,0.2,0.3,0.3,0.4
			c0.1,0.1,0.3,0.1,0.3,0c0.1,0,0.1-0.3,0-0.3c-0.3-0.5-0.7-0.9-1-1.4c-0.1-0.1-0.1-0.3-0.2-0.3c0,0,0.1,0,0.1-0.1
			c0.1,0,0.1,0.1,0.2,0.2c0.4,0.5,0.8,1,1.2,1.5c0,0.1,0.3,0.1,0.3,0c0.1,0,0.1-0.3,0-0.3C13.7,53.9,13.3,53.4,12.9,52.8
			C12.9,52.9,12.9,52.8,12.9,52.8L12.9,52.8z"/>
		<path d="M9.7,51.5c1.1,0.2,2.1,0.4,3.3,0.6c-0.7,0.5-1.4,0.9-2.1,1.3c-0.4-0.6-0.9-1.2-1.3-1.8C9.7,51.5,9.7,51.5,9.7,51.5
			L9.7,51.5z"/>
		<path d="M8.1,55.7c0.5-0.3,0.9-0.6,1.4-0.9c0.3-0.2,0.7-0.4,1.1-0.6c0.1,0,0.3,0,0.4,0c0.6,0.8,1.2,1.5,1.8,2.4
			c-0.5-0.1-0.9-0.2-1.1-0.6c-0.2-0.4-0.5-0.8-0.8-1.2c0-0.1-0.3-0.1-0.4,0c-0.3,0.2-0.7,0.3-0.9,0.6C9.1,55.9,8.7,55.9,8.1,55.7
			L8.1,55.7z"/>
		<path fill="#FFF200" d="M24.9,32.7c0,0.4-0.3,0.8-0.8,0.8s-0.9-0.4-0.9-0.8c0-0.4,0.4-0.8,0.9-0.8S24.9,32.3,24.9,32.7L24.9,32.7z
			"/>
		<path fill="#FFF200" d="M33.1,42.1c0-0.5,0.3-0.8,0.9-0.8c0.5,0,0.8,0.3,0.8,0.8c0,0.4-0.5,0.8-0.8,0.8
			C33.4,42.8,33.1,42.5,33.1,42.1L33.1,42.1z"/>
		<path fill="#FFF200" d="M22.2,34.1c-0.4,0-0.8-0.4-0.8-0.8c0-0.4,0.5-0.8,0.9-0.8c0.4,0,0.8,0.4,0.8,0.9
			C23,33.8,22.6,34.1,22.2,34.1L22.2,34.1z"/>
		<path fill="#FFF200" d="M29.1,33.5c0-0.5,0.3-0.8,0.8-0.8s0.8,0.4,0.8,0.8c0,0.4-0.4,0.8-0.8,0.8C29.5,34.3,29.1,34,29.1,33.5
			L29.1,33.5z"/>
		<path fill="#FFF200" d="M32.8,35.5c0.5,0,0.8,0.3,0.8,0.8c0,0.5-0.3,0.8-0.8,0.8c-0.5,0-0.8-0.3-0.8-0.8
			C32,35.8,32.3,35.5,32.8,35.5L32.8,35.5z"/>
		<path fill="#FFF200" d="M34.4,38.1c0,0.5-0.3,0.7-0.8,0.7c-0.5,0-0.8-0.3-0.8-0.8s0.3-0.8,0.8-0.8C34.2,37.4,34.4,37.6,34.4,38.1
			L34.4,38.1z"/>
		<path fill="#FFF200" d="M28.9,32.9c0,0.5-0.3,0.8-0.8,0.8c-0.4,0-0.8-0.4-0.8-0.8c0-0.4,0.3-0.7,0.8-0.8
			C28.6,32,28.9,32.3,28.9,32.9L28.9,32.9z"/>
		<path fill="#FFF200" d="M19.2,36.6c-0.5,0-0.8-0.3-0.8-0.8c0-0.4,0.4-0.8,0.8-0.8c0.4,0,0.8,0.4,0.8,0.8
			C20,36.3,19.6,36.6,19.2,36.6L19.2,36.6z"/>
		<path fill="#FFF200" d="M34.1,39.3c0.5,0,0.8,0.3,0.8,0.8c0,0.5-0.3,0.8-0.8,0.8c-0.5,0-0.8-0.3-0.8-0.8
			C33.3,39.6,33.6,39.3,34.1,39.3L34.1,39.3z"/>
		<path fill="#FFF200" d="M31.5,34c0.5,0,0.8,0.3,0.8,0.8c0,0.4-0.4,0.8-0.8,0.8c-0.5,0-0.8-0.3-0.8-0.8C30.7,34.3,31,34,31.5,34
			L31.5,34z"/>
		<path fill="#FFF200" d="M21.3,34.3c0,0.5-0.3,0.8-0.7,0.8c-0.5,0-0.9-0.3-0.9-0.8c0-0.4,0.3-0.8,0.7-0.8
			C20.9,33.6,21.3,33.9,21.3,34.3L21.3,34.3z"/>
		<path fill="#FFF200" d="M26.9,32.6c0,0.5-0.3,0.7-0.8,0.7s-0.8-0.3-0.8-0.8s0.3-0.8,0.8-0.8C26.6,31.7,26.9,32,26.9,32.6
			L26.9,32.6z"/>
		<path d="M9.2,51.5c-0.6,0.4-1.3,0.7-2,1.1c0,0-0.1,0-0.1-0.1c0.2-0.4,0.4-0.9,0.7-1.3c0,0,0.2-0.1,0.3,0
			C8.5,51.3,8.8,51.3,9.2,51.5C9.2,51.4,9.2,51.4,9.2,51.5L9.2,51.5z"/>
		<path d="M13.3,52.2c0.4,0.1,0.8,0.1,1.2,0.3c0.1,0,0.1,0.2,0.1,0.3c0,0.4,0,0.7-0.1,1.2c-0.5-0.6-0.9-1.1-1.3-1.6
			C13.3,52.2,13.3,52.2,13.3,52.2L13.3,52.2z"/>
		<path fill="#FFF200" d="M27.4,31.1c0.1,0.2,0.2,0.3,0.3,0.5c0,0-0.3,0.2-0.4,0.2c-0.1,0-0.3-0.2-0.3-0.2c0-0.2,0.2-0.3,0.3-0.5
			C27.2,31.1,27.3,31.1,27.4,31.1L27.4,31.1z"/>
		<path fill="#FFF200" d="M24.9,30.8c0.2,0.3,0.3,0.4,0.3,0.5s-0.2,0.3-0.3,0.3c-0.1-0.1-0.3-0.3-0.3-0.4
			C24.6,31.2,24.8,31.1,24.9,30.8L24.9,30.8z"/>
		<path fill="#FFF200" d="M35.1,40.7c0.2,0.3,0.3,0.4,0.3,0.5c0,0.1-0.3,0.3-0.4,0.3c-0.1-0.1-0.3-0.3-0.3-0.4
			C34.8,41,35,40.9,35.1,40.7L35.1,40.7z"/>
		<path fill="#FFF200" d="M23.2,31.8c-0.2,0.2-0.3,0.3-0.4,0.3c-0.1,0-0.3-0.2-0.4-0.3c0.1-0.1,0.2-0.3,0.3-0.3
			C22.8,31.5,23,31.7,23.2,31.8L23.2,31.8z"/>
		<path fill="#FFF200" d="M34.4,42.9c0.2,0.3,0.3,0.4,0.3,0.5c0,0.1-0.2,0.3-0.3,0.3c-0.1-0.1-0.3-0.2-0.4-0.3
			C34.1,43.4,34.3,43.2,34.4,42.9L34.4,42.9z"/>
		<path fill="#FFF200" d="M20.6,32.3c0.1,0.3,0.3,0.4,0.3,0.5c0,0.1-0.2,0.3-0.3,0.4c-0.1-0.1-0.3-0.3-0.3-0.4
			C20.2,32.6,20.4,32.5,20.6,32.3L20.6,32.3z"/>
		<path fill="#FFF200" d="M34.8,36.7c-0.1,0.1-0.3,0.3-0.4,0.3c-0.2,0-0.3-0.2-0.4-0.3c0.1-0.1,0.2-0.3,0.3-0.3
			c0.1,0,0.3,0.1,0.4,0.2C34.8,36.6,34.8,36.7,34.8,36.7L34.8,36.7z"/>
		<path fill="#FFF200" d="M18.9,34.6c-0.1-0.1-0.2-0.3-0.2-0.4c0-0.1,0.2-0.3,0.3-0.4c0.1,0.1,0.3,0.3,0.3,0.4
			c0,0.1-0.1,0.3-0.2,0.4C19,34.6,19,34.6,18.9,34.6L18.9,34.6z"/>
		<path fill="#FFF200" d="M31,33.1c0.1-0.1,0.3-0.3,0.4-0.3s0.3,0.2,0.3,0.3s-0.2,0.3-0.3,0.3c-0.1,0-0.3-0.2-0.4-0.3
			C31,33.2,31,33.1,31,33.1L31,33.1z"/>
		<path fill="#FFF200" d="M35.1,39.2c-0.2-0.3-0.3-0.4-0.3-0.5s0.2-0.3,0.3-0.4c0.1,0.1,0.3,0.2,0.3,0.3
			C35.4,38.8,35.2,39,35.1,39.2L35.1,39.2z"/>
		<path fill="#FFF200" d="M30,32c-0.3,0.1-0.4,0.3-0.6,0.3c-0.1,0-0.3-0.2-0.3-0.3s0.2-0.3,0.3-0.3C29.6,31.7,29.8,31.9,30,32L30,32
			z"/>
		<path fill="#FFF200" d="M33.1,35.1c-0.1-0.1-0.2-0.3-0.2-0.4s0.2-0.2,0.3-0.3c0.1,0.1,0.3,0.3,0.3,0.4s-0.2,0.3-0.3,0.4
			C33.2,35.1,33.1,35.1,33.1,35.1L33.1,35.1z"/>
	</g>
</g>
</svg>
