<?xml version="1.0" encoding="utf-8"?>
<!DOCTYPE svg PUBLIC "-//W3C//DTD SVG 1.1//EN" "http://www.w3.org/Graphics/SVG/1.1/DTD/svg11.dtd">
<svg version="1.1" id="Layer_1" xmlns="http://www.w3.org/2000/svg" xmlns:xlink="http://www.w3.org/1999/xlink" x="0px" y="0px"
	 viewBox="0 0 123 95" enable-background="new 0 0 123 95" xml:space="preserve">
<g>
	<g>
		<polygon fill="#939597" points="30.5,58.7 32.4,58.7 32.4,59.2 31.1,59.2 31.1,62.1 30.5,62.1 30.5,58.7 		"/>
		<path fill="#939597" d="M33.9,63.4v-4.7h0.5v0.4c0.1-0.2,0.3-0.3,0.4-0.4c0.2-0.1,0.3-0.1,0.6-0.1c0.3,0,0.5,0.1,0.8,0.2
			c0.2,0.2,0.4,0.4,0.5,0.6c0.1,0.3,0.2,0.6,0.2,0.9c0,0.3-0.1,0.7-0.2,0.9c-0.1,0.3-0.3,0.5-0.5,0.6c-0.2,0.1-0.5,0.2-0.8,0.2
			c-0.2,0-0.4,0-0.5-0.1c-0.2-0.1-0.3-0.2-0.4-0.3v1.7H33.9L33.9,63.4z M34.4,60.4L34.4,60.4c0,0.4,0.1,0.8,0.3,1
			c0.2,0.2,0.4,0.3,0.6,0.3c0.3,0,0.5-0.1,0.7-0.3c0.2-0.2,0.3-0.6,0.3-1c0-0.4-0.1-0.8-0.3-1c-0.2-0.2-0.4-0.3-0.6-0.3
			c-0.2,0-0.5,0.1-0.7,0.3C34.5,59.6,34.4,60,34.4,60.4L34.4,60.4z"/>
		<path fill="#939597" d="M38.4,63.4l-0.1-0.5c0.1,0,0.2,0.1,0.3,0.1c0.1,0,0.2,0,0.3-0.1c0.1,0,0.1-0.1,0.2-0.2
			c0-0.1,0.1-0.2,0.2-0.4c0,0,0-0.1,0.1-0.1l-1.3-3.4h0.6l0.7,2c0.1,0.3,0.2,0.5,0.2,0.8c0.1-0.3,0.1-0.5,0.2-0.8l0.7-2h0.6L40,62.2
			c-0.1,0.4-0.2,0.6-0.3,0.8c-0.1,0.2-0.2,0.3-0.4,0.4c-0.1,0.1-0.3,0.1-0.5,0.1C38.7,63.5,38.6,63.5,38.4,63.4L38.4,63.4z"/>
		<polygon fill="#939597" points="42.8,58.7 45.5,58.7 45.5,62.1 44.9,62.1 44.9,59.2 43.3,59.2 43.3,62.1 42.8,62.1 42.8,58.7 		
			"/>
		<polygon fill="#939597" points="47.3,58.7 50,58.7 50,62.1 49.4,62.1 49.4,59.2 47.9,59.2 47.9,62.1 47.3,62.1 47.3,58.7 		"/>
		<path fill="#939597" d="M54.1,61.7c-0.2,0.2-0.4,0.3-0.6,0.4c-0.2,0.1-0.4,0.1-0.6,0.1c-0.4,0-0.7-0.1-0.9-0.3
			c-0.2-0.2-0.3-0.4-0.3-0.7c0-0.2,0-0.3,0.1-0.5c0.1-0.1,0.2-0.2,0.3-0.3c0.1-0.1,0.3-0.1,0.4-0.2c0.1,0,0.3-0.1,0.5-0.1
			c0.5-0.1,0.8-0.1,1-0.2c0-0.1,0-0.1,0-0.2c0-0.2-0.1-0.4-0.2-0.5c-0.1-0.1-0.4-0.2-0.7-0.2c-0.3,0-0.5,0-0.6,0.1
			c-0.1,0.1-0.2,0.3-0.3,0.5l-0.6-0.1c0.1-0.2,0.1-0.4,0.3-0.6c0.1-0.1,0.3-0.3,0.5-0.3c0.2-0.1,0.5-0.1,0.8-0.1
			c0.3,0,0.5,0,0.7,0.1c0.2,0.1,0.3,0.2,0.4,0.3c0.1,0.1,0.1,0.2,0.2,0.4c0,0.1,0,0.3,0,0.5v0.8c0,0.5,0,0.9,0,1
			c0,0.1,0.1,0.3,0.1,0.4h-0.6C54.2,62,54.1,61.8,54.1,61.7L54.1,61.7z M54.1,60.4L54.1,60.4c-0.2,0.1-0.5,0.2-0.9,0.2
			c-0.2,0-0.4,0.1-0.5,0.1c-0.1,0-0.2,0.1-0.2,0.2c-0.1,0.1-0.1,0.2-0.1,0.3c0,0.2,0.1,0.3,0.2,0.4c0.1,0.1,0.3,0.2,0.5,0.2
			c0.2,0,0.4,0,0.6-0.1c0.2-0.1,0.3-0.2,0.4-0.4c0.1-0.1,0.1-0.3,0.1-0.6V60.4L54.1,60.4z"/>
		<path fill="#939597" d="M59.4,58.7h0.6v1.5c0.2,0,0.3,0,0.4-0.1c0.1-0.1,0.2-0.3,0.3-0.6c0.1-0.3,0.2-0.4,0.3-0.5
			c0.1-0.1,0.2-0.1,0.2-0.2c0.1,0,0.2,0,0.4,0h0.1v0.5l-0.2,0c-0.2,0-0.2,0-0.3,0.1c0,0-0.1,0.2-0.2,0.4c-0.1,0.2-0.2,0.4-0.2,0.5
			c-0.1,0.1-0.2,0.2-0.3,0.2c0.2,0.1,0.5,0.3,0.7,0.7l0.6,1.1h-0.6L60.6,61c-0.1-0.2-0.2-0.4-0.3-0.4c-0.1-0.1-0.2-0.1-0.3-0.1v1.6
			h-0.6V58.7L59.4,58.7z"/>
		<path fill="#939597" d="M63.1,60.4c0-0.6,0.2-1.1,0.5-1.4c0.3-0.3,0.7-0.4,1.1-0.4c0.5,0,0.9,0.2,1.2,0.5c0.3,0.3,0.4,0.7,0.4,1.3
			c0,0.4-0.1,0.8-0.2,1c-0.1,0.3-0.3,0.4-0.6,0.6c-0.3,0.1-0.5,0.2-0.8,0.2c-0.5,0-0.9-0.2-1.2-0.5C63.2,61.4,63.1,61,63.1,60.4
			L63.1,60.4z M63.7,60.4L63.7,60.4c0,0.4,0.1,0.8,0.3,1c0.2,0.2,0.4,0.3,0.7,0.3c0.3,0,0.5-0.1,0.7-0.3c0.2-0.2,0.3-0.6,0.3-1
			c0-0.4-0.1-0.7-0.3-1c-0.2-0.2-0.4-0.3-0.7-0.3c-0.3,0-0.5,0.1-0.7,0.3C63.8,59.6,63.7,59.9,63.7,60.4L63.7,60.4z"/>
		<polygon fill="#939597" points="68,58.7 68.9,58.7 69.8,61.4 70.8,58.7 71.6,58.7 71.6,62.1 71,62.1 71,59.3 70,62.1 69.5,62.1 
			68.6,59.2 68.6,62.1 68,62.1 68,58.7 		"/>
		<polygon fill="#939597" points="73.5,58.7 76.2,58.7 76.2,62.1 75.6,62.1 75.6,59.2 74.1,59.2 74.1,62.1 73.5,62.1 73.5,58.7 		
			"/>
		<path fill="#939597" d="M80.3,61.7c-0.2,0.2-0.4,0.3-0.6,0.4c-0.2,0.1-0.4,0.1-0.6,0.1c-0.4,0-0.7-0.1-0.9-0.3
			c-0.2-0.2-0.3-0.4-0.3-0.7c0-0.2,0-0.3,0.1-0.5c0.1-0.1,0.2-0.2,0.3-0.3c0.1-0.1,0.3-0.1,0.4-0.2c0.1,0,0.3-0.1,0.5-0.1
			c0.5-0.1,0.8-0.1,1-0.2c0-0.1,0-0.1,0-0.2c0-0.2-0.1-0.4-0.2-0.5c-0.1-0.1-0.4-0.2-0.7-0.2c-0.3,0-0.5,0-0.6,0.1
			c-0.1,0.1-0.2,0.3-0.3,0.5L78,59.7c0.1-0.2,0.1-0.4,0.3-0.6c0.1-0.1,0.3-0.3,0.5-0.3c0.2-0.1,0.5-0.1,0.8-0.1c0.3,0,0.5,0,0.7,0.1
			c0.2,0.1,0.3,0.2,0.4,0.3c0.1,0.1,0.1,0.2,0.2,0.4c0,0.1,0,0.3,0,0.5v0.8c0,0.5,0,0.9,0,1c0,0.1,0.1,0.3,0.1,0.4h-0.6
			C80.4,62,80.3,61.8,80.3,61.7L80.3,61.7z M80.2,60.4L80.2,60.4c-0.2,0.1-0.5,0.2-0.9,0.2c-0.2,0-0.4,0.1-0.5,0.1
			c-0.1,0-0.2,0.1-0.2,0.2c-0.1,0.1-0.1,0.2-0.1,0.3c0,0.2,0.1,0.3,0.2,0.4c0.1,0.1,0.3,0.2,0.5,0.2c0.2,0,0.4,0,0.6-0.1
			c0.2-0.1,0.3-0.2,0.4-0.4c0.1-0.1,0.1-0.3,0.1-0.6V60.4L80.2,60.4z"/>
		<polygon fill="#939597" points="82.7,58.7 83.3,58.7 83.3,60.1 84.9,60.1 84.9,58.7 85.5,58.7 85.5,62.1 84.9,62.1 84.9,60.6 
			83.3,60.6 83.3,62.1 82.7,62.1 82.7,58.7 		"/>
		<polygon fill="#939597" points="87.4,58.7 87.9,58.7 87.9,61.3 89.5,58.7 90.2,58.7 90.2,62.1 89.6,62.1 89.6,59.5 88,62.1 
			87.4,62.1 87.4,58.7 		"/>
		<path fill="#939597" d="M92,58.7h0.6v2.6l1.6-2.6h0.6v3.4h-0.6v-2.6l-1.6,2.6H92V58.7L92,58.7z M94,57.4L94,57.4h0.4
			c0,0.3-0.1,0.5-0.3,0.6c-0.2,0.1-0.4,0.2-0.7,0.2c-0.3,0-0.5-0.1-0.7-0.2c-0.2-0.1-0.3-0.3-0.3-0.6h0.4c0,0.1,0.1,0.3,0.2,0.3
			c0.1,0.1,0.2,0.1,0.4,0.1c0.2,0,0.3,0,0.4-0.1C94,57.6,94,57.5,94,57.4L94,57.4z"/>
	</g>
	<g>
		<path fill="#BD1D2D" d="M0,70.1c0-0.2,0-0.3,0-0.5c0.4,0,0.7,0,1-0.1c0.3,0,0.6-0.1,0.9-0.1c0.3,0,0.5-0.1,0.8-0.1
			c0.3,0,0.6-0.1,0.9-0.1c0.2,0,0.4,0.1,0.5,0.2c0.1,0.1,0.2,0.2,0.3,0.4c0.1,0.2,0.1,0.4,0.1,0.6c0,0.2,0,0.4,0,0.6v1.5
			c0,0.1,0,0.2,0.1,0.2c0,0,0.1,0,0.2,0h2v-1c0-0.4-0.1-0.7-0.1-1c-0.1-0.3-0.1-0.6-0.2-0.9c0.2-0.1,0.5-0.1,0.8-0.2
			c0.3-0.1,0.5-0.1,0.7-0.2c0.2-0.1,0.4-0.1,0.6-0.1c0.2,0,0.4-0.1,0.5-0.1c0.2,0,0.4,0.1,0.6,0.2c0.1,0.1,0.2,0.3,0.3,0.5
			c0.1,0.2,0.1,0.4,0.1,0.7c0,0.2,0,0.5,0,0.8v4.8c0,0.4,0.1,0.7,0.1,1c0.1,0.3,0.1,0.6,0.2,0.9c-0.2,0.1-0.5,0.1-0.8,0.2
			c-0.3,0.1-0.5,0.1-0.7,0.2c-0.2,0.1-0.4,0.1-0.6,0.1c-0.2,0-0.4,0.1-0.5,0.1c-0.2,0-0.4-0.1-0.6-0.2c-0.1-0.1-0.2-0.3-0.3-0.5
			c-0.1-0.2-0.1-0.4-0.1-0.7c0-0.3,0-0.5,0-0.8v-1.2c0-0.1,0-0.2,0-0.2c0,0-0.1-0.1-0.1-0.1H4.5v1c0,0.4,0.1,0.7,0.1,1
			c0.1,0.3,0.1,0.6,0.2,0.9c-0.2,0.1-0.5,0.1-0.7,0.2c-0.3,0.1-0.5,0.1-0.7,0.2c-0.2,0.1-0.4,0.1-0.6,0.1c-0.2,0-0.3,0.1-0.5,0.1
			c-0.2,0-0.4-0.1-0.6-0.2c-0.1-0.1-0.2-0.3-0.3-0.5c-0.1-0.2-0.1-0.4-0.1-0.7c0-0.3,0-0.5,0-0.8v-4.7c-0.2,0-0.4-0.1-0.6-0.2
			c-0.2-0.1-0.3-0.3-0.4-0.4c-0.1-0.2-0.2-0.3-0.2-0.5C0,70.5,0,70.3,0,70.1L0,70.1z"/>
		<path fill="#BD1D2D" d="M10.6,70.4c0-0.3,0.1-0.6,0.3-0.9c0.2-0.2,0.6-0.4,1.1-0.4h5.1c0.2,0,0.5,0,0.7,0c0.3,0,0.5-0.1,0.7-0.1
			c0.2,0.2,0.3,0.4,0.3,0.7C19,70,19,70.2,19,70.4c0,0.3-0.1,0.5-0.2,0.7c-0.1,0.2-0.3,0.3-0.4,0.4c-0.2,0.1-0.4,0.1-0.6,0.1
			c-0.2,0-0.4,0-0.6,0h-1.9v0.9c0,0.1,0,0.2,0,0.2c0,0,0.1,0,0.2,0h2.3c0.1,0.1,0.1,0.3,0.1,0.5c0,0.2,0,0.3,0,0.5
			c0,0.4-0.1,0.7-0.4,0.9C17.5,74.8,17,75,16.4,75h-1v0.8c0,0.1,0,0.2,0,0.2c0,0,0.1,0,0.2,0h1.7c0.2,0,0.5,0,0.7,0
			c0.3,0,0.5-0.1,0.7-0.1c0.2,0.2,0.3,0.4,0.3,0.7c0.1,0.3,0.1,0.5,0.1,0.7c0,0.3-0.1,0.5-0.2,0.7c-0.1,0.2-0.3,0.3-0.4,0.4
			c-0.2,0.1-0.4,0.1-0.6,0.1c-0.2,0-0.4,0-0.6,0h-3.7c-0.2,0-0.4,0-0.6,0c-0.2,0-0.3-0.1-0.5-0.2c-0.1-0.1-0.2-0.3-0.3-0.4
			c-0.1-0.2-0.1-0.4-0.1-0.8v-5.4c-0.2,0-0.4,0-0.5,0c-0.1,0-0.3,0-0.5,0.1c-0.1-0.2-0.3-0.4-0.3-0.7C10.6,70.8,10.6,70.6,10.6,70.4
			L10.6,70.4z"/>
		<path fill="#BD1D2D" d="M19.2,78.9v-1.5c0-0.3,0.1-0.6,0.2-0.8c0.1-0.2,0.3-0.3,0.7-0.3h0.2c0.2-0.2,0.4-0.5,0.6-0.9
			c0.2-0.4,0.3-0.7,0.4-1.2c0.1-0.4,0.2-0.9,0.3-1.3c0.1-0.4,0.1-0.9,0.1-1.3c-0.3,0-0.5-0.1-0.6-0.2c-0.2-0.1-0.3-0.2-0.4-0.4
			c-0.1-0.1-0.2-0.3-0.2-0.5c0-0.2-0.1-0.4-0.1-0.6c0-0.1,0-0.3,0-0.4c0-0.1,0-0.2,0-0.4h7.2c0.2,0,0.4,0.1,0.6,0.2
			c0.1,0.1,0.2,0.3,0.3,0.5c0.1,0.2,0.1,0.4,0.1,0.7c0,0.2,0,0.5,0,0.8v4.9h0.1c0.3,0,0.6,0.1,0.7,0.3c0.1,0.2,0.2,0.5,0.2,0.8v1.5
			c0,0.5,0.1,1,0.2,1.4c-0.2,0.1-0.4,0.1-0.6,0.2c-0.2,0-0.3,0.1-0.5,0.1c-0.1,0-0.3,0.1-0.4,0.1c-0.1,0-0.2,0-0.3,0
			c-0.2,0-0.4,0-0.6-0.1c-0.1-0.1-0.3-0.2-0.3-0.4c-0.1-0.1-0.1-0.3-0.2-0.5c0-0.2,0-0.4,0-0.7v-0.4h-4.9c-0.1,0-0.2,0.1-0.1,0.2
			v0.1c0,0.5,0.1,1,0.2,1.3c-0.2,0.1-0.4,0.1-0.6,0.2c-0.2,0-0.3,0.1-0.5,0.1c-0.1,0-0.3,0.1-0.4,0.1c-0.1,0-0.2,0-0.3,0
			c-0.2,0-0.4,0-0.6-0.1c-0.1-0.1-0.3-0.2-0.3-0.4c-0.1-0.1-0.1-0.3-0.2-0.5C19.2,79.3,19.2,79.1,19.2,78.9L19.2,78.9z M23,76.2
			L23,76.2h2.1c0.1,0,0.1,0,0.1-0.1c0,0,0-0.1,0-0.2v-4.4h-1c0,0-0.1,0-0.1,0c0,0,0,0.1-0.1,0.1c-0.1,1.1-0.2,2.1-0.4,2.9
			C23.6,75.3,23.4,75.9,23,76.2L23,76.2z"/>
		<path fill="#BD1D2D" d="M29.4,70.4c0-0.3,0.1-0.5,0.2-0.6c0.1-0.2,0.3-0.3,0.5-0.4c0.2-0.1,0.4-0.1,0.6-0.2c0.2,0,0.4,0,0.7,0h3.2
			c0.7,0,1.3,0.1,1.8,0.2c0.5,0.1,0.9,0.3,1.2,0.5c0.3,0.2,0.5,0.5,0.7,0.8c0.1,0.3,0.2,0.6,0.2,1c0,0.4-0.1,0.7-0.3,1.1
			c-0.2,0.3-0.5,0.6-0.8,0.8c0.6,0.1,1,0.4,1.3,0.8c0.3,0.4,0.4,0.8,0.4,1.3c0,0.5-0.1,0.9-0.3,1.3c-0.2,0.3-0.5,0.6-0.8,0.9
			c-0.3,0.2-0.7,0.4-1.1,0.5c-0.4,0.1-0.9,0.2-1.3,0.3c-0.4,0.1-0.9,0.1-1.3,0.1c-0.4,0-0.8,0-1.2,0c-0.3,0-0.5,0-0.8,0
			c-0.3,0-0.5-0.1-0.7-0.2c-0.2-0.1-0.3-0.2-0.4-0.4c-0.1-0.2-0.2-0.5-0.2-0.8v-5.4c-0.2,0-0.4,0-0.5,0c-0.1,0-0.3,0-0.5,0.1
			c-0.1-0.2-0.3-0.4-0.3-0.7C29.5,70.8,29.4,70.6,29.4,70.4L29.4,70.4z M34.1,73.2L34.1,73.2h0.5c0.7,0,1-0.3,1-0.8
			c0-0.3-0.1-0.5-0.3-0.6c-0.2-0.1-0.4-0.1-0.6-0.1h-0.5V73.2L34.1,73.2z M34.2,76.3L34.2,76.3c0,0,0.1,0,0.2,0c0.1,0,0.2,0,0.2,0
			c0.4,0,0.7-0.1,0.9-0.2c0.2-0.1,0.3-0.3,0.3-0.6c0-0.3-0.1-0.5-0.3-0.6c-0.2-0.1-0.4-0.2-0.7-0.2h-0.6V76.3L34.2,76.3z"/>
		<path fill="#BD1D2D" d="M38.7,70.1c0-0.2,0-0.3,0-0.5c0.4,0,0.7,0,1-0.1c0.3,0,0.6-0.1,0.8-0.1c0.3,0,0.5-0.1,0.8-0.1
			c0.3,0,0.6-0.1,0.9-0.1c0.2,0,0.4,0.1,0.5,0.2c0.1,0.1,0.2,0.2,0.3,0.4c0.1,0.2,0.1,0.4,0.1,0.6c0,0.2,0,0.4,0,0.6v3.5l2.3-4.8
			c0.2,0,0.4-0.1,0.6-0.1c0.2-0.1,0.4-0.1,0.6-0.2c0.2,0,0.4-0.1,0.6-0.1c0.2,0,0.3-0.1,0.5-0.1c0.2,0,0.4,0.1,0.6,0.2
			c0.1,0.1,0.2,0.3,0.3,0.5c0.1,0.2,0.1,0.4,0.2,0.7c0,0.2,0,0.5,0,0.8v4.8c0,0.4,0.1,0.7,0.1,1c0.1,0.3,0.1,0.6,0.2,0.9
			c-0.2,0.1-0.5,0.1-0.7,0.2c-0.3,0.1-0.5,0.1-0.7,0.2c-0.2,0.1-0.4,0.1-0.6,0.1c-0.2,0-0.3,0.1-0.5,0.1c-0.2,0-0.4-0.1-0.6-0.2
			c-0.1-0.1-0.2-0.3-0.3-0.5c-0.1-0.2-0.1-0.4-0.2-0.7c0-0.3,0-0.5,0-0.8v-3l-2.3,4.5c-0.2,0-0.4,0.1-0.6,0.1
			c-0.2,0.1-0.4,0.1-0.6,0.2c-0.2,0.1-0.4,0.1-0.6,0.1c-0.2,0-0.3,0.1-0.4,0.1c-0.2,0-0.4-0.1-0.6-0.2c-0.1-0.1-0.2-0.3-0.3-0.5
			c-0.1-0.2-0.1-0.4-0.2-0.7c0-0.3,0-0.5,0-0.8v-4.7c-0.2,0-0.4-0.1-0.6-0.2c-0.2-0.1-0.3-0.3-0.4-0.4c-0.1-0.2-0.2-0.3-0.2-0.5
			C38.7,70.5,38.7,70.3,38.7,70.1L38.7,70.1z"/>
		<path fill="#BD1D2D" d="M49.4,71.1c0-0.3,0.1-0.6,0.2-0.8c0.1-0.2,0.3-0.4,0.5-0.6c0.2-0.2,0.4-0.3,0.6-0.3
			c0.2-0.1,0.4-0.1,0.6-0.1c0.7,0,1.4,0.3,1.8,0.9c0.5,0.6,0.9,1.7,1.2,3.1h0.1v-1.6c0-0.4-0.1-0.7-0.1-1c-0.1-0.3-0.1-0.6-0.2-0.9
			c0.2-0.1,0.5-0.1,0.7-0.2c0.3-0.1,0.5-0.1,0.7-0.2c0.2-0.1,0.4-0.1,0.6-0.1c0.2,0,0.3-0.1,0.5-0.1c0.2,0,0.4,0.1,0.6,0.2
			c0.1,0.1,0.3,0.3,0.3,0.5c0.1,0.2,0.1,0.4,0.1,0.7c0,0.2,0,0.5,0.1,0.8v1.8c0.2-0.1,0.4-0.2,0.5-0.3c0.1-0.1,0.2-0.3,0.3-0.5
			c0.1-0.2,0.1-0.4,0.2-0.6c0-0.2,0.1-0.4,0.1-0.6c0-0.2,0-0.4-0.1-0.6c0-0.2-0.1-0.4-0.2-0.6c0.2-0.3,0.5-0.4,0.9-0.5
			c0.3-0.1,0.7-0.1,1-0.1c0.3,0,0.6,0.1,0.8,0.2c0.2,0.1,0.4,0.3,0.6,0.4c0.1,0.2,0.3,0.4,0.3,0.6c0.1,0.2,0.1,0.4,0.1,0.7
			c0,0.5-0.1,1-0.4,1.5c-0.3,0.4-0.7,0.8-1.2,1.1c0.1,0.3,0.2,0.7,0.4,1c0.2,0.3,0.4,0.7,0.6,1c0.2,0.3,0.5,0.6,0.7,0.9
			c0.3,0.3,0.5,0.5,0.8,0.6c-0.2,0.5-0.5,0.9-0.9,1.2c-0.4,0.3-0.8,0.4-1.3,0.4c-0.4,0-0.8-0.1-1-0.2c-0.3-0.1-0.6-0.3-0.8-0.7
			c-0.2-0.3-0.4-0.8-0.6-1.4c-0.2-0.6-0.4-1.3-0.6-2.2h-0.1v1.9c0,0.4,0.1,0.7,0.1,1c0.1,0.3,0.1,0.6,0.2,0.9
			c-0.2,0.1-0.5,0.1-0.7,0.2c-0.3,0.1-0.5,0.1-0.7,0.2c-0.2,0.1-0.4,0.1-0.6,0.1c-0.2,0-0.3,0.1-0.5,0.1c-0.2,0-0.4-0.1-0.5-0.2
			c-0.1-0.1-0.2-0.3-0.3-0.5c-0.1-0.2-0.1-0.4-0.1-0.7c0-0.3,0-0.5,0-0.8v-2.1c-0.2,0.1-0.4,0.2-0.5,0.4c-0.1,0.2-0.3,0.3-0.4,0.6
			c-0.1,0.2-0.2,0.4-0.2,0.7c0,0.2-0.1,0.5-0.1,0.7c0,0.5,0.1,0.9,0.2,1.3c-0.3,0.3-0.5,0.5-0.9,0.6c-0.3,0.1-0.6,0.2-1,0.2
			c-0.3,0-0.6-0.1-0.8-0.2c-0.2-0.1-0.4-0.3-0.5-0.5c-0.1-0.2-0.3-0.4-0.3-0.6c-0.1-0.2-0.1-0.5-0.1-0.7c0-0.6,0.2-1.2,0.5-1.7
			c0.3-0.5,0.7-1,1.3-1.3c-0.1-0.3-0.2-0.5-0.4-0.9c-0.2-0.3-0.3-0.6-0.6-0.9c-0.2-0.3-0.4-0.5-0.7-0.7
			C49.8,71.2,49.6,71.1,49.4,71.1L49.4,71.1z"/>
		<path fill="#BD1D2D" d="M63.1,70.1c0-0.2,0-0.3,0-0.5c0.4,0,0.7,0,1-0.1c0.3,0,0.6-0.1,0.8-0.1c0.3,0,0.5-0.1,0.8-0.1
			c0.3,0,0.6-0.1,0.9-0.1c0.2,0,0.4,0.1,0.5,0.2c0.1,0.1,0.2,0.2,0.3,0.4c0.1,0.2,0.1,0.4,0.1,0.6c0,0.2,0,0.4,0,0.6v3.5l2.3-4.8
			c0.2,0,0.4-0.1,0.6-0.1c0.2-0.1,0.4-0.1,0.6-0.2c0.2,0,0.4-0.1,0.6-0.1c0.2,0,0.3-0.1,0.5-0.1c0.2,0,0.4,0.1,0.6,0.2
			c0.1,0.1,0.2,0.3,0.3,0.5c0.1,0.2,0.1,0.4,0.2,0.7c0,0.2,0,0.5,0,0.8v4.8c0,0.4,0.1,0.7,0.1,1c0.1,0.3,0.1,0.6,0.2,0.9
			c-0.2,0.1-0.5,0.1-0.7,0.2c-0.3,0.1-0.5,0.1-0.7,0.2c-0.2,0.1-0.4,0.1-0.6,0.1c-0.2,0-0.3,0.1-0.5,0.1c-0.2,0-0.4-0.1-0.6-0.2
			c-0.1-0.1-0.2-0.3-0.3-0.5c-0.1-0.2-0.1-0.4-0.2-0.7c0-0.3,0-0.5,0-0.8v-3l-2.3,4.5c-0.2,0-0.4,0.1-0.6,0.1
			c-0.2,0.1-0.4,0.1-0.6,0.2c-0.2,0.1-0.4,0.1-0.6,0.1c-0.2,0-0.3,0.1-0.4,0.1c-0.2,0-0.4-0.1-0.6-0.2c-0.1-0.1-0.2-0.3-0.3-0.5
			c-0.1-0.2-0.1-0.4-0.2-0.7c0-0.3,0-0.5,0-0.8v-4.7c-0.2,0-0.4-0.1-0.6-0.2c-0.2-0.1-0.3-0.3-0.4-0.4c-0.1-0.2-0.2-0.3-0.2-0.5
			C63.1,70.5,63.1,70.3,63.1,70.1L63.1,70.1z"/>
		<path fill="#BD1D2D" d="M73.9,70.1c0-0.2,0-0.3,0-0.5c0.7,0,1.4-0.1,2-0.2c0.6-0.1,1.2-0.2,1.9-0.2c0.4,0,0.7,0.1,0.9,0.3
			c0.2,0.2,0.4,0.5,0.5,0.9l1,3l0.9-3c0.2-0.5,0.4-0.8,0.6-1c0.3-0.2,0.6-0.2,1.1-0.2l1,0.2c0.3,0,0.5,0.1,0.6,0.1
			c0.2,0.1,0.3,0.2,0.4,0.3c0.1,0.1,0.2,0.3,0.2,0.5c0,0.2,0.1,0.4,0.1,0.7l0.2,5c0,0.4,0.1,0.8,0.1,1.1c0.1,0.3,0.1,0.6,0.2,0.9
			c-0.2,0.1-0.5,0.1-0.7,0.2c-0.3,0.1-0.5,0.1-0.7,0.2c-0.2,0.1-0.4,0.1-0.6,0.1c-0.2,0-0.3,0.1-0.5,0.1c-0.2,0-0.4-0.1-0.6-0.2
			c-0.1-0.1-0.2-0.3-0.3-0.5c-0.1-0.2-0.1-0.4-0.1-0.7c0-0.2,0-0.5,0-0.8l0.1-3.4l-0.7,1.9c-0.1,0.3-0.2,0.5-0.4,0.7
			c-0.1,0.2-0.4,0.3-0.6,0.3h-0.7c-0.3,0-0.5-0.1-0.6-0.3c-0.1-0.2-0.3-0.4-0.4-0.7L78,73.1l0.2,2.9c0,0.4,0.1,0.8,0.1,1.1
			c0.1,0.3,0.1,0.6,0.2,0.9c-0.2,0.1-0.5,0.1-0.7,0.2c-0.3,0.1-0.5,0.1-0.7,0.2c-0.2,0.1-0.4,0.1-0.6,0.1c-0.2,0-0.3,0.1-0.5,0.1
			c-0.2,0-0.4-0.1-0.6-0.2c-0.1-0.1-0.2-0.3-0.3-0.5c-0.1-0.2-0.1-0.4-0.2-0.7c0-0.2,0-0.5,0-0.8l0.2-4.7c-0.2,0-0.4-0.1-0.6-0.2
			c-0.2-0.1-0.3-0.3-0.4-0.4C74,71,74,70.8,73.9,70.6C73.9,70.4,73.9,70.3,73.9,70.1L73.9,70.1z"/>
		<path fill="#BD1D2D" d="M86.4,74.2c0-0.7,0.1-1.3,0.3-1.9c0.2-0.6,0.5-1.1,0.9-1.6c0.4-0.5,0.9-0.8,1.5-1.1
			c0.6-0.3,1.3-0.4,2.2-0.4c0.8,0,1.6,0.1,2.2,0.3c0.6,0.2,1.1,0.5,1.4,0.9c0.4,0.4,0.6,0.9,0.8,1.4c0.2,0.5,0.2,1.2,0.2,1.8
			c0,0.7-0.1,1.3-0.3,1.9c-0.2,0.6-0.5,1.1-0.8,1.6c-0.4,0.5-0.9,0.8-1.5,1.1c-0.6,0.3-1.3,0.4-2.1,0.4c-0.9,0-1.6-0.1-2.2-0.3
			c-0.6-0.2-1.1-0.5-1.5-0.9c-0.4-0.4-0.7-0.9-0.8-1.4C86.5,75.5,86.4,74.9,86.4,74.2L86.4,74.2z M89.7,73.9L89.7,73.9
			c0,0.2,0,0.4,0.1,0.6c0,0.2,0.1,0.4,0.2,0.6c0.1,0.2,0.2,0.3,0.4,0.4c0.2,0.1,0.4,0.2,0.7,0.2c0.4,0,0.8-0.1,1.1-0.4
			c0.3-0.3,0.4-0.7,0.4-1.4c0-0.6-0.1-1-0.4-1.3c-0.2-0.3-0.6-0.5-1-0.5c-0.4,0-0.8,0.1-1.1,0.4C89.8,72.8,89.7,73.3,89.7,73.9
			L89.7,73.9z"/>
		<path fill="#BD1D2D" d="M96.4,74.2c0-0.7,0.1-1.4,0.3-2c0.2-0.6,0.5-1.2,0.8-1.6c0.4-0.5,0.9-0.8,1.5-1.1c0.6-0.3,1.3-0.4,2.2-0.4
			c0.4,0,0.8,0,1.2,0.1c0.4,0.1,0.8,0.2,1.1,0.3c0.3,0.2,0.6,0.4,0.8,0.6c0.2,0.3,0.3,0.6,0.3,1c0,0.3-0.1,0.6-0.3,0.9
			c-0.2,0.3-0.4,0.5-0.8,0.6c-0.3-0.2-0.6-0.3-1-0.5c-0.4-0.1-0.8-0.2-1.1-0.2c-0.2,0-0.4,0-0.6,0.1c-0.2,0.1-0.4,0.2-0.5,0.3
			c-0.1,0.2-0.3,0.4-0.3,0.6c-0.1,0.2-0.1,0.5-0.1,0.9c0,0.5,0.1,1,0.4,1.3c0.3,0.3,0.7,0.5,1.3,0.5c0.6,0,1-0.1,1.4-0.3
			c0.4-0.2,0.7-0.3,1-0.5c0.3,0.2,0.5,0.4,0.6,0.7c0.1,0.3,0.2,0.6,0.2,0.9c0,0.4-0.1,0.8-0.3,1.1c-0.2,0.3-0.5,0.5-0.9,0.7
			c-0.4,0.2-0.7,0.3-1.2,0.4c-0.4,0.1-0.8,0.1-1.2,0.1c-0.8,0-1.5-0.1-2.1-0.3c-0.6-0.2-1.1-0.5-1.4-0.9c-0.4-0.4-0.7-0.8-0.8-1.4
			C96.4,75.5,96.4,74.9,96.4,74.2L96.4,74.2z"/>
		<path fill="#BD1D2D" d="M104.7,70.7c0-0.3,0-0.5,0.1-0.7c0.1-0.2,0.2-0.4,0.3-0.5c0.2-0.1,0.4-0.2,0.6-0.3c0.3-0.1,0.6-0.1,1-0.1
			c0.3,0,0.6,0,0.9,0c0.4,0,0.7,0,1.1,0.1c0.4,0,0.8,0,1.1,0.1c0.4,0,0.7,0,0.9,0c0.4,0,0.8,0,1.1-0.1c0.3-0.1,0.6-0.1,0.9-0.2
			c0.2,0.3,0.3,0.5,0.4,0.8c0.1,0.3,0.2,0.6,0.2,0.9c0,0.2,0,0.4-0.1,0.6c-0.1,0.2-0.2,0.3-0.3,0.5c-0.2,0.1-0.4,0.2-0.7,0.3
			c-0.3,0.1-0.7,0.1-1.1,0.1h-0.3c-0.1,0-0.2,0.1-0.1,0.2v3.6c0,0.4,0.1,0.7,0.1,1c0.1,0.3,0.1,0.6,0.2,0.9
			c-0.2,0.1-0.5,0.1-0.7,0.2c-0.3,0.1-0.5,0.1-0.7,0.2c-0.2,0.1-0.4,0.1-0.6,0.1c-0.2,0-0.3,0.1-0.5,0.1c-0.2,0-0.4-0.1-0.6-0.2
			c-0.1-0.1-0.2-0.3-0.3-0.5c-0.1-0.2-0.1-0.4-0.1-0.7c0-0.3,0-0.5,0-0.8v-4.4c-0.1,0-0.1,0-0.2,0c-0.1,0-0.1,0-0.2,0
			c-0.3,0-0.7,0-1,0.1c-0.3,0.1-0.6,0.2-0.8,0.3c-0.2-0.3-0.3-0.6-0.4-0.9C104.7,71.3,104.7,71,104.7,70.7L104.7,70.7z"/>
		<path fill="#BD1D2D" d="M113.6,70.1c0-0.1,0-0.2,0-0.3c0-0.1,0-0.2,0-0.3c0.4,0,0.7,0,1-0.1c0.3,0,0.6-0.1,0.8-0.1
			c0.3,0,0.5-0.1,0.8-0.1c0.3,0,0.5-0.1,0.9-0.1c0.2,0,0.4,0.1,0.5,0.2c0.1,0.1,0.2,0.2,0.3,0.4c0.1,0.2,0.1,0.4,0.1,0.6
			c0,0.2,0,0.4,0,0.6v1.8c0.3-0.4,0.6-0.7,1.1-0.9c0.4-0.2,0.9-0.3,1.3-0.3c0.4,0,0.8,0.1,1.1,0.2c0.3,0.1,0.6,0.4,0.8,0.6
			c0.2,0.3,0.4,0.6,0.5,0.9c0.1,0.4,0.2,0.7,0.2,1.1c0,0.8-0.1,1.4-0.4,1.9c-0.3,0.5-0.6,0.9-1,1.3c-0.4,0.3-0.9,0.5-1.4,0.7
			c-0.5,0.1-1.1,0.2-1.6,0.2c-0.4,0-0.8,0-1.2-0.1c-0.4-0.1-0.8-0.2-1.2-0.5c-0.4-0.2-0.7-0.6-0.9-1.1c-0.2-0.5-0.4-1.1-0.4-1.9
			v-3.2c-0.2-0.1-0.4-0.1-0.5-0.3c-0.1-0.1-0.3-0.3-0.4-0.4c-0.1-0.2-0.2-0.3-0.2-0.5C113.7,70.5,113.6,70.3,113.6,70.1L113.6,70.1z
			 M118,74.6L118,74.6c0,0.5,0.1,0.9,0.2,1c0.2,0.2,0.4,0.3,0.6,0.3c0.3,0,0.5-0.1,0.6-0.2c0.2-0.2,0.3-0.4,0.3-0.6
			c0-0.3-0.1-0.5-0.2-0.6c-0.1-0.2-0.3-0.3-0.4-0.4c-0.2-0.1-0.4-0.1-0.6-0.2c-0.2,0-0.4,0-0.6,0V74.6L118,74.6z"/>
		<path fill="#BD1D2D" d="M28.4,86.4c0-0.2,0-0.3,0-0.5c0.4,0,0.7,0,1-0.1c0.3,0,0.6-0.1,0.9-0.1c0.3,0,0.5-0.1,0.8-0.1
			c0.3,0,0.6-0.1,0.9-0.1c0.2,0,0.4,0.1,0.5,0.2c0.1,0.1,0.2,0.2,0.3,0.4c0.1,0.2,0.1,0.4,0.1,0.6c0,0.2,0,0.4,0,0.6v2.1h0.4
			c0.3,0,0.5-0.1,0.6-0.2c0.2-0.1,0.3-0.2,0.4-0.4c0.1-0.2,0.1-0.3,0.2-0.5c0-0.2,0-0.4,0-0.5c0-0.2,0-0.5-0.1-0.7
			c-0.1-0.2-0.2-0.5-0.3-0.7c0.3-0.3,0.5-0.5,0.9-0.6c0.3-0.1,0.7-0.2,1-0.2c0.3,0,0.6,0.1,0.8,0.2c0.2,0.1,0.4,0.3,0.6,0.5
			c0.1,0.2,0.3,0.4,0.3,0.6c0.1,0.2,0.1,0.5,0.1,0.7c0,0.6-0.1,1.1-0.4,1.5c-0.3,0.4-0.6,0.8-1.1,1.1c0.1,0.3,0.3,0.6,0.4,0.9
			c0.2,0.3,0.4,0.6,0.6,0.8c0.2,0.2,0.4,0.4,0.7,0.6c0.2,0.2,0.5,0.3,0.7,0.3c0,0.4-0.1,0.7-0.2,1c-0.1,0.3-0.3,0.5-0.5,0.6
			c-0.2,0.2-0.4,0.3-0.7,0.4c-0.3,0.1-0.5,0.1-0.8,0.1c-0.4,0-0.8-0.1-1.1-0.2c-0.3-0.1-0.6-0.3-0.8-0.6c-0.3-0.3-0.5-0.7-0.7-1.3
			c-0.2-0.5-0.4-1.3-0.5-2.1h-0.6v1.8c0,0.4,0.1,0.7,0.1,1c0.1,0.3,0.1,0.6,0.2,0.9c-0.2,0.1-0.5,0.1-0.7,0.2
			c-0.3,0.1-0.5,0.1-0.7,0.2c-0.2,0.1-0.4,0.1-0.6,0.1c-0.2,0-0.3,0.1-0.5,0.1c-0.2,0-0.4-0.1-0.6-0.2c-0.1-0.1-0.2-0.3-0.3-0.5
			c-0.1-0.2-0.1-0.4-0.1-0.7c0-0.3,0-0.5,0-0.8v-4.7c-0.2,0-0.4-0.1-0.6-0.2c-0.2-0.1-0.3-0.3-0.4-0.4c-0.1-0.2-0.2-0.3-0.2-0.5
			C28.4,86.8,28.4,86.6,28.4,86.4L28.4,86.4z"/>
		<path fill="#BD1D2D" d="M38.8,94.3c0-0.2-0.1-0.4,0-0.5c0-0.2,0.1-0.4,0.2-0.6l1.7-4.1c0.2-0.5,0.4-0.8,0.6-1.1
			c-0.2,0-0.3,0-0.5,0c-0.2,0-0.3,0-0.5,0c-0.1-0.2-0.2-0.4-0.2-0.6c-0.1-0.2-0.1-0.5-0.1-0.7c0-0.4,0.1-0.6,0.4-0.9
			c0.3-0.2,0.8-0.3,1.5-0.3h2.5c0.5,0,0.8,0.1,1.1,0.3c0.3,0.2,0.5,0.5,0.6,1l2,6.1c0.1,0.2,0.2,0.5,0.3,0.7
			c0.1,0.3,0.2,0.5,0.3,0.7c-0.4,0.1-0.8,0.2-1.2,0.3C47,94.9,46.6,95,46.3,95c-0.3,0-0.6-0.1-0.8-0.2c-0.2-0.2-0.4-0.5-0.5-0.9
			l-0.2-0.5h-3l-0.6,1.6h-1.5c-0.3,0-0.5-0.1-0.6-0.2C39,94.6,38.9,94.4,38.8,94.3L38.8,94.3z M42.7,90.9L42.7,90.9
			c0,0.2,0,0.2,0.1,0.2h1.3l-0.7-2.2L42.7,90.9L42.7,90.9z"/>
		<path fill="#BD1D2D" d="M47.7,86.8c0-0.3,0.1-0.5,0.2-0.6c0.1-0.2,0.3-0.3,0.5-0.4c0.2-0.1,0.4-0.1,0.6-0.2c0.2,0,0.4,0,0.7,0h3.1
			c0.8,0,1.5,0.1,2,0.2c0.6,0.2,1,0.4,1.4,0.6c0.4,0.3,0.6,0.6,0.8,1c0.2,0.4,0.3,0.8,0.3,1.3c0,0.5-0.1,0.9-0.2,1.3
			c-0.1,0.4-0.4,0.8-0.7,1.1c-0.3,0.3-0.7,0.5-1.2,0.7c-0.5,0.2-1.1,0.3-1.8,0.3c-0.1,0-0.3,0-0.5,0c-0.2,0-0.3,0-0.4,0v0.5
			c0,0.4,0.1,0.7,0.1,1c0.1,0.3,0.1,0.6,0.2,0.8c-0.2,0.1-0.5,0.1-0.7,0.2c-0.3,0.1-0.5,0.1-0.7,0.2c-0.2,0.1-0.4,0.1-0.6,0.1
			c-0.2,0-0.3,0.1-0.5,0.1c-0.2,0-0.4-0.1-0.6-0.2c-0.1-0.1-0.2-0.3-0.3-0.5c-0.1-0.2-0.1-0.4-0.1-0.7c0-0.3,0-0.5,0-0.8V88
			c-0.2,0-0.4,0-0.5,0c-0.1,0-0.3,0-0.5,0.1c-0.1-0.2-0.3-0.4-0.3-0.7C47.7,87.2,47.7,87,47.7,86.8L47.7,86.8z M52.4,90.1L52.4,90.1
			c0,0,0.1,0,0.2,0c0.1,0,0.1,0,0.2,0c0.3,0,0.6-0.1,0.8-0.2c0.2-0.2,0.3-0.5,0.3-0.9c0-0.4-0.1-0.6-0.3-0.8
			c-0.2-0.1-0.4-0.2-0.7-0.2h-0.5V90.1L52.4,90.1z"/>
		<path fill="#BD1D2D" d="M57.1,86.8c0-0.3,0.1-0.6,0.3-0.9c0.2-0.2,0.6-0.4,1.1-0.4h5.1c0.2,0,0.5,0,0.7,0c0.3,0,0.5-0.1,0.7-0.1
			c0.2,0.2,0.3,0.4,0.3,0.7c0.1,0.2,0.1,0.5,0.1,0.7c0,0.3-0.1,0.5-0.2,0.7c-0.1,0.2-0.3,0.3-0.4,0.4c-0.2,0.1-0.4,0.1-0.6,0.1
			c-0.2,0-0.4,0-0.6,0h-1.9v0.9c0,0.1,0,0.2,0,0.2c0,0,0.1,0,0.2,0h2.3c0.1,0.1,0.1,0.3,0.1,0.5c0,0.2,0,0.3,0,0.5
			c0,0.4-0.1,0.7-0.4,0.9c-0.3,0.2-0.7,0.4-1.3,0.4h-1v0.9c0,0.1,0,0.2,0,0.2c0,0,0.1,0,0.2,0h1.7c0.2,0,0.5,0,0.7,0
			c0.3,0,0.5-0.1,0.7-0.1c0.2,0.2,0.3,0.4,0.3,0.7c0.1,0.3,0.1,0.5,0.1,0.7c0,0.3-0.1,0.5-0.2,0.7c-0.1,0.2-0.3,0.3-0.4,0.4
			c-0.2,0.1-0.4,0.1-0.6,0.1c-0.2,0-0.4,0-0.6,0h-3.7c-0.2,0-0.4,0-0.6,0c-0.2,0-0.3-0.1-0.5-0.2c-0.1-0.1-0.2-0.3-0.3-0.4
			c-0.1-0.2-0.1-0.4-0.1-0.8V88c-0.2,0-0.4,0-0.5,0c-0.1,0-0.3,0-0.5,0.1c-0.1-0.2-0.3-0.4-0.3-0.7C57.1,87.2,57.1,87,57.1,86.8
			L57.1,86.8z"/>
		<path fill="#BD1D2D" d="M65.9,93.1c0-0.1,0-0.1,0-0.2c0-0.1,0-0.2,0-0.2H66c0.3,0,0.5-0.1,0.7-0.2c0.2-0.2,0.4-0.4,0.5-0.6
			c0.1-0.3,0.2-0.6,0.3-0.9c0.1-0.3,0.1-0.7,0.2-1c0-0.3,0.1-0.7,0.1-1c0-0.3,0-0.6,0.1-0.8c-0.3,0-0.5-0.1-0.6-0.2
			c-0.2-0.1-0.3-0.2-0.4-0.4c-0.1-0.2-0.2-0.3-0.2-0.5c0-0.2-0.1-0.4-0.1-0.6c0-0.1,0-0.3,0-0.4c0-0.1,0-0.2,0-0.4h7.7
			c0.2,0,0.4,0.1,0.6,0.2c0.1,0.1,0.2,0.3,0.3,0.5c0.1,0.2,0.1,0.4,0.1,0.7c0,0.2,0,0.5,0,0.8v4.8c0,0.4,0.1,0.7,0.1,1
			c0.1,0.3,0.1,0.6,0.2,0.9c-0.2,0.1-0.5,0.1-0.8,0.2c-0.3,0.1-0.5,0.1-0.7,0.2c-0.2,0.1-0.4,0.1-0.6,0.1c-0.2,0-0.4,0.1-0.5,0.1
			c-0.2,0-0.4-0.1-0.6-0.2c-0.1-0.1-0.2-0.3-0.3-0.5c-0.1-0.2-0.1-0.4-0.1-0.7c0-0.3,0-0.5-0.1-0.8v-4.6c0-0.1,0-0.2,0-0.2
			c0,0-0.1-0.1-0.1-0.1h-0.8c0,1.4-0.1,2.5-0.3,3.4c-0.2,0.9-0.4,1.6-0.6,2.1c-0.3,0.5-0.6,0.9-1,1.1c-0.4,0.2-0.9,0.3-1.4,0.3
			c-0.6,0-1.1-0.2-1.4-0.5C66,94.1,65.9,93.6,65.9,93.1L65.9,93.1z"/>
		<path fill="#BD1D2D" d="M75.9,86.4c0-0.2,0-0.3,0-0.5c0.4,0,0.7,0,1-0.1c0.3,0,0.6-0.1,0.8-0.1c0.3,0,0.5-0.1,0.8-0.1
			c0.3,0,0.6-0.1,0.9-0.1c0.2,0,0.4,0.1,0.5,0.2c0.1,0.1,0.2,0.2,0.3,0.4c0.1,0.2,0.1,0.4,0.1,0.6c0,0.2,0,0.4,0,0.6v3.5l2.3-4.8
			c0.2,0,0.4-0.1,0.6-0.1c0.2-0.1,0.4-0.1,0.6-0.2c0.2,0,0.4-0.1,0.6-0.1c0.2,0,0.3-0.1,0.5-0.1c0.2,0,0.4,0.1,0.6,0.2
			c0.1,0.1,0.2,0.3,0.3,0.5c0.1,0.2,0.1,0.4,0.2,0.7c0,0.2,0,0.5,0,0.8v4.8c0,0.4,0.1,0.7,0.1,1c0.1,0.3,0.1,0.6,0.2,0.9
			c-0.2,0.1-0.5,0.1-0.7,0.2c-0.3,0.1-0.5,0.1-0.7,0.2c-0.2,0.1-0.4,0.1-0.6,0.1c-0.2,0-0.3,0.1-0.5,0.1c-0.2,0-0.4-0.1-0.6-0.2
			c-0.1-0.1-0.2-0.3-0.3-0.5c-0.1-0.2-0.1-0.4-0.2-0.7c0-0.3,0-0.5,0-0.8v-3l-2.3,4.5c-0.2,0-0.4,0.1-0.6,0.1
			c-0.2,0.1-0.4,0.1-0.6,0.2c-0.2,0.1-0.4,0.1-0.6,0.1c-0.2,0-0.3,0.1-0.4,0.1c-0.2,0-0.4-0.1-0.6-0.2c-0.1-0.1-0.2-0.3-0.3-0.5
			c-0.1-0.2-0.1-0.4-0.2-0.7c0-0.3,0-0.5,0-0.8v-4.7c-0.2,0-0.4-0.1-0.6-0.2c-0.2-0.1-0.3-0.3-0.4-0.4C76.1,87.4,76,87.2,76,87
			C75.9,86.8,75.9,86.6,75.9,86.4L75.9,86.4z"/>
		<path fill="#BD1D2D" d="M86.5,86.4c0-0.2,0-0.3,0-0.5c0.4,0,0.7,0,1-0.1c0.3,0,0.6-0.1,0.8-0.1c0.3,0,0.5-0.1,0.8-0.1
			c0.3,0,0.6-0.1,0.9-0.1c0.2,0,0.4,0.1,0.5,0.2c0.1,0.1,0.2,0.2,0.3,0.4c0.1,0.2,0.1,0.4,0.1,0.6c0,0.2,0,0.4,0,0.6v3.5l2.3-4.8
			c0.2,0,0.4-0.1,0.6-0.1c0.2-0.1,0.4-0.1,0.6-0.2c0.2,0,0.4-0.1,0.6-0.1c0.2,0,0.3-0.1,0.5-0.1c0.2,0,0.4,0.1,0.6,0.2
			c0.1,0.1,0.2,0.3,0.3,0.5c0.1,0.2,0.1,0.4,0.2,0.7c0,0.2,0,0.5,0,0.8v4.8c0,0.4,0.1,0.7,0.1,1c0.1,0.3,0.1,0.6,0.2,0.9
			c-0.2,0.1-0.5,0.1-0.7,0.2c-0.3,0.1-0.5,0.1-0.7,0.2c-0.2,0.1-0.4,0.1-0.6,0.1c-0.2,0-0.3,0.1-0.5,0.1c-0.2,0-0.4-0.1-0.6-0.2
			c-0.1-0.1-0.2-0.3-0.3-0.5c-0.1-0.2-0.1-0.4-0.2-0.7c0-0.3,0-0.5,0-0.8v-3l-2.3,4.5c-0.2,0-0.4,0.1-0.6,0.1
			c-0.2,0.1-0.4,0.1-0.6,0.2c-0.2,0.1-0.4,0.1-0.6,0.1c-0.2,0-0.3,0.1-0.4,0.1c-0.2,0-0.4-0.1-0.6-0.2c-0.1-0.1-0.2-0.3-0.3-0.5
			c-0.1-0.2-0.1-0.4-0.2-0.7c0-0.3,0-0.5,0-0.8v-4.7c-0.2,0-0.4-0.1-0.6-0.2c-0.2-0.1-0.3-0.3-0.4-0.4c-0.1-0.2-0.2-0.3-0.2-0.5
			C86.6,86.8,86.5,86.6,86.5,86.4L86.5,86.4z"/>
	</g>
	<g>
		<path fill-rule="evenodd" clip-rule="evenodd" fill="#FFFFFF" d="M30.5,32.4c0.2-0.1,0.3-0.3,0.4-0.4c0.7-0.6,1.4-1.3,2.2-1.8
			c1.5-0.8,3.1-1.2,4.8-1.3c0.3,0,0.6-0.2,0.8-0.5c0.6-0.9,1.1-1.8,1.7-2.7c0.9-1.2,1.7-2.4,2.8-3.5c1.2-1.1,2.5-2,3.9-3
			c1.4-0.9,2.9-1.6,4.6-1.8c1.8-0.3,3.7-0.3,5.5-0.3c1.1,0,2.3,0.4,3.4,0.7c0.8,0.1,1.5,0.5,2.3,0.1c0.5-0.2,1-0.3,1.5-0.2
			c1.3,0.2,1.9,1.2,1.4,2.7c-0.2,0.6,0.1,0.8,0.4,1.2c0.6,0.8,1.2,1.6,1.7,2.5c0.4,0.8,0.5,1.7,0.1,2.6c-0.1,0.3,0,0.6,0,0.9
			c0.2,1,0.5,2.1,0.8,3.1c0.1,0.4,0,0.7-0.5,0.7c-0.3,0-0.6,0.1-0.9,0.2c-1.4,0.6-2.8,1-4.3,0.3c-0.3-0.2-0.7-0.3-1-0.5
			c-1.1-0.7-2.3-1.3-3.3-2.1c-0.4-0.3-0.7-0.2-0.8,0.1c-0.2,0.6-0.4,1.2-0.4,1.8c0.1,1.3,0.7,2.3,1.5,3.3c1.4,1.7,3.2,2.6,5.3,2.9
			c0.2,0,0.4,0.3,0.4,0.4c0.1,0.7,0.1,1.5,0.1,2.2c0,0.4-0.2,0.5-0.6,0.6c-2.3,0.6-4.6,0.6-7-0.3c-0.1,0.5-0.2,0.9-0.2,1.4
			c-0.1,2.4,0.4,4.8,1,7.2c0.5,1.8,1.2,3.4,2,5.1c0.2,0.4,0.5,0.9,0.9,1c0.5,0.2,1.1,0,1.6,0c-0.7-1.1-1.5-2.3-2.1-3.5
			c-0.9-1.7-0.8-3.5-0.3-5.2c0.8-2.5,2.5-4.4,5.1-5.3c0.2-0.1,0.4-0.4,0.4-0.6c0.1-1.7,0.6-3.2,1.4-4.7c0.8-1.5,1.8-2.7,3.1-3.7
			c0.5-0.4,0.7-0.8,0.7-1.5c0-3.3,0-6.5,0-9.8c0-2.1-0.3-4.1-1.4-5.9c-0.9-1.4-2-2.5-3.5-3.3c-1.3-0.7-2.7-0.9-4.2-1.1
			c-0.3,0-0.7-0.3-0.8-0.6c-0.6-1.2-1.4-2.2-2.4-3.1c-2.1-2-4.7-2.8-7.5-2.9c-1.7,0-3.3,0.4-4.9,1.1c-2.2,1-3.8,2.5-4.9,4.5
			c-1,1.7-1.5,3.7-1.5,5.7c0,1.1,0,2.2,0,3.3c0,0.2,0,0.4-0.1,0.6c-0.6-0.2-1-0.4-1.5-0.5c-1.6-0.2-3.1-0.2-4.5,0.6
			c-1.8,1-3.2,2.4-3.4,4.4C30.3,26.8,30.5,29.5,30.5,32.4L30.5,32.4z"/>
		<path fill-rule="evenodd" clip-rule="evenodd" fill="#FFFFFF" d="M71.7,27c0.4-0.1,0.7-0.2,0.9-0.2c0,0,0.1,0,0.1,0
			c3.4-1.2,6.7-1,10,0.6c2.2,1,3.9,2.4,5.4,4.3c1.6,2.2,2.5,4.6,2.5,7.3c0,4.1,0,8.2,0,12.2c0,1.4,0,2.8,0,4.2c1.7,0,3.4,0,5.1,0
			c0.6,0,0.8-0.1,0.8-0.7c0-5,0-10.1,0-15.1c0.1-3.1-0.5-6-1.7-8.7c-0.3-0.6-0.5-1.2-0.9-1.7c-0.9-1.2-1.8-2.4-2.8-3.5
			c-0.9-0.9-1.8-1.7-2.9-2.4c-1.3-0.8-2.8-1.4-4.2-2c-1.9-0.8-3.9-1-5.9-1.3c-2-0.2-3.8,0.3-5.8,0.6c-0.2,0-0.6,0.4-0.6,0.6
			C71.7,23.1,71.7,25,71.7,27L71.7,27z"/>
		<path fill-rule="evenodd" clip-rule="evenodd" fill="#FFFFFF" d="M71.8,19.7c2.2-0.2,4.4-0.6,6.5-0.5c2.2,0.1,4.3,0.7,6.5,1.2
			c2.4-5.8-0.8-13.1-8-15.2c-4.4-1.4-12,1.6-13.1,5.3C67.8,10.9,71.8,14.3,71.8,19.7L71.8,19.7z"/>
		<path fill-rule="evenodd" clip-rule="evenodd" fill="#FFFFFF" d="M37,35c-0.7,0-1.3-0.1-1.8,0c-1.3,0.4-2.6,0.8-3.9,1.4
			c-0.6,0.2-0.9,0.7-0.9,1.5c0,5.2,0,10.3,0,15.5c0,0.5,0,1,0,1.5c0,0.2,0.2,0.4,0.3,0.4c0.8,0,1.7,0,2.6,0
			C32.9,48.2,34.4,41.6,37,35L37,35z"/>
		<path fill-rule="evenodd" clip-rule="evenodd" fill="#FFFFFF" d="M39.8,55.3c5,0,9.9,0,14.9,0c-0.9-1-1.6-1.9-2.5-2.7
			c-1.9-1.8-4-3.5-6.7-4.1c-1.6-0.4-3.5,0-4.4,1.8c-0.3,0.6-0.6,1.3-0.8,2C40.1,53.2,40,54.2,39.8,55.3L39.8,55.3z"/>
		<path fill-rule="evenodd" clip-rule="evenodd" fill="#FFFFFF" d="M79.9,46c-0.4,0.3-0.7,0.6-1,0.7c-0.6,0.1-1.2,0-1.8,0.1
			c-0.2,0-0.5,0.1-0.6,0.2c-0.1,0.1,0,0.5,0.2,0.6c0.6,0.7,1.4,0.9,2.3,0.9c0.2,0,0.4,0.1,0.5,0.2c-0.1,0.2-0.1,0.3-0.2,0.5
			c-0.6,0.8-2.3,0.9-3.4,0.3c-0.2-0.1-0.5-0.2-0.8-0.2c-0.1,0.3-0.3,0.7-0.2,0.9c0.3,0.8,0.8,1.5,1.7,1.8c0.7,0.2,1.4,0.3,2,0.4
			c0.8,0.1,1.1,0.4,1.1,1.2c0,0.5,0,1,0,1.4c0,0.2,0.2,0.4,0.3,0.4c0.4,0.1,0.9,0,1.4,0c0-0.7,0-1.2,0-1.8c0-1,0.2-1.2,1.2-1.3
			c0.6-0.1,1.3-0.1,1.9-0.4c0.8-0.4,1.6-1,1.7-2.1c0-0.2-0.1-0.5-0.3-0.6c-0.1-0.1-0.4,0.1-0.6,0.2c-1,0.7-2.7,0.7-3.5-0.1
			c-0.1-0.1-0.2-0.4-0.3-0.6c0.2,0,0.4-0.1,0.6-0.1c0.7-0.2,1.4-0.3,2-0.6c0.2-0.1,0.3-0.6,0.4-0.9c-0.3-0.1-0.6-0.1-0.9-0.2
			c-0.6-0.1-1.3-0.1-1.9-0.2c-0.2,0-0.3-0.4-0.4-0.6c0.2-0.1,0.3-0.2,0.5-0.3c0.4-0.2,0.8-0.3,1.1-0.6c0.2-0.1,0.2-0.4,0.3-0.6
			c-0.2-0.1-0.4-0.1-0.6-0.1c-0.2,0-0.4,0-0.6,0c-0.8,0-1-0.2-1.2-1c-0.1-0.4-0.2-0.8-0.3-1.1c-0.1,0-0.1,0-0.2,0
			c-0.1,0.4-0.2,0.8-0.3,1.2c-0.1,0.7-0.5,0.9-1.1,0.9c-0.2,0-0.5-0.1-0.7,0c-0.2,0-0.4,0.1-0.6,0.2c0.1,0.2,0.2,0.5,0.3,0.6
			C78.6,45.4,79.1,45.6,79.9,46L79.9,46z"/>
		<path fill-rule="evenodd" clip-rule="evenodd" fill="#FFFFFF" d="M69.1,55.3c0-0.7,0-1.3,0-2c0-0.7,0.4-1,1-1.1
			c0.5-0.1,1-0.1,1.6-0.2c1.1-0.2,2.3-1.3,2.3-2.2c0-0.3-0.2-0.5-0.3-0.8c-0.2,0.1-0.4,0.2-0.6,0.3c-0.9,0.6-3,0.8-3.7-0.8
			c0.2,0,0.4-0.1,0.6-0.1c0.7-0.2,1.3-0.3,1.9-0.5c0.2-0.1,0.5-0.6,0.4-0.9c-0.1-0.5-0.5-0.3-0.8-0.2c-0.7,0.2-1.4,0-2-0.4
			c-0.2-0.1-0.2-0.3-0.3-0.5c0.2-0.1,0.3-0.2,0.5-0.3c0.5-0.2,0.9-0.4,1.4-0.7c0.1-0.1,0.2-0.3,0.2-0.5c0-0.1-0.3-0.2-0.4-0.2
			c-0.3,0-0.5,0-0.8,0.1c-0.6,0.1-1-0.2-1.1-0.9c-0.1-0.4-0.3-0.9-0.5-1.4c-0.1,0.4-0.2,0.7-0.3,0.9c-0.3,1.3-0.5,1.4-1.8,1.4
			c-0.2,0-0.5,0.1-0.7,0.1c0.2,0.2,0.3,0.5,0.5,0.7c0.5,0.3,1,0.5,1.6,0.8c-0.2,0.2-0.4,0.6-0.7,0.6c-0.7,0.1-1.3,0.2-2,0.2
			c-0.6,0-0.9,0.2-0.7,0.6c0.1,0.3,0.3,0.5,0.6,0.6c0.6,0.2,1.3,0.3,2,0.5c0.2,0,0.3,0.1,0.5,0.2c-0.1,0.1-0.1,0.3-0.2,0.4
			c-0.9,1.2-2.7,0.9-3.6,0.2c-0.4-0.4-0.7-0.2-0.8,0.3c0,0.3,0,0.7,0.1,0.9c0.5,0.8,1.2,1.5,2.3,1.7c0.4,0.1,0.9,0.1,1.3,0.1
			c0.9,0.1,1.1,0.3,1.1,1.2c0,0.6,0,1.2,0,1.9C68,55.3,68.5,55.3,69.1,55.3L69.1,55.3z"/>
		<path fill-rule="evenodd" clip-rule="evenodd" fill="#FFFFFF" d="M73.5,39.2c-1.3,1.5-2.4,1.6-4,0.6c-0.4-0.2-0.7-0.2-0.7,0.3
			c0,0.3,0,0.8,0.2,1c0.7,1.2,1.8,1.6,3.1,1.7c1.5,0.1,1.5,0.2,1.5,1.7c0,1.5,0,1.5,1.4,1.4c0,0,0.1,0,0.2-0.1c0-0.3,0-0.6,0-0.9
			c0-2.1,0.2-2,1.8-2.1c0.1,0,0.2,0,0.3,0c1.1-0.1,1.9-0.7,2.5-1.6c0.2-0.3,0.2-0.7,0.2-1c0-0.5-0.3-0.6-0.7-0.3
			c-1.2,0.9-2.5,0.8-3.6-0.2c-0.1-0.1-0.2-0.3-0.3-0.4c0.2-0.1,0.4-0.1,0.5-0.2c0.6-0.2,1.3-0.3,1.9-0.4c0.5-0.1,0.7-0.5,0.6-1
			c-0.2-0.6-0.6-0.2-1-0.2c-0.7-0.1-1.3-0.2-2-0.4c-0.1,0-0.2-0.3-0.3-0.5c0.1-0.1,0.3-0.2,0.4-0.2c0.4-0.2,0.8-0.3,1.2-0.5
			c0.2-0.1,0.3-0.4,0.4-0.7c-0.2,0-0.5-0.1-0.7-0.1c-1.1,0.1-1.5-0.1-1.8-1.2c-0.1-0.3-0.2-0.5-0.3-0.8c-0.1,0-0.1,0-0.2,0
			c-0.1,0.4-0.3,0.8-0.3,1.2c-0.1,0.6-0.5,0.9-1.1,0.8c-0.3,0-0.5-0.1-0.8-0.1c-0.2,0-0.3,0.1-0.5,0.1c0.1,0.2,0,0.5,0.2,0.5
			c0.5,0.3,1,0.5,1.4,0.7c0.1,0.1,0.3,0.2,0.4,0.3c-0.1,0.1-0.2,0.3-0.3,0.4c-0.7,0.5-1.4,0.5-2.2,0.4c-0.2,0-0.5,0.1-0.7,0.1
			c0.1,0.3,0,0.6,0.2,0.8c0.5,0.7,1.3,0.8,2.1,0.8C72.9,39.1,73.1,39.1,73.5,39.2L73.5,39.2z"/>
		<path fill-rule="evenodd" clip-rule="evenodd" fill="#FFFFFF" d="M44.2,32.8c0.9,0.2,1.7,0.3,2.5,0.4c2.6,0.5,5.3,1,7.9,1.5
			c0.6,0.1,0.8-0.1,0.8-0.6c0.1-0.8,0.2-1.6,0.4-2.4C56,31,56,31,55.2,30.9c-1.6-0.2-3.1-0.7-4.5-1.5c-0.8-0.5-1.4-1.1-2.2-1.8
			C47,29,45.5,30.8,44.2,32.8L44.2,32.8z"/>
		<path fill-rule="evenodd" clip-rule="evenodd" fill="#FFFFFF" d="M50.1,46.2c1.4-0.1,2.7-0.2,4-0.4c0.3,0,0.8,0,0.6-0.5
			c0-0.2-0.4-0.4-0.6-0.4c-1.6-0.3-3.2-0.6-4.8-0.9c-2.8-0.5-5.6-1-8.4-1.5c-0.2,0-0.6,0.1-0.7,0.3c-0.1,0.3-0.4,0.8,0.2,1
			c1.5,0.6,3,1.3,4.6,1.7C46.7,45.9,48.5,46,50.1,46.2L50.1,46.2z"/>
		<path fill-rule="evenodd" clip-rule="evenodd" fill="#FFFFFF" d="M46.2,35.7c-0.1-0.1-0.1-0.1-0.2-0.2c-0.8,0.5-1.6,0.9-2.5,1.4
			c-0.5,0.3-1,0.5-1.4-0.4c-0.6,1.6-1.1,3-1.6,4.5c0.5,0.1,0.8,0.1,1.1,0.2c0.7,0.3,1.4,0,2-0.3c0.9-0.5,1.8-1.1,2.6-1.7
			c0.4-0.3,0.8-0.5,1.2-0.8c0.2-0.1,0.2-0.4,0.3-0.6c-0.2,0-0.4-0.1-0.7-0.1c-0.1,0-0.2,0.1-0.2,0.1c-0.8,0.5-1.6,1-2.4,1.4
			c-0.1,0.1-0.5,0-0.6-0.1c-0.1-0.1-0.1-0.5,0-0.6c0.3-0.3,0.7-0.5,1.1-0.7c0.6-0.4,1.3-0.8,1.9-1.1c0-0.1-0.1-0.1-0.1-0.2
			c-0.2,0.1-0.5,0.2-0.7,0.3c-0.7,0.4-1.5,0.8-2.2,1.2c-0.3,0.2-0.6,0.3-0.8-0.1c-0.1-0.2,0.1-0.5,0.3-0.7c0.7-0.4,1.4-0.8,2.1-1.2
			C45.8,36.1,46,35.9,46.2,35.7L46.2,35.7z"/>
		<path fill-rule="evenodd" clip-rule="evenodd" fill="#FFFFFF" d="M52,36.8c0,0.1,0,0.1,0,0.2c0.7,0.8,1.3,1.7,2,2.5
			c0.1,0.1,0,0.5-0.1,0.6c-0.1,0.1-0.5,0.1-0.6,0c-0.7-0.8-1.3-1.6-1.9-2.4c-0.1-0.1-0.2-0.2-0.3-0.3c-0.1,0-0.1,0.1-0.2,0.1
			c0.1,0.2,0.2,0.4,0.4,0.6c0.6,0.8,1.2,1.5,1.7,2.3c0.1,0.1,0,0.5-0.1,0.6c-0.1,0.1-0.4,0-0.6-0.1c-0.2-0.2-0.4-0.4-0.6-0.7
			c-0.5-0.6-0.9-1.2-1.4-1.8c-0.1-0.1-0.4-0.1-0.6-0.1c0,0.2-0.1,0.4,0,0.5c1,1.3,2,2.6,2.9,4c0.6,0.8,1.3,0.9,2.2,0.9
			c0-0.8,0-1.6,0-2.4c0-0.8,0.2-1.6-0.6-2.3c-0.7-0.5-1.1-1.3-1.7-1.9C52.3,36.9,52.1,36.9,52,36.8L52,36.8z"/>
		<path fill-rule="evenodd" clip-rule="evenodd" fill="#FFFFFF" d="M46.7,34.5c0,0.1-0.1,0.1-0.1,0.2c0.7,1,1.5,2,2.2,3
			c1.1-0.7,2.2-1.4,3.4-2.1C50.2,35.2,48.5,34.9,46.7,34.5L46.7,34.5z"/>
		<path fill-rule="evenodd" clip-rule="evenodd" fill="#FFFFFF" d="M44,41.7c0.9,0.2,1.7,0.2,2.4-0.4c0.5-0.4,1-0.7,1.6-1
			c0.2-0.1,0.5-0.1,0.6,0.1c0.5,0.6,1,1.2,1.4,1.9c0.4,0.7,1,0.8,1.8,1c-1.1-1.5-2-2.8-3-4c-0.1-0.1-0.5-0.1-0.6,0
			c-0.6,0.3-1.2,0.7-1.8,1.1C45.6,40.7,44.8,41.2,44,41.7L44,41.7z"/>
		<path fill-rule="evenodd" clip-rule="evenodd" fill="#FFFFFF" d="M72.1,3.1c0-0.7-0.6-1.4-1.3-1.4c-0.7,0-1.4,0.7-1.4,1.4
			c0,0.7,0.7,1.4,1.4,1.4C71.5,4.5,72.1,3.9,72.1,3.1L72.1,3.1z"/>
		<path fill-rule="evenodd" clip-rule="evenodd" fill="#FFFFFF" d="M85.8,18.8c0,0.7,0.6,1.2,1.4,1.3c0.6,0,1.4-0.6,1.4-1.3
			c-0.1-0.7-0.6-1.3-1.4-1.3C86.3,17.5,85.8,18,85.8,18.8L85.8,18.8z"/>
		<path fill-rule="evenodd" clip-rule="evenodd" fill="#FFFFFF" d="M67.5,5.5c0.8,0,1.4-0.5,1.4-1.2c0-0.8-0.6-1.4-1.3-1.5
			c-0.6,0-1.4,0.7-1.4,1.3C66.1,4.8,66.8,5.5,67.5,5.5L67.5,5.5z"/>
		<path fill-rule="evenodd" clip-rule="evenodd" fill="#FFFFFF" d="M79.1,4.6c0,0.8,0.6,1.4,1.3,1.4c0.7,0,1.3-0.6,1.4-1.3
			c0-0.7-0.6-1.3-1.3-1.4C79.7,3.2,79.1,3.8,79.1,4.6L79.1,4.6z"/>
		<path fill-rule="evenodd" clip-rule="evenodd" fill="#FFFFFF" d="M85.2,7.9c-0.8,0-1.3,0.6-1.3,1.3c0,0.8,0.6,1.3,1.4,1.3
			c0.8,0,1.3-0.5,1.3-1.3C86.6,8.4,86.1,7.9,85.2,7.9L85.2,7.9z"/>
		<path fill-rule="evenodd" clip-rule="evenodd" fill="#FFFFFF" d="M88,12.3c0-0.9-0.5-1.3-1.4-1.3c-0.8,0-1.3,0.5-1.3,1.3
			c0,0.8,0.5,1.3,1.3,1.3C87.5,13.5,88,13,88,12.3L88,12.3z"/>
		<path fill-rule="evenodd" clip-rule="evenodd" fill="#FFFFFF" d="M78.7,3.4c0-0.9-0.5-1.3-1.3-1.3c-0.8,0-1.3,0.5-1.3,1.3
			c0,0.7,0.6,1.3,1.3,1.3C78.2,4.7,78.7,4.2,78.7,3.4L78.7,3.4z"/>
		<path fill-rule="evenodd" clip-rule="evenodd" fill="#FFFFFF" d="M62.5,9.7c0.8,0,1.4-0.5,1.4-1.3c0-0.7-0.6-1.3-1.3-1.3
			c-0.7,0-1.4,0.6-1.4,1.3C61.2,9.2,61.7,9.7,62.5,9.7L62.5,9.7z"/>
		<path fill-rule="evenodd" clip-rule="evenodd" fill="#FFFFFF" d="M87.4,14.2c-0.8,0-1.3,0.5-1.3,1.3c0,0.8,0.5,1.3,1.3,1.3
			c0.8,0,1.3-0.5,1.3-1.3C88.7,14.7,88.2,14.2,87.4,14.2L87.4,14.2z"/>
		<path fill-rule="evenodd" clip-rule="evenodd" fill="#FFFFFF" d="M83.2,5.3c-0.8,0-1.3,0.5-1.3,1.3c0,0.7,0.6,1.3,1.3,1.3
			c0.8,0,1.4-0.5,1.4-1.3C84.5,5.8,84,5.3,83.2,5.3L83.2,5.3z"/>
		<path fill-rule="evenodd" clip-rule="evenodd" fill="#FFFFFF" d="M66,5.9c0-0.8-0.6-1.3-1.4-1.3c-0.7,0-1.3,0.6-1.2,1.3
			c0,0.8,0.6,1.3,1.4,1.3C65.6,7.2,66.1,6.7,66,5.9L66,5.9z"/>
		<path fill-rule="evenodd" clip-rule="evenodd" fill="#FFFFFF" d="M75.4,2.9c0-0.9-0.5-1.3-1.3-1.3c-0.8,0-1.3,0.5-1.3,1.3
			c0,0.8,0.5,1.3,1.3,1.3C74.9,4.1,75.4,3.7,75.4,2.9L75.4,2.9z"/>
		<path fill-rule="evenodd" clip-rule="evenodd" fill="#FFFFFF" d="M45.8,34.6c0-0.1,0-0.1,0-0.2c-0.6-0.1-1.2-0.3-1.8-0.4
			c-0.2,0-0.4,0-0.5,0.1c-0.4,0.7-0.8,1.4-1.1,2.1c0.1,0.1,0.1,0.1,0.2,0.2C43.6,35.8,44.7,35.2,45.8,34.6L45.8,34.6z"/>
		<path fill-rule="evenodd" clip-rule="evenodd" fill="#FFFFFF" d="M52.7,35.7c0,0.1,0,0.1-0.1,0.2c0.7,0.9,1.4,1.7,2.2,2.7
			c0-0.7,0.1-1.3,0.1-2c0-0.2-0.1-0.4-0.2-0.5C54.1,35.9,53.4,35.8,52.7,35.7L52.7,35.7z"/>
		<path fill-rule="evenodd" clip-rule="evenodd" fill="#FFFFFF" d="M76.2,0.4c-0.1,0-0.2,0-0.4,0c-0.1,0.3-0.3,0.5-0.4,0.8
			c0,0.1,0.4,0.4,0.5,0.4c0.2,0,0.6-0.3,0.6-0.3C76.6,1,76.4,0.7,76.2,0.4L76.2,0.4z"/>
		<path fill-rule="evenodd" clip-rule="evenodd" fill="#FFFFFF" d="M72.2,0c-0.3,0.4-0.6,0.6-0.6,0.8c0,0.2,0.3,0.4,0.5,0.6
			c0.2-0.2,0.6-0.4,0.6-0.6C72.7,0.7,72.4,0.4,72.2,0L72.2,0z"/>
		<path fill-rule="evenodd" clip-rule="evenodd" fill="#FFFFFF" d="M89.2,16.4c-0.3,0.4-0.6,0.6-0.5,0.8c0,0.2,0.3,0.5,0.5,0.7
			c0.2-0.2,0.6-0.4,0.6-0.6C89.8,17.1,89.5,16.8,89.2,16.4L89.2,16.4z"/>
		<path fill-rule="evenodd" clip-rule="evenodd" fill="#FFFFFF" d="M69.2,1.7c-0.4-0.2-0.6-0.5-0.8-0.5c-0.2,0-0.4,0.4-0.6,0.6
			c0.2,0.2,0.4,0.5,0.6,0.5C68.7,2.3,68.9,1.9,69.2,1.7L69.2,1.7z"/>
		<path fill-rule="evenodd" clip-rule="evenodd" fill="#FFFFFF" d="M88,20.3c-0.3,0.4-0.6,0.7-0.5,0.9c0,0.2,0.4,0.4,0.6,0.6
			c0.2-0.2,0.5-0.4,0.5-0.6C88.6,20.9,88.3,20.7,88,20.3L88,20.3z"/>
		<path fill-rule="evenodd" clip-rule="evenodd" fill="#FFFFFF" d="M64.9,2.4c-0.3,0.4-0.6,0.6-0.6,0.8c0,0.2,0.3,0.5,0.5,0.7
			c0.2-0.2,0.5-0.4,0.5-0.6C65.4,3,65.1,2.8,64.9,2.4L64.9,2.4z"/>
		<path fill-rule="evenodd" clip-rule="evenodd" fill="#FFFFFF" d="M88.6,9.8c0-0.1,0-0.2,0-0.3c-0.2-0.1-0.5-0.4-0.7-0.4
			c-0.2,0-0.4,0.3-0.6,0.5c0.2,0.2,0.5,0.5,0.7,0.5C88.2,10.2,88.4,10,88.6,9.8L88.6,9.8z"/>
		<path fill-rule="evenodd" clip-rule="evenodd" fill="#FFFFFF" d="M62.1,6.4c0.1,0,0.2,0,0.3,0c0.1-0.2,0.4-0.4,0.4-0.6
			c0-0.2-0.3-0.4-0.5-0.7c-0.2,0.2-0.4,0.4-0.5,0.6C61.7,5.9,61.9,6.1,62.1,6.4L62.1,6.4z"/>
		<path fill-rule="evenodd" clip-rule="evenodd" fill="#FFFFFF" d="M82.4,3.8c0,0.1,0,0.2,0,0.3c0.2,0.2,0.4,0.4,0.7,0.4
			c0.2,0,0.5-0.3,0.5-0.5c0-0.2-0.3-0.6-0.5-0.6C82.8,3.3,82.6,3.6,82.4,3.8L82.4,3.8z"/>
		<path fill-rule="evenodd" clip-rule="evenodd" fill="#FFFFFF" d="M89.1,14.1c0.3-0.4,0.5-0.6,0.5-0.8c0-0.2-0.3-0.4-0.5-0.6
			c-0.2,0.2-0.5,0.4-0.5,0.6C88.5,13.4,88.8,13.7,89.1,14.1L89.1,14.1z"/>
		<path fill-rule="evenodd" clip-rule="evenodd" fill="#FFFFFF" d="M80.7,2c-0.4-0.3-0.6-0.6-0.9-0.6c-0.2,0-0.5,0.3-0.5,0.5
			c0,0.2,0.3,0.5,0.5,0.5C80,2.5,80.2,2.3,80.7,2L80.7,2z"/>
		<path fill-rule="evenodd" clip-rule="evenodd" fill="#FFFFFF" d="M85.7,7.2c0.1,0,0.2,0,0.3,0c0.1-0.2,0.4-0.4,0.4-0.6
			c0-0.2-0.3-0.4-0.5-0.6c-0.2,0.2-0.5,0.3-0.6,0.5C85.4,6.7,85.6,6.9,85.7,7.2L85.7,7.2z"/>
		<path fill-rule="evenodd" clip-rule="evenodd" fill="#BD1D2D" d="M30.5,32.4c0-2.9-0.2-5.6,0.1-8.3c0.2-2,1.6-3.5,3.4-4.4
			c1.4-0.8,3-0.8,4.5-0.6c0.5,0.1,0.9,0.3,1.5,0.5c0-0.2,0.1-0.4,0.1-0.6c0-1.1,0-2.2,0-3.3c0-2,0.5-4,1.5-5.7
			c1.2-2,2.8-3.5,4.9-4.5c1.6-0.7,3.2-1.2,4.9-1.1c2.8,0.1,5.4,0.9,7.5,2.9c1,0.9,1.8,1.8,2.4,3.1c0.1,0.3,0.5,0.5,0.8,0.6
			c1.4,0.2,2.9,0.4,4.2,1.1c1.5,0.8,2.6,1.9,3.5,3.3c1.1,1.8,1.4,3.8,1.4,5.9c0,3.3,0,6.5,0,9.8c0,0.7-0.2,1.1-0.7,1.5
			c-1.3,1-2.3,2.2-3.1,3.7c-0.8,1.5-1.2,3-1.4,4.7c0,0.2-0.2,0.5-0.4,0.6c-2.5,1-4.3,2.8-5.1,5.3c-0.5,1.7-0.6,3.5,0.3,5.2
			c0.6,1.2,1.4,2.3,2.1,3.5c-0.5,0-1.1,0.1-1.6,0c-0.4-0.1-0.7-0.6-0.9-1c-0.8-1.6-1.5-3.3-2-5.1c-0.6-2.4-1.1-4.7-1-7.2
			c0-0.4,0.1-0.9,0.2-1.4c2.4,0.9,4.7,0.9,7,0.3c0.4-0.1,0.6-0.2,0.6-0.6c0-0.7,0-1.5-0.1-2.2c0-0.2-0.3-0.4-0.4-0.4
			c-2.2-0.2-3.9-1.1-5.3-2.9c-0.8-1-1.4-2.1-1.5-3.3c0-0.6,0.2-1.2,0.4-1.8c0.1-0.3,0.3-0.4,0.8-0.1c1,0.8,2.2,1.4,3.3,2.1
			c0.3,0.2,0.7,0.3,1,0.5c1.5,0.6,2.9,0.2,4.3-0.3c0.3-0.1,0.6-0.2,0.9-0.2c0.5,0,0.6-0.3,0.5-0.7c-0.3-1-0.5-2.1-0.8-3.1
			c-0.1-0.3-0.1-0.7,0-0.9c0.3-0.9,0.3-1.8-0.1-2.6c-0.5-0.9-1.1-1.7-1.7-2.5c-0.3-0.4-0.5-0.6-0.4-1.2c0.4-1.5-0.1-2.5-1.4-2.7
			c-0.5-0.1-1.1,0-1.5,0.2c-0.8,0.3-1.6,0-2.3-0.1c-1.1-0.2-2.3-0.6-3.4-0.7c-1.8,0-3.7,0-5.5,0.3c-1.6,0.2-3.2,0.9-4.6,1.8
			c-1.3,0.9-2.7,1.9-3.9,3c-1.1,1-1.9,2.3-2.8,3.5c-0.6,0.8-1.1,1.8-1.7,2.7c-0.2,0.2-0.5,0.4-0.8,0.5c-1.7,0.1-3.3,0.5-4.8,1.3
			c-0.8,0.4-1.5,1.2-2.2,1.8C30.8,32.1,30.7,32.2,30.5,32.4L30.5,32.4z"/>
		<path fill-rule="evenodd" clip-rule="evenodd" d="M71.7,27c0-2,0-3.9,0-5.9c0-0.2,0.4-0.5,0.6-0.6c1.9-0.3,3.8-0.8,5.8-0.6
			c2,0.2,4,0.4,5.9,1.3c1.4,0.6,2.9,1.2,4.2,2c1.1,0.6,2.1,1.5,2.9,2.4c1,1.1,1.9,2.3,2.8,3.5c0.4,0.5,0.6,1.1,0.9,1.7
			c1.3,2.8,1.8,5.7,1.7,8.7c-0.1,5-0.1,10.1,0,15.1c0,0.6-0.2,0.8-0.8,0.7c-1.7,0-3.3,0-5.1,0c0-1.4,0-2.8,0-4.2c0-4.1,0-8.2,0-12.2
			c0-2.7-0.9-5.1-2.5-7.3c-1.4-1.9-3.2-3.3-5.4-4.3c-3.3-1.5-6.6-1.7-10-0.6c0,0-0.1,0-0.1,0C72.4,26.8,72.1,26.9,71.7,27L71.7,27z"
			/>
		<path fill-rule="evenodd" clip-rule="evenodd" fill="#FFF200" d="M71.8,19.7c0-5.4-4-8.7-8.1-9.3c1.1-3.7,8.6-6.6,13.1-5.3
			c7.2,2.2,10.3,9.5,8,15.2c-2.2-0.4-4.3-1-6.5-1.2C76.2,19.1,74,19.5,71.8,19.7L71.8,19.7z"/>
		<path fill-rule="evenodd" clip-rule="evenodd" fill="#BD1D2D" d="M37,35c-2.6,6.6-4.1,13.2-3.7,20.3c-0.9,0-1.7,0-2.6,0
			c-0.1,0-0.3-0.3-0.3-0.4c0-0.5,0-1,0-1.5c0-5.2,0-10.3,0-15.5c0-0.8,0.3-1.2,0.9-1.5c1.3-0.5,2.6-1,3.9-1.4
			C35.7,34.9,36.2,35,37,35L37,35z"/>
		<path fill-rule="evenodd" clip-rule="evenodd" fill="#BD1D2D" d="M39.8,55.3c0.2-1.1,0.3-2.1,0.6-3.1c0.2-0.7,0.4-1.3,0.8-2
			c0.9-1.8,2.9-2.2,4.4-1.8c2.7,0.7,4.7,2.3,6.7,4.1c0.9,0.8,1.6,1.7,2.5,2.7C49.6,55.3,44.8,55.3,39.8,55.3L39.8,55.3z"/>
		<path fill-rule="evenodd" clip-rule="evenodd" d="M79.9,46c-0.7-0.3-1.3-0.6-1.8-0.9c-0.2-0.1-0.2-0.4-0.3-0.6
			c0.2-0.1,0.4-0.1,0.6-0.2c0.2,0,0.5,0,0.7,0c0.6,0,1-0.3,1.1-0.9c0.1-0.4,0.2-0.8,0.3-1.2c0.1,0,0.1,0,0.2,0
			c0.1,0.4,0.2,0.8,0.3,1.1c0.2,0.8,0.4,1,1.2,1c0.2,0,0.4,0,0.6,0c0.2,0,0.4,0.1,0.6,0.1c-0.1,0.2-0.2,0.5-0.3,0.6
			c-0.3,0.2-0.7,0.4-1.1,0.6c-0.2,0.1-0.4,0.2-0.5,0.3c0.1,0.2,0.3,0.5,0.4,0.6c0.6,0.1,1.3,0.2,1.9,0.2c0.3,0,0.6,0.1,0.9,0.2
			c-0.1,0.3-0.2,0.8-0.4,0.9c-0.6,0.3-1.4,0.4-2,0.6c-0.2,0.1-0.4,0.1-0.6,0.1c0.1,0.2,0.1,0.4,0.3,0.6c0.7,0.8,2.5,0.9,3.5,0.1
			c0.2-0.1,0.5-0.3,0.6-0.2c0.2,0.1,0.3,0.4,0.3,0.6c-0.1,1.1-0.9,1.7-1.7,2.1c-0.6,0.3-1.3,0.3-1.9,0.4c-1,0.1-1.2,0.3-1.2,1.3
			c0,0.6,0,1.1,0,1.8c-0.5,0-0.9,0-1.4,0c-0.1,0-0.3-0.3-0.3-0.4c0-0.5,0-1,0-1.4c0-0.8-0.4-1.1-1.1-1.2c-0.7-0.1-1.4-0.2-2-0.4
			c-0.8-0.3-1.4-1-1.7-1.8c-0.1-0.3,0.1-0.6,0.2-0.9c0.3,0.1,0.5,0.1,0.8,0.2c1.1,0.7,2.8,0.6,3.4-0.3c0.1-0.1,0.1-0.3,0.2-0.5
			c-0.2-0.1-0.4-0.2-0.5-0.2c-0.9,0-1.7-0.2-2.3-0.9c-0.1-0.2-0.2-0.5-0.2-0.6c0.1-0.1,0.4-0.2,0.6-0.2c0.6,0,1.2,0,1.8-0.1
			C79.2,46.5,79.5,46.2,79.9,46L79.9,46z"/>
		<path fill-rule="evenodd" clip-rule="evenodd" d="M69.1,55.3c-0.6,0-1.1,0-1.7,0c0-0.6,0-1.2,0-1.9c0-0.9-0.2-1.1-1.1-1.2
			c-0.4-0.1-0.9-0.1-1.3-0.1c-1-0.2-1.7-0.9-2.3-1.7c-0.2-0.2-0.2-0.6-0.1-0.9c0.1-0.5,0.3-0.7,0.8-0.3c0.9,0.7,2.7,1,3.6-0.2
			c0.1-0.1,0.2-0.3,0.2-0.4c-0.2-0.1-0.3-0.1-0.5-0.2c-0.7-0.2-1.3-0.3-2-0.5c-0.2-0.1-0.5-0.4-0.6-0.6c-0.2-0.5,0.1-0.7,0.7-0.6
			c0.7,0,1.3,0,2-0.2c0.2,0,0.4-0.4,0.7-0.6c-0.6-0.3-1.2-0.5-1.6-0.8c-0.2-0.1-0.3-0.4-0.5-0.7c0.2-0.1,0.5-0.2,0.7-0.1
			c1.3,0.1,1.6-0.1,1.8-1.4c0.1-0.3,0.2-0.5,0.3-0.9c0.2,0.6,0.4,1,0.5,1.4c0.1,0.7,0.5,0.9,1.1,0.9c0.3,0,0.5-0.1,0.8-0.1
			c0.2,0,0.4,0.1,0.4,0.2c0,0.1,0,0.4-0.2,0.5c-0.4,0.3-0.9,0.5-1.4,0.7c-0.2,0.1-0.3,0.2-0.5,0.3c0.1,0.2,0.2,0.4,0.3,0.5
			c0.6,0.3,1.3,0.6,2,0.4c0.3-0.1,0.8-0.3,0.8,0.2c0,0.3-0.2,0.8-0.4,0.9c-0.6,0.3-1.3,0.4-1.9,0.5c-0.2,0-0.4,0.1-0.6,0.1
			c0.7,1.6,2.8,1.4,3.7,0.8c0.2-0.1,0.4-0.2,0.6-0.3c0.1,0.3,0.3,0.5,0.3,0.8c0,0.9-1.1,2-2.3,2.2c-0.5,0.1-1,0.1-1.6,0.2
			c-0.6,0.1-1,0.4-1,1.1C69.1,54,69.1,54.6,69.1,55.3L69.1,55.3z"/>
		<path fill-rule="evenodd" clip-rule="evenodd" d="M73.5,39.2c-0.4,0-0.6-0.1-0.9-0.1c-0.8-0.1-1.6-0.2-2.1-0.8
			c-0.2-0.2-0.1-0.5-0.2-0.8c0.2,0,0.5-0.1,0.7-0.1c0.8,0.2,1.5,0.1,2.2-0.4c0.1-0.1,0.2-0.3,0.3-0.4c-0.1-0.1-0.3-0.2-0.4-0.3
			c-0.5-0.2-1-0.4-1.4-0.7c-0.1-0.1-0.1-0.3-0.2-0.5c0.2,0,0.3-0.1,0.5-0.1c0.3,0,0.5,0.1,0.8,0.1c0.6,0,0.9-0.2,1.1-0.8
			c0.1-0.4,0.2-0.8,0.3-1.2c0.1,0,0.1,0,0.2,0c0.1,0.3,0.2,0.5,0.3,0.8c0.3,1.1,0.6,1.3,1.8,1.2c0.2,0,0.5,0.1,0.7,0.1
			c-0.1,0.2-0.2,0.5-0.4,0.7c-0.3,0.2-0.8,0.3-1.2,0.5c-0.2,0.1-0.3,0.2-0.4,0.2c0.1,0.2,0.2,0.4,0.3,0.5c0.6,0.2,1.3,0.3,2,0.4
			c0.3,0,0.8-0.3,1,0.2c0.1,0.5-0.1,0.9-0.6,1c-0.6,0.2-1.3,0.3-1.9,0.4c-0.2,0-0.4,0.1-0.5,0.2c0.1,0.1,0.2,0.3,0.3,0.4
			c1.1,1,2.4,1.1,3.6,0.2c0.4-0.3,0.7-0.2,0.7,0.3c0,0.3,0,0.8-0.2,1c-0.6,0.9-1.4,1.6-2.5,1.6c-0.1,0-0.2,0-0.3,0
			c-1.6,0.1-1.8,0-1.8,2.1c0,0.3,0,0.6,0,0.9c-0.1,0.1-0.1,0.1-0.2,0.1c-1.4,0.1-1.4,0.1-1.4-1.4c0-1.4-0.1-1.6-1.5-1.7
			c-1.3-0.1-2.4-0.6-3.1-1.7c-0.2-0.3-0.2-0.7-0.2-1c0-0.5,0.4-0.6,0.7-0.3C71.1,40.8,72.2,40.7,73.5,39.2L73.5,39.2z"/>
		<path fill-rule="evenodd" clip-rule="evenodd" d="M44.2,32.8c1.3-2.1,2.8-3.8,4.4-5.3c0.8,0.6,1.4,1.3,2.2,1.8
			c1.3,0.9,2.9,1.4,4.5,1.5C56,31,56,31,55.8,31.8c-0.2,0.8-0.3,1.6-0.4,2.4c-0.1,0.5-0.2,0.8-0.8,0.6c-2.6-0.5-5.3-1-7.9-1.5
			C45.9,33.1,45.1,33,44.2,32.8L44.2,32.8z"/>
		<path fill-rule="evenodd" clip-rule="evenodd" d="M50.1,46.2c-1.6-0.2-3.4-0.3-5-0.7c-1.6-0.4-3.1-1.1-4.6-1.7
			c-0.6-0.2-0.4-0.7-0.2-1c0.1-0.2,0.5-0.3,0.7-0.3c2.8,0.5,5.6,1,8.4,1.5c1.6,0.3,3.2,0.6,4.8,0.9c0.2,0,0.6,0.2,0.6,0.4
			c0.1,0.5-0.4,0.4-0.6,0.5C52.8,45.9,51.5,46,50.1,46.2L50.1,46.2z"/>
		<path fill-rule="evenodd" clip-rule="evenodd" d="M46.2,35.7c-0.2,0.1-0.4,0.3-0.6,0.4c-0.7,0.4-1.4,0.8-2.1,1.2
			c-0.2,0.1-0.4,0.5-0.3,0.7c0.1,0.4,0.4,0.3,0.8,0.1c0.7-0.4,1.5-0.8,2.2-1.2c0.2-0.1,0.5-0.2,0.7-0.3c0,0.1,0.1,0.1,0.1,0.2
			c-0.6,0.4-1.3,0.8-1.9,1.1c-0.4,0.2-0.8,0.4-1.1,0.7c-0.1,0.1-0.1,0.5,0,0.6c0.1,0.1,0.5,0.2,0.6,0.1c0.8-0.4,1.6-0.9,2.4-1.4
			c0.1,0,0.2-0.1,0.2-0.1c0.2,0,0.4,0.1,0.7,0.1c-0.1,0.2-0.2,0.5-0.3,0.6c-0.4,0.3-0.8,0.5-1.2,0.8c-0.9,0.6-1.8,1.1-2.6,1.7
			c-0.6,0.4-1.2,0.6-2,0.3c-0.3-0.1-0.6-0.1-1.1-0.2c0.5-1.5,1-2.9,1.6-4.5c0.4,0.9,0.8,0.7,1.4,0.4c0.8-0.5,1.6-0.9,2.5-1.4
			C46,35.6,46.1,35.7,46.2,35.7L46.2,35.7z"/>
		<path fill-rule="evenodd" clip-rule="evenodd" d="M52,36.8c0.1,0.1,0.3,0.1,0.4,0.2c0.6,0.6,1,1.4,1.7,1.9
			c0.8,0.7,0.6,1.5,0.6,2.3c0,0.8,0,1.5,0,2.4c-0.9,0-1.7-0.1-2.2-0.9c-0.9-1.4-2-2.6-2.9-4c-0.1-0.1,0-0.3,0-0.5
			c0.2,0,0.5,0,0.6,0.1c0.5,0.6,1,1.2,1.4,1.8c0.2,0.2,0.3,0.5,0.6,0.7c0.1,0.1,0.5,0.2,0.6,0.1c0.1-0.1,0.2-0.4,0.1-0.6
			c-0.5-0.8-1.1-1.5-1.7-2.3c-0.1-0.2-0.2-0.4-0.4-0.6c0.1,0,0.1-0.1,0.2-0.1c0.1,0.1,0.2,0.2,0.3,0.3c0.6,0.8,1.3,1.7,1.9,2.4
			c0.1,0.1,0.5,0.1,0.6,0c0.1-0.1,0.2-0.5,0.1-0.6c-0.6-0.9-1.3-1.7-2-2.5C51.9,36.9,52,36.9,52,36.8L52,36.8z"/>
		<path fill-rule="evenodd" clip-rule="evenodd" d="M46.7,34.5c1.8,0.3,3.5,0.7,5.5,1c-1.2,0.8-2.3,1.4-3.4,2.1c-0.7-1-1.5-2-2.2-3
			C46.6,34.7,46.6,34.6,46.7,34.5L46.7,34.5z"/>
		<path fill-rule="evenodd" clip-rule="evenodd" d="M44,41.7c0.8-0.5,1.6-1,2.4-1.5c0.6-0.4,1.2-0.7,1.8-1.1c0.2-0.1,0.5-0.1,0.6,0
			c1,1.3,1.9,2.6,3,4c-0.8-0.2-1.4-0.3-1.8-1c-0.4-0.7-0.9-1.3-1.4-1.9c-0.1-0.1-0.5-0.1-0.6-0.1c-0.6,0.3-1.1,0.6-1.6,1
			C45.7,42,44.9,42,44,41.7L44,41.7z"/>
		<path fill-rule="evenodd" clip-rule="evenodd" fill="#FFF200" d="M72.1,3.1c0,0.7-0.6,1.4-1.3,1.4c-0.7,0-1.4-0.7-1.4-1.4
			c0-0.7,0.7-1.4,1.4-1.4C71.5,1.8,72.1,2.4,72.1,3.1L72.1,3.1z"/>
		<path fill-rule="evenodd" clip-rule="evenodd" fill="#FFF200" d="M85.8,18.8c0-0.8,0.6-1.4,1.4-1.4c0.8,0,1.3,0.6,1.4,1.3
			c0.1,0.7-0.8,1.3-1.4,1.3C86.4,20.1,85.8,19.5,85.8,18.8L85.8,18.8z"/>
		<path fill-rule="evenodd" clip-rule="evenodd" fill="#FFF200" d="M67.5,5.5c-0.7,0-1.3-0.7-1.3-1.4c0-0.7,0.8-1.3,1.4-1.3
			c0.7,0,1.3,0.7,1.3,1.5C68.9,5,68.3,5.5,67.5,5.5L67.5,5.5z"/>
		<path fill-rule="evenodd" clip-rule="evenodd" fill="#FFF200" d="M79.1,4.6c0-0.8,0.6-1.3,1.3-1.3c0.7,0,1.3,0.6,1.3,1.4
			c0,0.7-0.7,1.4-1.4,1.3C79.7,5.9,79.1,5.3,79.1,4.6L79.1,4.6z"/>
		<path fill-rule="evenodd" clip-rule="evenodd" fill="#FFF200" d="M85.2,7.9c0.8,0,1.3,0.5,1.3,1.3c0,0.8-0.5,1.3-1.3,1.3
			c-0.8,0-1.3-0.5-1.4-1.3C83.9,8.4,84.5,7.9,85.2,7.9L85.2,7.9z"/>
		<path fill-rule="evenodd" clip-rule="evenodd" fill="#FFF200" d="M88,12.3c0,0.8-0.5,1.2-1.3,1.2c-0.8,0-1.3-0.5-1.3-1.3
			c0-0.8,0.5-1.3,1.3-1.3C87.5,10.9,88,11.4,88,12.3L88,12.3z"/>
		<path fill-rule="evenodd" clip-rule="evenodd" fill="#FFF200" d="M78.7,3.4c0,0.8-0.5,1.3-1.3,1.3c-0.7,0-1.3-0.6-1.3-1.3
			c0-0.7,0.5-1.2,1.3-1.3C78.2,2.1,78.7,2.5,78.7,3.4L78.7,3.4z"/>
		<path fill-rule="evenodd" clip-rule="evenodd" fill="#FFF200" d="M62.5,9.7c-0.8,0-1.3-0.5-1.3-1.3c0-0.7,0.6-1.3,1.4-1.3
			c0.7,0,1.4,0.7,1.3,1.3C63.9,9.2,63.3,9.7,62.5,9.7L62.5,9.7z"/>
		<path fill-rule="evenodd" clip-rule="evenodd" fill="#FFF200" d="M87.4,14.2c0.8,0,1.3,0.5,1.3,1.3c0,0.8-0.5,1.3-1.3,1.3
			c-0.8,0-1.3-0.5-1.3-1.3C86.1,14.7,86.6,14.2,87.4,14.2L87.4,14.2z"/>
		<path fill-rule="evenodd" clip-rule="evenodd" fill="#FFF200" d="M83.2,5.3c0.8,0,1.4,0.5,1.4,1.3c0,0.7-0.6,1.3-1.4,1.3
			c-0.8,0-1.3-0.6-1.3-1.3C81.8,5.8,82.3,5.3,83.2,5.3L83.2,5.3z"/>
		<path fill-rule="evenodd" clip-rule="evenodd" fill="#FFF200" d="M66,5.9c0,0.8-0.4,1.3-1.2,1.4c-0.9,0-1.4-0.4-1.4-1.3
			c0-0.7,0.5-1.3,1.2-1.3C65.4,4.6,66,5.1,66,5.9L66,5.9z"/>
		<path fill-rule="evenodd" clip-rule="evenodd" fill="#FFF200" d="M75.4,2.9c0,0.8-0.4,1.2-1.3,1.2c-0.8,0-1.3-0.5-1.3-1.3
			c0-0.8,0.6-1.3,1.3-1.3C74.9,1.5,75.4,2,75.4,2.9L75.4,2.9z"/>
		<path fill-rule="evenodd" clip-rule="evenodd" d="M45.8,34.6c-1.1,0.6-2.2,1.2-3.3,1.8c-0.1-0.1-0.1-0.1-0.2-0.2
			c0.4-0.7,0.7-1.4,1.1-2.1C43.5,34,43.8,34,44,34c0.6,0.1,1.2,0.3,1.8,0.4C45.8,34.5,45.8,34.5,45.8,34.6L45.8,34.6z"/>
		<path fill-rule="evenodd" clip-rule="evenodd" d="M52.7,35.7c0.7,0.1,1.4,0.2,2,0.4c0.1,0,0.2,0.3,0.2,0.5c0,0.6-0.1,1.2-0.1,2
			c-0.8-1-1.5-1.8-2.2-2.7C52.7,35.8,52.7,35.7,52.7,35.7L52.7,35.7z"/>
		<path fill-rule="evenodd" clip-rule="evenodd" fill="#FFF200" d="M76.2,0.4c0.1,0.3,0.3,0.6,0.4,0.9c0,0.1-0.4,0.3-0.6,0.3
			c-0.2,0-0.6-0.3-0.5-0.4c0.1-0.3,0.3-0.6,0.4-0.8C76,0.4,76.1,0.4,76.2,0.4L76.2,0.4z"/>
		<path fill-rule="evenodd" clip-rule="evenodd" fill="#FFF200" d="M72.2,0c0.3,0.4,0.6,0.7,0.6,0.9c0,0.2-0.4,0.4-0.6,0.6
			c-0.2-0.2-0.5-0.4-0.5-0.6C71.6,0.7,71.9,0.4,72.2,0L72.2,0z"/>
		<path fill-rule="evenodd" clip-rule="evenodd" fill="#FFF200" d="M89.2,16.4c0.3,0.4,0.6,0.7,0.6,0.9c0,0.2-0.4,0.4-0.6,0.6
			c-0.2-0.2-0.5-0.4-0.5-0.7C88.7,17,88.9,16.8,89.2,16.4L89.2,16.4z"/>
		<path fill-rule="evenodd" clip-rule="evenodd" fill="#FFF200" d="M69.2,1.7c-0.3,0.3-0.5,0.6-0.7,0.6c-0.2,0-0.4-0.3-0.6-0.5
			c0.2-0.2,0.4-0.5,0.6-0.6C68.6,1.1,68.9,1.4,69.2,1.7L69.2,1.7z"/>
		<path fill-rule="evenodd" clip-rule="evenodd" fill="#FFF200" d="M88,20.3c0.3,0.4,0.5,0.6,0.5,0.9c0,0.2-0.3,0.4-0.5,0.6
			c-0.2-0.2-0.6-0.3-0.6-0.6C87.4,21,87.7,20.7,88,20.3L88,20.3z"/>
		<path fill-rule="evenodd" clip-rule="evenodd" fill="#FFF200" d="M64.9,2.4c0.2,0.4,0.5,0.7,0.5,0.9c0,0.2-0.4,0.4-0.5,0.6
			c-0.2-0.2-0.5-0.4-0.5-0.7C64.3,3,64.6,2.8,64.9,2.4L64.9,2.4z"/>
		<path fill-rule="evenodd" clip-rule="evenodd" fill="#FFF200" d="M88.6,9.8c-0.2,0.1-0.4,0.4-0.6,0.4c-0.3-0.1-0.5-0.3-0.7-0.5
			c0.2-0.2,0.4-0.5,0.6-0.5c0.2,0,0.5,0.2,0.7,0.4C88.6,9.6,88.6,9.7,88.6,9.8L88.6,9.8z"/>
		<path fill-rule="evenodd" clip-rule="evenodd" fill="#FFF200" d="M62.1,6.4c-0.1-0.2-0.4-0.5-0.3-0.7c0-0.2,0.3-0.4,0.5-0.6
			c0.2,0.2,0.5,0.4,0.5,0.7c0,0.2-0.2,0.4-0.4,0.6C62.2,6.4,62.1,6.4,62.1,6.4L62.1,6.4z"/>
		<path fill-rule="evenodd" clip-rule="evenodd" fill="#FFF200" d="M82.4,3.8c0.2-0.1,0.5-0.4,0.7-0.4c0.2,0,0.5,0.4,0.5,0.6
			c0,0.2-0.3,0.5-0.5,0.5c-0.2,0-0.4-0.3-0.7-0.4C82.4,4,82.4,3.9,82.4,3.8L82.4,3.8z"/>
		<path fill-rule="evenodd" clip-rule="evenodd" fill="#FFF200" d="M89.1,14.1c-0.3-0.4-0.5-0.7-0.5-0.8c0-0.2,0.3-0.4,0.5-0.6
			c0.2,0.2,0.5,0.4,0.5,0.6C89.6,13.4,89.3,13.7,89.1,14.1L89.1,14.1z"/>
		<path fill-rule="evenodd" clip-rule="evenodd" fill="#FFF200" d="M80.7,2c-0.4,0.2-0.7,0.5-0.9,0.5c-0.2,0-0.5-0.4-0.5-0.5
			c0-0.2,0.4-0.5,0.5-0.5C80,1.5,80.2,1.8,80.7,2L80.7,2z"/>
		<path fill-rule="evenodd" clip-rule="evenodd" fill="#FFF200" d="M85.7,7.2c-0.1-0.2-0.4-0.5-0.3-0.7c0-0.2,0.4-0.4,0.6-0.5
			c0.2,0.2,0.4,0.4,0.5,0.6c0,0.2-0.3,0.4-0.4,0.6C85.9,7.2,85.8,7.2,85.7,7.2L85.7,7.2z"/>
	</g>
</g>
</svg>
