<?xml version="1.0" encoding="utf-8"?>
<!-- Generator: Adobe Illustrator 18.0.0, SVG Export Plug-In . SVG Version: 6.00 Build 0)  -->
<!DOCTYPE svg PUBLIC "-//W3C//DTD SVG 1.1//EN" "http://www.w3.org/Graphics/SVG/1.1/DTD/svg11.dtd">
<svg version="1.1" id="Layer_1" xmlns="http://www.w3.org/2000/svg" xmlns:xlink="http://www.w3.org/1999/xlink" x="0px" y="0px"
	 viewBox="0 0 36 36" enable-background="new 0 0 36 36" xml:space="preserve">
<linearGradient id="SVGID_1_" gradientUnits="userSpaceOnUse" x1="13.6305" y1="2.9811" x2="22.011" y2="31.7867" gradientTransform="matrix(1 0 0 -1 0 36)">
	<stop  offset="0" style="stop-color:#FFC94C"/>
	<stop  offset="0.5118" style="stop-color:#F25766"/>
	<stop  offset="1" style="stop-color:#832CAE"/>
</linearGradient>
<path fill="url(#SVGID_1_)" d="M13,18c0-2.8,2.3-5,5-5s5,2.3,5,5s-2.3,5-5,5S13,20.8,13,18 M10.3,18c0,4.3,3.4,7.7,7.7,7.7
	s7.7-3.4,7.7-7.7s-3.4-7.7-7.7-7.7S10.3,13.8,10.3,18 M24.2,10c0,1,0.8,1.8,1.8,1.8s1.8-0.8,1.8-1.8S27,8.2,26,8.2S24.2,9,24.2,10
	 M11.9,30.3c-1.4-0.1-2.2-0.3-2.7-0.6c-0.7-0.2-1.2-0.6-1.8-1.1c-0.5-0.5-0.8-1-1.1-1.8c-0.3-0.5-0.5-1.3-0.6-2.8
	C5.7,22.5,5.7,22,5.7,18s0-4.5,0.1-6.1c0.1-1.4,0.3-2.2,0.6-2.7C6.6,8.5,6.9,8,7.4,7.4c0.5-0.5,1-0.8,1.8-1.1
	c0.5-0.3,1.3-0.5,2.7-0.6C13.5,5.7,14,5.7,18,5.7s4.5,0,6.1,0.1c1.4,0.1,2.3,0.3,2.8,0.6c0.7,0.3,1.2,0.6,1.8,1.1
	c0.5,0.5,0.8,1,1.1,1.8c0.2,0.5,0.4,1.3,0.5,2.7c0.1,1.6,0.1,2.1,0.1,6.1s0,4.5-0.1,6.1c0,1.4-0.3,2.3-0.5,2.8
	c-0.2,0.7-0.6,1.2-1.1,1.8c-0.5,0.5-1,0.8-1.8,1.1c-0.5,0.2-1.3,0.4-2.8,0.5c-1.6,0.1-2.1,0.1-6.1,0.1C14,30.3,13.5,30.3,11.9,30.3
	 M11.8,3.1c-1.6,0.1-2.7,0.3-3.7,0.7c-1,0.4-1.8,0.9-2.7,1.8S4.2,7.2,3.8,8.2c-0.3,0.9-0.6,2.1-0.7,3.7C3,13.4,3,13.9,3,18
	s0,4.6,0.1,6.2c0.1,1.6,0.3,2.7,0.7,3.7c0.4,1,0.9,1.8,1.8,2.7s1.7,1.3,2.7,1.8c0.9,0.3,2.1,0.6,3.7,0.7C13.4,33,13.9,33,18,33
	s4.6,0,6.2-0.1c1.6-0.1,2.7-0.3,3.7-0.7c1-0.4,1.8-0.9,2.7-1.8s1.3-1.7,1.8-2.7c0.3-0.9,0.6-2.1,0.7-3.7C33,22.6,33,22.1,33,18
	s0-4.6-0.1-6.2s-0.3-2.7-0.7-3.7c-0.4-1-0.9-1.8-1.8-2.7s-1.7-1.3-2.7-1.8c-0.9-0.3-2.1-0.6-3.7-0.7C22.6,3,22.1,3,18,3
	S13.4,3,11.8,3.1"/>
</svg>
