<?xml version="1.0" encoding="utf-8"?>
<svg width="100px" height="100px" viewBox="0 0 100 100" preserveAspectRatio="xMidYMid" class="uil-ripple" xmlns="http://www.w3.org/2000/svg">
  <circle cx="50" cy="50" r="36" style="fill: rgb(255, 255, 255);"/>
  <path fill="#93BE3D" d="M 78.65 29.888 C 67.559 14.101 45.676 10.204 29.888 21.295 C 14.101 32.386 10.204 54.169 21.295 70.057 C 32.386 85.845 54.269 89.742 70.057 78.65 C 85.845 67.559 89.742 45.776 78.65 29.888 Z M 64.162 57.867 C 64.162 58.166 64.062 58.666 63.962 59.166 C 63.862 59.765 63.662 60.165 63.562 60.465 C 63.262 61.064 62.563 61.764 61.264 62.463 C 60.065 63.063 58.866 63.462 57.767 63.462 C 57.467 63.462 57.067 63.462 56.767 63.362 C 56.468 63.362 56.068 63.262 55.668 63.162 C 55.269 63.063 54.969 62.963 54.769 62.863 C 54.569 62.763 54.269 62.663 53.67 62.463 C 53.17 62.263 52.87 62.163 52.771 62.163 C 51.571 61.764 50.472 61.164 49.473 60.564 C 47.874 59.565 46.176 58.166 44.477 56.468 C 42.778 54.769 41.379 53.07 40.38 51.472 C 39.781 50.472 39.281 49.373 38.781 48.174 C 38.781 48.074 38.582 47.774 38.482 47.275 C 38.282 46.775 38.182 46.376 38.082 46.176 C 37.982 45.976 37.882 45.676 37.782 45.276 C 37.682 44.877 37.582 44.477 37.582 44.177 C 37.582 43.877 37.482 43.478 37.482 43.178 C 37.482 41.979 37.782 40.88 38.482 39.681 C 39.181 38.382 39.881 37.582 40.48 37.383 C 40.78 37.283 41.18 37.083 41.779 36.983 C 42.379 36.883 42.778 36.783 43.078 36.783 C 43.278 36.783 43.378 36.783 43.478 36.883 C 43.678 36.983 44.077 37.482 44.477 38.282 C 44.577 38.482 44.777 38.881 45.077 39.281 C 45.376 39.681 45.576 40.08 45.776 40.48 C 45.976 40.88 46.176 41.18 46.376 41.479 C 46.376 41.579 46.475 41.679 46.675 41.979 C 46.875 42.279 46.975 42.479 47.075 42.678 C 47.175 42.878 47.175 43.078 47.175 43.178 C 47.175 43.478 46.975 43.778 46.675 44.177 C 46.276 44.577 45.876 44.877 45.476 45.176 C 45.077 45.476 44.677 45.876 44.277 46.176 C 43.877 46.575 43.778 46.775 43.778 47.075 C 43.778 47.175 43.778 47.375 43.877 47.475 C 43.977 47.675 43.977 47.774 44.077 47.874 C 44.177 47.974 44.177 48.074 44.377 48.374 C 44.477 48.574 44.577 48.674 44.577 48.774 C 45.576 50.472 46.675 51.971 47.874 53.27 C 49.073 54.469 50.572 55.568 52.371 56.568 C 52.371 56.568 52.471 56.668 52.771 56.767 C 53.07 56.867 53.17 56.967 53.27 57.067 C 53.37 57.067 53.47 57.167 53.67 57.267 C 53.87 57.367 53.97 57.367 54.07 57.367 C 54.269 57.367 54.569 57.167 54.969 56.867 C 55.369 56.468 55.668 56.068 55.968 55.668 C 56.268 55.269 56.668 54.869 56.967 54.469 C 57.367 54.07 57.667 53.97 57.966 53.97 C 58.166 53.97 58.366 53.97 58.466 54.07 C 58.666 54.169 58.866 54.269 59.166 54.469 C 59.465 54.669 59.565 54.769 59.665 54.769 C 59.965 54.969 60.365 55.169 60.664 55.369 C 61.064 55.568 61.464 55.768 61.863 56.068 C 62.263 56.268 62.663 56.468 62.863 56.668 C 63.762 57.067 64.262 57.467 64.262 57.667 C 64.162 57.567 64.162 57.667 64.162 57.867 Z"/>
  <circle id="circle1" cx="50" cy="50" r="80" stroke="#93BE3D" fill="none" stroke-width="2" stroke-linecap="round"/>
  <circle id="circle2" cx="50" cy="50" r="80" stroke="#93BE3D" fill="none" stroke-width="2" stroke-linecap="round"/>
  <circle id="ring_1_" fill="none" stroke="#FFFFFF" stroke-width="2" stroke-miterlimit="10" cx="50" cy="50" r="30" style=""/>
</svg>